<svg xmlns="http://www.w3.org/2000/svg" xmlns:xlink="http://www.w3.org/1999/xlink" width="3000" zoomAndPan="magnify" viewBox="0 0 2250 2250.000011" height="3000" preserveAspectRatio="xMidYMid meet" version="1.0"><path stroke-linecap="round" transform="matrix(22.644097, 0, 0, 22.649143, -592.701121, -549.176329)" fill="none" stroke-linejoin="round" d="M 101.999969 83.999994 C 97.539991 78.220078 96.469934 71.620076 96.940014 64.500084 C 97.260013 59.679952 97.000046 54.829982 97.000046 50.000019 C 97.000046 39.879948 93.919945 35.310066 83.999969 32.590075 C 74.999969 30.11999 66.299958 30.999921 58.440052 36.920054 C 54.999931 39.479995 53.699923 43.000064 52.050073 46.519962 C 51.720068 47.200002 51.640025 48.520072 52.050073 48.940031 C 55.170022 51.800066 59.340017 50.570025 63.049938 51.409944 C 64.780004 51.800066 65.379981 50.349956 66.190071 48.570087 C 69.730073 40.82007 78.189956 41.770023 81.019922 46.009974 C 82.840037 48.699956 81.729958 51.640016 82.019941 54.319994 C 77.020018 56.60002 72.119976 55.869963 67.470068 56.919948 C 52.250007 60.369996 47.780023 72.449992 51.000027 82.510044 C 51.054194 82.698034 51.112156 82.884817 51.173913 83.070392 C 51.23567 83.255968 51.30105 83.440336 51.370398 83.623324 C 51.439573 83.806313 51.51237 83.987749 51.588963 84.167806 C 51.665556 84.34769 51.745599 84.526194 51.829437 84.702973 C 51.913103 84.879753 52.000563 85.054808 52.091302 85.227966 C 52.182212 85.401296 52.276401 85.572557 52.374212 85.742092 C 52.472023 85.911456 52.573112 86.078922 52.677651 86.244146 C 52.782189 86.409543 52.890006 86.572698 53.001272 86.733783 C 53.112366 86.894695 53.226738 87.053366 53.344215 87.209794 C 53.461864 87.36605 53.582446 87.520064 53.706306 87.671491 C 53.829993 87.822918 53.956785 87.97193 54.086682 88.118183 C 54.216407 88.264608 54.349237 88.408274 54.484827 88.54918 C 54.620417 88.690259 54.758767 88.828405 54.90005 88.963793 C 55.04116 89.09918 55.18503 89.231635 55.33166 89.361159 C 55.478118 89.490682 55.627336 89.617274 55.778969 89.740761 C 55.930602 89.86442 56.084823 89.984803 56.241286 90.102081 C 56.397922 90.219359 56.5568 90.333533 56.717921 90.44443 C 56.879042 90.555154 57.042406 90.662774 57.208012 90.767117 C 57.373445 90.871288 57.540949 90.972181 57.710523 91.069798 C 57.880269 91.167242 58.05174 91.261237 58.225109 91.351783 C 58.398478 91.442329 58.573572 91.529425 58.750563 91.6129 C 58.927555 91.696374 59.106099 91.776227 59.286195 91.852457 C 59.466292 91.928688 59.647941 92.001297 59.83097 92.070112 C 60.014172 92.139099 60.198581 92.204292 60.384198 92.265691 C 60.569987 92.327089 60.756812 92.384866 60.944844 92.438676 C 61.132876 92.492658 61.321943 92.542674 61.512044 92.588895 C 61.702146 92.635117 61.893111 92.677544 62.084938 92.716004 C 62.276593 92.754637 62.46911 92.789131 62.662317 92.820002 C 62.855524 92.850702 63.049248 92.877434 63.24349 92.900372 C 63.437905 92.923311 63.632492 92.942282 63.827597 92.957287 C 64.022529 92.972291 64.217806 92.983329 64.413256 92.990401 C 64.608878 92.997644 64.804328 93.000749 64.99995 93.000059 C 72.999931 93.199949 75.629962 93.259968 83.589922 85.89007 C 86.730054 87.659935 87.83996 91.770018 92.039971 93.149933 L 102.039991 84.469969 " stroke="#000000" stroke-width="4" stroke-opacity="1" stroke-miterlimit="4"/><path stroke-linecap="round" transform="matrix(22.644097, 0, 0, 22.649143, -592.701121, -549.176329)" fill="none" stroke-linejoin="round" d="M 29.500046 99.500029 C 38.949942 106.429961 48.56993 112.630009 60.49995 115.209957 C 61.854125 115.513328 63.215889 115.777376 64.585417 116.002102 C 65.954772 116.226827 67.329475 116.412058 68.709526 116.557448 C 70.089749 116.703011 71.472732 116.808562 72.858993 116.874272 C 74.245081 116.939982 75.632032 116.96568 77.019673 116.951365 C 78.407314 116.93705 79.793402 116.882723 81.177938 116.788555 C 82.562474 116.694215 83.943214 116.560208 85.319987 116.38636 C 86.69676 116.212513 88.067323 115.998997 89.431848 115.746159 C 90.796373 115.493149 92.152445 115.201161 93.500065 114.870022 C 95.241344 114.430229 96.959507 113.913171 98.654381 113.319019 C 100.349256 112.724867 102.014287 112.056036 103.64913 111.312355 C 105.283972 110.568673 106.882243 109.753245 108.44377 108.86607 C 110.00547 107.978895 111.524216 107.023596 113.000007 105.999999 " stroke="#000000" stroke-width="4" stroke-opacity="1" stroke-miterlimit="4"/><path stroke-linecap="round" transform="matrix(22.644097, 0, 0, 22.649143, -592.701121, -549.176329)" fill="none" stroke-linejoin="round" d="M 72.999931 82.500041 C 80.689918 79.75004 82.920079 75.009933 81.500007 64.500084 C 73.230054 63.380078 67.410036 66.199928 65.999969 72.000023 C 64.800015 76.940021 67.120053 80.860044 72.500007 83.000025 " stroke="#000000" stroke-width="4" stroke-opacity="1" stroke-miterlimit="4"/><path stroke-linecap="round" transform="matrix(22.644097, 0, 0, 22.649143, -592.701121, -549.176329)" fill="none" stroke-linejoin="round" d="M 116.000065 115.000063 C 116.616948 114.265867 117.196914 113.503559 117.740136 112.713139 C 118.283186 111.922719 118.786732 111.107808 119.250774 110.268579 C 119.714989 109.42935 120.137284 108.56977 120.518006 107.689494 C 120.8989 106.809391 121.236149 105.912902 121.529928 105.00003 C 122.839941 100.389963 121.160074 97.509922 116.530004 98.139947 C 112.460063 98.679944 108.059944 98.789978 104.529947 101.489963 " stroke="#000000" stroke-width="4" stroke-opacity="1" stroke-miterlimit="4"/></svg>