<svg xmlns="http://www.w3.org/2000/svg" xmlns:xlink="http://www.w3.org/1999/xlink" width="3000" zoomAndPan="magnify" viewBox="0 0 2250 2250.000011" height="3000" preserveAspectRatio="xMidYMid meet" version="1.0"><defs><clipPath id="faef910ce8"><path d="M 232 22.917969 L 2022 22.917969 L 2022 2221 L 232 2221 Z M 232 22.917969 " clip-rule="nonzero"/></clipPath></defs><g clip-path="url(#faef910ce8)"><path fill="#000000" d="M 1726.960938 1190.003906 C 1730.109375 1522.59375 2018.78125 1633.246094 2021.996094 1634.644531 C 2019.550781 1642.472656 1975.855469 1792.410156 1869.867188 1947.238281 C 1778.277344 2081.097656 1683.195312 2214.539062 1533.371094 2217.265625 C 1386.203125 2219.992188 1338.871094 2130.03125 1170.589844 2130.03125 C 1002.378906 2130.03125 949.800781 2214.539062 810.5 2219.992188 C 665.917969 2225.445312 555.820312 2075.226562 463.441406 1941.855469 C 274.683594 1668.964844 130.429688 1170.851562 324.125 834.558594 C 420.347656 667.574219 592.304688 561.828125 778.953125 559.117188 C 920.929688 556.410156 1054.953125 654.613281 1141.714844 654.613281 C 1228.476562 654.613281 1391.308594 536.515625 1562.523438 553.859375 C 1634.1875 556.84375 1835.328125 582.804688 1964.527344 771.859375 C 1954.109375 778.289062 1724.515625 911.941406 1726.960938 1190.003906 M 1450.382812 373.355469 C 1527.148438 280.457031 1578.816406 151.132812 1564.691406 22.460938 C 1454.089844 26.90625 1320.273438 96.175781 1240.921875 189.019531 C 1169.820312 271.242188 1107.527344 402.839844 1124.308594 528.96875 C 1247.632812 538.507812 1373.617188 466.308594 1450.382812 373.355469 " fill-opacity="1" fill-rule="nonzero"/></g></svg>