<svg xmlns="http://www.w3.org/2000/svg" xmlns:xlink="http://www.w3.org/1999/xlink" width="3000" zoomAndPan="magnify" viewBox="0 0 2250 2250.000011" height="3000" preserveAspectRatio="xMidYMid meet" version="1.0"><defs><clipPath id="9d41715b6e"><path d="M 289.617188 1911 L 290 1911 L 290 1921 L 289.617188 1921 Z M 289.617188 1911 " clip-rule="nonzero"/></clipPath><clipPath id="f7215457b1"><path d="M 1960 1918 L 1960.621094 1918 L 1960.621094 1935 L 1960 1935 Z M 1960 1918 " clip-rule="nonzero"/></clipPath><clipPath id="5cc4daee57"><path d="M 289.617188 1141 L 1960.621094 1141 L 1960.621094 2223 L 289.617188 2223 Z M 289.617188 1141 " clip-rule="nonzero"/></clipPath></defs><path fill="#000000" d="M 1125.117188 1100.285156 C 1369.390625 1100.285156 1567.433594 859.828125 1567.433594 563.207031 C 1567.433594 266.578125 1502.414062 26.117188 1125.117188 26.117188 C 747.824219 26.117188 682.792969 266.578125 682.792969 563.207031 C 682.792969 859.828125 880.832031 1100.285156 1125.117188 1100.285156 Z M 1125.117188 1100.285156 " fill-opacity="1" fill-rule="nonzero"/><g clip-path="url(#9d41715b6e)"><path fill="#000000" d="M 289.671875 1920.347656 C 289.597656 1902.261719 289.519531 1915.253906 289.671875 1920.347656 Z M 289.671875 1920.347656 " fill-opacity="1" fill-rule="nonzero"/></g><g clip-path="url(#f7215457b1)"><path fill="#000000" d="M 1960.496094 1934.46875 C 1960.734375 1929.515625 1960.578125 1900.117188 1960.496094 1934.46875 Z M 1960.496094 1934.46875 " fill-opacity="1" fill-rule="nonzero"/></g><g clip-path="url(#5cc4daee57)"><path fill="#000000" d="M 1959.617188 1898.699219 C 1951.425781 1381.972656 1883.921875 1234.765625 1367.347656 1141.515625 C 1367.347656 1141.515625 1294.628906 1234.144531 1125.144531 1234.144531 C 955.65625 1234.144531 882.929688 1141.515625 882.929688 1141.515625 C 371.992188 1233.699219 300.378906 1378.753906 290.964844 1881.878906 C 290.191406 1922.964844 289.835938 1925.125 289.695312 1920.355469 C 289.726562 1929.289062 289.765625 1945.820312 289.765625 1974.640625 C 289.765625 1974.640625 412.75 2222.492188 1125.144531 2222.492188 C 1837.550781 2222.492188 1960.523438 1974.640625 1960.523438 1974.640625 C 1960.523438 1956.125 1960.535156 1943.246094 1960.554688 1934.488281 C 1960.414062 1937.4375 1960.140625 1931.71875 1959.617188 1898.667969 Z M 1959.617188 1898.699219 " fill-opacity="1" fill-rule="nonzero"/></g></svg>