<svg xmlns="http://www.w3.org/2000/svg" xmlns:xlink="http://www.w3.org/1999/xlink" width="3000" zoomAndPan="magnify" viewBox="0 0 2250 2250.000011" height="3000" preserveAspectRatio="xMidYMid meet" version="1.0"><defs><clipPath id="e52d3026cd"><path d="M 36.621094 287.4375 L 2213.652344 287.4375 L 2213.652344 1111 L 36.621094 1111 Z M 36.621094 287.4375 " clip-rule="nonzero"/></clipPath><clipPath id="d41dc48411"><path d="M 36.621094 652 L 2213.652344 652 L 2213.652344 1961.445312 L 36.621094 1961.445312 Z M 36.621094 652 " clip-rule="nonzero"/></clipPath></defs><g clip-path="url(#e52d3026cd)"><path fill="#000000" d="M 1125.136719 1110.546875 L 2213.457031 457.683594 L 2213.457031 454.839844 C 2213.457031 452.097656 2213.390625 449.359375 2213.257812 446.625 C 2213.121094 443.886719 2212.921875 441.15625 2212.652344 438.429688 C 2212.382812 435.703125 2212.046875 432.984375 2211.644531 430.277344 C 2211.242188 427.566406 2210.773438 424.867188 2210.242188 422.179688 C 2209.707031 419.492188 2209.105469 416.820312 2208.441406 414.164062 C 2207.773438 411.503906 2207.042969 408.867188 2206.246094 406.246094 C 2205.453125 403.621094 2204.59375 401.023438 2203.671875 398.441406 C 2202.746094 395.863281 2201.761719 393.308594 2200.710938 390.777344 C 2199.664062 388.246094 2198.554688 385.742188 2197.382812 383.265625 C 2196.210938 380.789062 2194.980469 378.34375 2193.6875 375.925781 C 2192.394531 373.511719 2191.046875 371.128906 2189.636719 368.777344 C 2188.226562 366.425781 2186.761719 364.113281 2185.238281 361.835938 C 2183.71875 359.558594 2182.140625 357.316406 2180.507812 355.117188 C 2178.875 352.917969 2177.191406 350.757812 2175.453125 348.640625 C 2173.714844 346.523438 2171.925781 344.449219 2170.085938 342.417969 C 2168.242188 340.390625 2166.355469 338.40625 2164.417969 336.46875 C 2162.480469 334.53125 2160.496094 332.640625 2158.464844 330.800781 C 2156.433594 328.960938 2154.359375 327.175781 2152.242188 325.4375 C 2150.125 323.699219 2147.964844 322.011719 2145.765625 320.378906 C 2143.5625 318.75 2141.324219 317.171875 2139.042969 315.648438 C 2136.765625 314.128906 2134.453125 312.664062 2132.101562 311.253906 C 2129.75 309.84375 2127.367188 308.496094 2124.953125 307.203125 C 2122.535156 305.914062 2120.089844 304.679688 2117.609375 303.511719 C 2115.132812 302.339844 2112.628906 301.230469 2110.097656 300.179688 C 2107.566406 299.132812 2105.011719 298.144531 2102.429688 297.222656 C 2099.851562 296.300781 2097.25 295.441406 2094.628906 294.644531 C 2092.003906 293.851562 2089.363281 293.121094 2086.707031 292.453125 C 2084.046875 291.789062 2081.375 291.1875 2078.6875 290.652344 C 2076 290.121094 2073.300781 289.652344 2070.589844 289.25 C 2067.878906 288.847656 2065.160156 288.511719 2062.433594 288.242188 C 2059.707031 287.976562 2056.976562 287.773438 2054.238281 287.640625 C 2051.503906 287.503906 2048.765625 287.4375 2046.023438 287.4375 L 204.25 287.4375 C 201.511719 287.4375 198.773438 287.503906 196.035156 287.640625 C 193.296875 287.773438 190.566406 287.976562 187.839844 288.242188 C 185.113281 288.511719 182.394531 288.847656 179.683594 289.25 C 176.972656 289.652344 174.273438 290.121094 171.585938 290.652344 C 168.898438 291.1875 166.226562 291.789062 163.566406 292.453125 C 160.910156 293.121094 158.269531 293.851562 155.648438 294.644531 C 153.023438 295.441406 150.421875 296.300781 147.84375 297.222656 C 145.261719 298.144531 142.707031 299.132812 140.175781 300.179688 C 137.644531 301.230469 135.140625 302.339844 132.664062 303.511719 C 130.1875 304.679688 127.738281 305.914062 125.324219 307.203125 C 122.90625 308.496094 120.523438 309.84375 118.171875 311.253906 C 115.820312 312.664062 113.507812 314.128906 111.230469 315.648438 C 108.949219 317.171875 106.710938 318.75 104.511719 320.382812 C 102.308594 322.011719 100.148438 323.699219 98.03125 325.4375 C 95.914062 327.175781 93.839844 328.960938 91.808594 330.800781 C 89.777344 332.640625 87.792969 334.53125 85.855469 336.46875 C 83.917969 338.40625 82.03125 340.390625 80.191406 342.417969 C 78.351562 344.449219 76.558594 346.523438 74.820312 348.640625 C 73.082031 350.757812 71.398438 352.917969 69.765625 355.117188 C 68.132812 357.320312 66.554688 359.558594 65.035156 361.835938 C 63.511719 364.113281 62.046875 366.425781 60.636719 368.777344 C 59.230469 371.128906 57.878906 373.511719 56.585938 375.925781 C 55.296875 378.34375 54.0625 380.789062 52.890625 383.265625 C 51.71875 385.742188 50.609375 388.246094 49.5625 390.777344 C 48.511719 393.308594 47.527344 395.863281 46.605469 398.441406 C 45.679688 401.023438 44.820312 403.621094 44.027344 406.246094 C 43.230469 408.867188 42.5 411.503906 41.835938 414.164062 C 41.167969 416.820312 40.566406 419.492188 40.035156 422.179688 C 39.5 424.867188 39.03125 427.566406 38.628906 430.277344 C 38.226562 432.984375 37.890625 435.703125 37.621094 438.429688 C 37.355469 441.15625 37.152344 443.886719 37.019531 446.625 C 36.882812 449.359375 36.816406 452.097656 36.816406 454.839844 L 36.816406 457.683594 Z M 1125.136719 1110.546875 " fill-opacity="1" fill-rule="nonzero"/></g><g clip-path="url(#d41dc48411)"><path fill="#000000" d="M 1168.25 1279.871094 C 1166.632812 1280.84375 1164.984375 1281.761719 1163.304688 1282.621094 C 1161.625 1283.480469 1159.914062 1284.285156 1158.179688 1285.03125 C 1156.445312 1285.773438 1154.6875 1286.460938 1152.90625 1287.085938 C 1151.125 1287.710938 1149.328125 1288.277344 1147.507812 1288.78125 C 1145.6875 1289.285156 1143.855469 1289.730469 1142.003906 1290.109375 C 1140.15625 1290.488281 1138.296875 1290.804688 1136.425781 1291.0625 C 1134.554688 1291.316406 1132.675781 1291.507812 1130.792969 1291.632812 C 1128.910156 1291.761719 1127.023438 1291.824219 1125.136719 1291.824219 C 1123.25 1291.824219 1121.363281 1291.761719 1119.480469 1291.632812 C 1117.597656 1291.507812 1115.71875 1291.316406 1113.847656 1291.0625 C 1111.976562 1290.804688 1110.117188 1290.488281 1108.269531 1290.109375 C 1106.417969 1289.730469 1104.585938 1289.285156 1102.765625 1288.78125 C 1100.949219 1288.277344 1099.148438 1287.710938 1097.367188 1287.085938 C 1095.585938 1286.460938 1093.828125 1285.773438 1092.09375 1285.03125 C 1090.359375 1284.285156 1088.652344 1283.480469 1086.96875 1282.621094 C 1085.289062 1281.761719 1083.640625 1280.84375 1082.023438 1279.871094 L 36.816406 652.875 L 36.816406 1794.042969 C 36.816406 1796.78125 36.882812 1799.519531 37.019531 1802.257812 C 37.152344 1804.992188 37.355469 1807.726562 37.621094 1810.453125 C 37.890625 1813.175781 38.226562 1815.894531 38.628906 1818.605469 C 39.03125 1821.316406 39.5 1824.015625 40.035156 1826.703125 C 40.566406 1829.386719 41.167969 1832.058594 41.835938 1834.71875 C 42.5 1837.375 43.230469 1840.015625 44.027344 1842.636719 C 44.820312 1845.257812 45.679688 1847.859375 46.605469 1850.4375 C 47.527344 1853.019531 48.511719 1855.574219 49.5625 1858.105469 C 50.609375 1860.636719 51.71875 1863.140625 52.890625 1865.617188 C 54.0625 1868.09375 55.296875 1870.539062 56.585938 1872.953125 C 57.878906 1875.371094 59.230469 1877.753906 60.636719 1880.105469 C 62.046875 1882.453125 63.511719 1884.765625 65.035156 1887.046875 C 66.554688 1889.324219 68.132812 1891.5625 69.765625 1893.761719 C 71.398438 1895.964844 73.082031 1898.121094 74.820312 1900.242188 C 76.558594 1902.359375 78.351562 1904.433594 80.191406 1906.460938 C 82.03125 1908.492188 83.917969 1910.476562 85.855469 1912.414062 C 87.792969 1914.351562 89.777344 1916.238281 91.808594 1918.078125 C 93.839844 1919.917969 95.914062 1921.707031 98.03125 1923.445312 C 100.148438 1925.183594 102.308594 1926.867188 104.511719 1928.5 C 106.710938 1930.132812 108.949219 1931.710938 111.230469 1933.230469 C 113.507812 1934.753906 115.820312 1936.21875 118.171875 1937.628906 C 120.523438 1939.035156 122.90625 1940.386719 125.324219 1941.675781 C 127.738281 1942.96875 130.1875 1944.199219 132.664062 1945.371094 C 135.140625 1946.542969 137.644531 1947.652344 140.175781 1948.699219 C 142.707031 1949.75 145.261719 1950.734375 147.84375 1951.65625 C 150.421875 1952.582031 153.023438 1953.441406 155.648438 1954.234375 C 158.269531 1955.03125 160.910156 1955.761719 163.566406 1956.425781 C 166.226562 1957.09375 168.898438 1957.691406 171.585938 1958.226562 C 174.273438 1958.761719 176.972656 1959.230469 179.683594 1959.632812 C 182.394531 1960.035156 185.113281 1960.367188 187.839844 1960.636719 C 190.566406 1960.90625 193.296875 1961.109375 196.035156 1961.242188 C 198.773438 1961.375 201.511719 1961.445312 204.25 1961.445312 L 2046.023438 1961.445312 C 2048.765625 1961.445312 2051.503906 1961.375 2054.238281 1961.242188 C 2056.976562 1961.109375 2059.707031 1960.90625 2062.433594 1960.636719 C 2065.160156 1960.367188 2067.878906 1960.035156 2070.589844 1959.632812 C 2073.300781 1959.230469 2076 1958.761719 2078.6875 1958.226562 C 2081.375 1957.691406 2084.046875 1957.09375 2086.707031 1956.425781 C 2089.363281 1955.761719 2092.003906 1955.03125 2094.628906 1954.234375 C 2097.25 1953.441406 2099.851562 1952.582031 2102.429688 1951.65625 C 2105.011719 1950.734375 2107.566406 1949.75 2110.097656 1948.699219 C 2112.628906 1947.652344 2115.132812 1946.542969 2117.609375 1945.371094 C 2120.089844 1944.199219 2122.535156 1942.96875 2124.953125 1941.675781 C 2127.367188 1940.386719 2129.75 1939.035156 2132.101562 1937.628906 C 2134.453125 1936.21875 2136.765625 1934.753906 2139.042969 1933.230469 C 2141.324219 1931.710938 2143.5625 1930.132812 2145.765625 1928.5 C 2147.964844 1926.867188 2150.125 1925.183594 2152.242188 1923.445312 C 2154.359375 1921.707031 2156.433594 1919.917969 2158.464844 1918.078125 C 2160.496094 1916.238281 2162.480469 1914.351562 2164.417969 1912.414062 C 2166.355469 1910.476562 2168.242188 1908.492188 2170.085938 1906.460938 C 2171.925781 1904.433594 2173.714844 1902.359375 2175.453125 1900.242188 C 2177.191406 1898.121094 2178.875 1895.964844 2180.507812 1893.761719 C 2182.140625 1891.5625 2183.71875 1889.324219 2185.238281 1887.046875 C 2186.761719 1884.765625 2188.226562 1882.453125 2189.636719 1880.105469 C 2191.046875 1877.753906 2192.394531 1875.371094 2193.6875 1872.953125 C 2194.980469 1870.539062 2196.210938 1868.09375 2197.382812 1865.617188 C 2198.554688 1863.140625 2199.664062 1860.636719 2200.710938 1858.105469 C 2201.761719 1855.574219 2202.746094 1853.019531 2203.671875 1850.4375 C 2204.59375 1847.859375 2205.453125 1845.257812 2206.246094 1842.636719 C 2207.042969 1840.015625 2207.773438 1837.375 2208.441406 1834.71875 C 2209.105469 1832.058594 2209.707031 1829.386719 2210.238281 1826.703125 C 2210.773438 1824.015625 2211.242188 1821.316406 2211.644531 1818.605469 C 2212.046875 1815.894531 2212.382812 1813.175781 2212.652344 1810.453125 C 2212.921875 1807.726562 2213.121094 1804.992188 2213.257812 1802.257812 C 2213.390625 1799.519531 2213.457031 1796.78125 2213.457031 1794.042969 L 2213.457031 652.875 Z M 1168.25 1279.871094 " fill-opacity="1" fill-rule="nonzero"/></g></svg>