<svg xmlns="http://www.w3.org/2000/svg" xmlns:xlink="http://www.w3.org/1999/xlink" width="3000" zoomAndPan="magnify" viewBox="0 0 2250 2250.000011" height="3000" preserveAspectRatio="xMidYMid meet" version="1.0"><path fill="#000000" d="M 1566.886719 974.1875 C 1830.929688 965.796875 1830.878906 582.90625 1566.886719 574.5625 C 1302.84375 582.957031 1302.894531 965.84375 1566.886719 974.1875 Z M 1566.886719 974.1875 " fill-opacity="1" fill-rule="nonzero"/><path fill="#000000" d="M 1298.449219 1262.367188 C 1466.433594 1335.199219 1577.726562 1511.480469 1566.886719 1703.652344 C 1566.886719 1703.652344 1887.472656 1428.859375 1887.472656 1428.859375 L 1887.472656 1283.996094 C 1831.828125 1156.167969 1707 1074.09375 1566.886719 1074.09375 C 1509.144531 1074.09375 1452.949219 1088.980469 1402.496094 1115.953125 C 1383.515625 1174.847656 1346.652344 1225.652344 1298.449219 1262.367188 Z M 1298.449219 1262.367188 " fill-opacity="1" fill-rule="nonzero"/><path fill="#000000" d="M 1636.519531 174.941406 C 1481.671875 174.941406 1336.0625 235.234375 1226.570312 344.730469 L 1117.324219 453.976562 L 1008.082031 344.730469 C 650.179688 -19.378906 14.949219 243.625 18.394531 754.742188 C 18.394531 971.890625 100.914062 1178.945312 247.222656 1335.996094 C 249.019531 1319.761719 243.578125 1269.308594 250.871094 1255.171875 C 295.976562 1143.777344 381.691406 1058.859375 486.789062 1012.800781 C 414.808594 957.953125 368.054688 871.632812 368.054688 774.375 C 379.992188 383.695312 943.746094 375.800781 967.023438 765.285156 C 1054.136719 711.484375 1180.5625 711.433594 1267.628906 765.285156 C 1290.757812 375.800781 1854.90625 383.84375 1866.59375 774.375 C 1866.59375 871.632812 1819.839844 957.953125 1747.8125 1012.75 C 1855.054688 1061.253906 1954.707031 1153.519531 1987.378906 1273.90625 C 1987.378906 1273.90625 1987.378906 1335.996094 1987.378906 1335.996094 C 2373.402344 931.628906 2272.699219 202.765625 1636.519531 174.941406 Z M 1636.519531 174.941406 " fill-opacity="1" fill-rule="nonzero"/><path fill="#000000" d="M 867.570312 774.375 C 859.175781 510.324219 476.300781 510.375 467.957031 774.375 C 476.351562 1038.425781 859.226562 1038.378906 867.570312 774.375 Z M 867.570312 774.375 " fill-opacity="1" fill-rule="nonzero"/><path fill="#000000" d="M 1117.324219 1323.859375 C 924.511719 1323.859375 767.664062 1480.710938 767.664062 1673.527344 L 767.664062 1789.269531 L 1084.808594 2061.113281 C 1103.539062 2077.148438 1131.113281 2077.148438 1149.84375 2061.113281 L 1466.984375 1789.269531 L 1466.984375 1673.527344 C 1466.984375 1480.710938 1310.085938 1323.859375 1117.324219 1323.859375 Z M 1117.324219 1323.859375 " fill-opacity="1" fill-rule="nonzero"/><path fill="#000000" d="M 347.175781 1283.945312 L 347.175781 1428.808594 L 667.761719 1703.652344 C 656.875 1511.480469 768.214844 1335.246094 936.203125 1262.367188 C 888 1225.601562 851.132812 1174.847656 832.101562 1115.902344 C 658.671875 1018.097656 422.652344 1099.871094 347.175781 1283.945312 Z M 347.175781 1283.945312 " fill-opacity="1" fill-rule="nonzero"/><path fill="#000000" d="M 1117.324219 824.328125 C 853.28125 832.71875 853.332031 1215.609375 1117.324219 1223.953125 C 1381.367188 1215.558594 1381.316406 832.671875 1117.324219 824.328125 Z M 1117.324219 824.328125 " fill-opacity="1" fill-rule="nonzero"/></svg>