<svg xmlns="http://www.w3.org/2000/svg" xmlns:xlink="http://www.w3.org/1999/xlink" width="3000" zoomAndPan="magnify" viewBox="0 0 2250 2250.000011" height="3000" preserveAspectRatio="xMidYMid meet" version="1.0"><defs><clipPath id="6db47fb5e1"><path d="M 30.796875 30.296875 L 2219.074219 30.296875 L 2219.074219 2218.574219 L 30.796875 2218.574219 Z M 30.796875 30.296875 " clip-rule="nonzero"/></clipPath></defs><g clip-path="url(#6db47fb5e1)"><path fill="#010101" d="M 1124.453125 227.59375 C 1416.449219 227.59375 1450.96875 228.554688 1566.519531 233.828125 C 1672.960938 238.625 1730.976562 256.363281 1769.8125 271.707031 C 1820.636719 291.363281 1857.078125 315.335938 1895.433594 353.695312 C 1933.792969 392.050781 1957.285156 428.492188 1977.421875 479.316406 C 1992.285156 517.671875 2010.027344 575.6875 2015.300781 682.609375 C 2020.574219 798.160156 2021.535156 832.679688 2021.535156 1124.675781 C 2021.535156 1416.667969 2020.574219 1451.191406 2015.300781 1566.742188 C 2010.503906 1673.183594 1992.765625 1731.195312 1977.421875 1770.035156 C 1957.765625 1820.855469 1933.792969 1857.296875 1895.433594 1895.652344 C 1857.078125 1934.011719 1820.636719 1957.503906 1769.8125 1977.640625 C 1731.457031 1992.503906 1673.441406 2010.246094 1566.519531 2015.519531 C 1450.96875 2020.792969 1416.449219 2021.753906 1124.453125 2021.753906 C 832.460938 2021.753906 797.9375 2020.792969 682.386719 2015.519531 C 575.945312 2010.726562 517.933594 1992.984375 479.09375 1977.640625 C 428.273438 1957.984375 391.832031 1934.011719 353.476562 1895.652344 C 315.117188 1857.296875 291.625 1820.855469 271.488281 1770.035156 C 256.625 1731.675781 238.882812 1673.660156 233.609375 1566.742188 C 228.335938 1451.191406 227.375 1416.667969 227.375 1124.675781 C 227.375 832.679688 228.335938 798.160156 233.609375 682.609375 C 238.402344 576.167969 256.144531 518.152344 271.488281 479.316406 C 291.144531 428.492188 315.117188 392.050781 353.476562 353.695312 C 391.832031 315.335938 428.273438 291.84375 479.09375 271.707031 C 517.453125 256.84375 575.46875 239.101562 682.386719 233.828125 C 797.9375 228.554688 832.460938 227.59375 1124.453125 227.59375 M 1124.453125 30.535156 C 827.1875 30.535156 790.269531 31.972656 673.277344 37.25 C 556.769531 42.523438 477.175781 61.222656 407.65625 88.070312 C 335.734375 115.878906 274.84375 153.277344 213.949219 214.171875 C 153.539062 275.0625 116.140625 335.953125 88.332031 407.875 C 61.480469 477.398438 42.78125 556.988281 37.507812 673.496094 C 32.234375 790.007812 30.796875 827.40625 30.796875 1124.195312 C 30.796875 1421.464844 32.234375 1458.382812 37.507812 1575.371094 C 42.78125 1691.882812 61.480469 1771.472656 88.332031 1840.996094 C 116.140625 1912.914062 153.539062 1973.804688 214.429688 2034.699219 C 275.324219 2095.589844 336.214844 2132.988281 408.132812 2160.796875 C 477.65625 2187.648438 557.246094 2206.347656 673.757812 2211.621094 C 790.269531 2216.894531 827.667969 2218.332031 1124.933594 2218.332031 C 1422.203125 2218.332031 1459.121094 2216.894531 1576.109375 2211.621094 C 1692.621094 2206.347656 1772.210938 2187.648438 1841.734375 2160.796875 C 1913.652344 2132.988281 1974.546875 2095.589844 2035.4375 2034.699219 C 2096.328125 1973.804688 2133.726562 1912.914062 2161.535156 1840.996094 C 2188.386719 1771.472656 2207.085938 1691.882812 2212.359375 1575.371094 C 2217.632812 1458.859375 2219.074219 1421.464844 2219.074219 1124.195312 C 2219.074219 826.925781 2217.632812 790.007812 2212.359375 673.019531 C 2207.085938 556.507812 2188.386719 476.917969 2161.535156 407.394531 C 2133.726562 335.476562 2096.328125 274.582031 2035.4375 213.691406 C 1974.546875 152.800781 1913.652344 115.402344 1841.734375 87.59375 C 1772.210938 60.742188 1692.621094 42.042969 1576.109375 36.769531 C 1459.121094 31.972656 1421.722656 30.535156 1124.453125 30.535156 " fill-opacity="1" fill-rule="nonzero"/></g><path fill="#010101" d="M 1124.453125 562.742188 C 814.242188 562.742188 563 813.980469 563 1124.195312 C 563 1434.410156 814.71875 1686.128906 1124.933594 1686.128906 C 1435.148438 1686.128906 1686.867188 1434.886719 1686.867188 1124.195312 C 1686.386719 813.980469 1434.667969 562.742188 1124.453125 562.742188 M 1124.453125 1489.066406 C 923.078125 1489.066406 760.0625 1326.050781 760.0625 1124.675781 C 760.0625 923.300781 923.078125 760.28125 1124.453125 760.28125 C 1325.828125 760.28125 1488.847656 923.300781 1488.847656 1124.675781 C 1489.328125 1325.570312 1325.828125 1489.066406 1124.453125 1489.066406 " fill-opacity="1" fill-rule="nonzero"/><path fill="#010101" d="M 1839.816406 540.6875 C 1839.816406 613.085938 1780.84375 672.058594 1708.441406 672.058594 C 1636.042969 672.058594 1577.070312 613.085938 1577.070312 540.6875 C 1577.070312 468.285156 1636.042969 409.3125 1708.441406 409.3125 C 1780.84375 409.3125 1839.816406 467.808594 1839.816406 540.6875 " fill-opacity="1" fill-rule="nonzero"/></svg>