<svg xmlns="http://www.w3.org/2000/svg" xmlns:xlink="http://www.w3.org/1999/xlink" width="3000" zoomAndPan="magnify" viewBox="0 0 2250 2250.000011" height="3000" preserveAspectRatio="xMidYMid meet" version="1.0"><defs><clipPath id="b33df144bb"><path d="M 24.824219 24.324219 L 2225.09375 24.324219 L 2225.09375 2224.59375 L 24.824219 2224.59375 Z M 24.824219 24.324219 " clip-rule="nonzero"/></clipPath></defs><g clip-path="url(#b33df144bb)"><path fill="#000000" d="M 24.824219 1770.882812 C 24.824219 2018.320312 228.347656 2224.59375 478.539062 2224.59375 L 1771.378906 2224.59375 C 2021.476562 2224.59375 2225.09375 2020.980469 2225.09375 1770.882812 L 2225.09375 478.128906 C 2225.09375 230.597656 2021.476562 24.324219 1771.378906 24.324219 L 478.539062 24.324219 C 231.097656 24.324219 24.824219 227.941406 24.824219 478.128906 Z M 634.113281 460.34375 L 1234.972656 460.34375 C 1526.601562 460.34375 1752.21875 611.613281 1752.21875 955.40625 C 1752.21875 1281.320312 1501.9375 1473.753906 1160.804688 1473.753906 L 1159.339844 1473.753906 L 1159.339844 1473.84375 L 1046.667969 1473.84375 L 1046.667969 1729.535156 C 1046.667969 1762.628906 1019.070312 1788.757812 987.441406 1788.757812 L 634.113281 1788.757812 Z M 634.113281 460.34375 " fill-opacity="1" fill-rule="nonzero"/></g></svg>