<svg xmlns="http://www.w3.org/2000/svg" xmlns:xlink="http://www.w3.org/1999/xlink" width="3000" zoomAndPan="magnify" viewBox="0 0 2250 2250.000011" height="3000" preserveAspectRatio="xMidYMid meet" version="1.0"><defs><clipPath id="c895bce241"><path d="M 1125 530.296875 L 2222.9375 530.296875 L 2222.9375 1718.519531 L 1125 1718.519531 Z M 1125 530.296875 " clip-rule="nonzero"/></clipPath><clipPath id="1cfaa383d7"><path d="M 302 895 L 394 895 L 394 1718.519531 L 302 1718.519531 Z M 302 895 " clip-rule="nonzero"/></clipPath><clipPath id="1720fab003"><path d="M 576 987 L 668 987 L 668 1718.519531 L 576 1718.519531 Z M 576 987 " clip-rule="nonzero"/></clipPath><clipPath id="fd57ae56cc"><path d="M 850 621 L 943 621 L 943 1718.519531 L 850 1718.519531 Z M 850 621 " clip-rule="nonzero"/></clipPath></defs><g clip-path="url(#c895bce241)"><path fill="#000000" d="M 1902.117188 1078.707031 C 1890.285156 1078.707031 1878.492188 1079.371094 1866.734375 1080.691406 C 1854.976562 1082.015625 1843.332031 1083.992188 1831.792969 1086.621094 C 1820.257812 1089.253906 1808.90625 1092.519531 1797.738281 1096.421875 C 1786.566406 1100.324219 1775.652344 1104.839844 1764.988281 1109.964844 C 1764.746094 1100.398438 1764.269531 1090.84375 1763.566406 1081.296875 C 1762.859375 1071.75 1761.925781 1062.230469 1760.757812 1052.726562 C 1759.59375 1043.226562 1758.199219 1033.761719 1756.578125 1024.328125 C 1754.953125 1014.894531 1753.105469 1005.507812 1751.03125 996.164062 C 1748.953125 986.820312 1746.652344 977.53125 1744.128906 968.300781 C 1741.605469 959.066406 1738.859375 949.902344 1735.894531 940.800781 C 1732.925781 931.703125 1729.742188 922.679688 1726.339844 913.730469 C 1722.9375 904.785156 1719.320312 895.925781 1715.492188 887.152344 C 1711.660156 878.382812 1707.621094 869.707031 1703.375 861.132812 C 1699.125 852.554688 1694.671875 844.085938 1690.015625 835.722656 C 1685.355469 827.359375 1680.5 819.117188 1675.441406 810.988281 C 1670.386719 802.859375 1665.136719 794.859375 1659.695312 786.984375 C 1654.253906 779.109375 1648.625 771.371094 1642.808594 763.769531 C 1636.992188 756.167969 1631 748.710938 1624.820312 741.394531 C 1618.648438 734.082031 1612.296875 726.921875 1605.777344 719.914062 C 1599.253906 712.910156 1592.566406 706.0625 1585.714844 699.378906 C 1578.863281 692.695312 1571.855469 686.179688 1564.6875 679.835938 C 1557.523438 673.488281 1550.207031 667.320312 1542.742188 661.328125 C 1535.277344 655.332031 1527.671875 649.523438 1519.929688 643.898438 C 1512.183594 638.273438 1504.308594 632.835938 1496.300781 627.589844 C 1488.292969 622.34375 1480.164062 617.296875 1471.910156 612.441406 C 1463.660156 607.589844 1455.296875 602.9375 1446.820312 598.488281 C 1438.347656 594.039062 1429.769531 589.796875 1421.085938 585.761719 C 1412.40625 581.722656 1403.632812 577.902344 1394.769531 574.289062 C 1385.902344 570.675781 1376.957031 567.28125 1367.925781 564.097656 C 1358.898438 560.917969 1349.796875 557.957031 1340.625 555.214844 C 1331.453125 552.476562 1322.21875 549.957031 1312.925781 547.660156 C 1303.632812 545.363281 1294.289062 543.292969 1284.894531 541.449219 C 1275.5 539.605469 1266.070312 537.988281 1256.597656 536.597656 C 1247.125 535.210938 1237.625 534.050781 1228.097656 533.117188 C 1218.570312 532.1875 1209.027344 531.484375 1199.464844 531.015625 C 1189.902344 530.546875 1180.335938 530.304688 1170.761719 530.296875 C 1169.265625 530.296875 1167.773438 530.371094 1166.28125 530.515625 C 1164.792969 530.664062 1163.3125 530.882812 1161.84375 531.175781 C 1160.375 531.46875 1158.925781 531.832031 1157.492188 532.265625 C 1156.0625 532.699219 1154.652344 533.203125 1153.269531 533.777344 C 1151.886719 534.347656 1150.535156 534.988281 1149.214844 535.695312 C 1147.894531 536.398438 1146.613281 537.167969 1145.367188 538 C 1144.121094 538.832031 1142.921875 539.722656 1141.765625 540.671875 C 1140.605469 541.621094 1139.5 542.625 1138.441406 543.683594 C 1137.382812 544.742188 1136.378906 545.847656 1135.429688 547.003906 C 1134.476562 548.164062 1133.585938 549.363281 1132.753906 550.609375 C 1131.925781 551.851562 1131.15625 553.136719 1130.449219 554.453125 C 1129.742188 555.773438 1129.105469 557.125 1128.53125 558.507812 C 1127.957031 559.890625 1127.457031 561.300781 1127.019531 562.730469 C 1126.585938 564.164062 1126.222656 565.613281 1125.929688 567.082031 C 1125.636719 568.550781 1125.417969 570.027344 1125.273438 571.519531 C 1125.125 573.007812 1125.050781 574.5 1125.050781 575.996094 L 1125.050781 1672.816406 C 1125.050781 1674.316406 1125.125 1675.808594 1125.273438 1677.296875 C 1125.417969 1678.789062 1125.636719 1680.265625 1125.929688 1681.734375 C 1126.222656 1683.203125 1126.585938 1684.652344 1127.019531 1686.085938 C 1127.453125 1687.515625 1127.957031 1688.925781 1128.53125 1690.308594 C 1129.105469 1691.691406 1129.742188 1693.042969 1130.449219 1694.359375 C 1131.15625 1695.679688 1131.925781 1696.964844 1132.753906 1698.207031 C 1133.585938 1699.453125 1134.476562 1700.652344 1135.425781 1701.808594 C 1136.378906 1702.96875 1137.382812 1704.074219 1138.441406 1705.132812 C 1139.5 1706.191406 1140.605469 1707.195312 1141.765625 1708.144531 C 1142.921875 1709.09375 1144.121094 1709.984375 1145.367188 1710.816406 C 1146.613281 1711.648438 1147.894531 1712.417969 1149.214844 1713.121094 C 1150.535156 1713.828125 1151.886719 1714.46875 1153.269531 1715.039062 C 1154.652344 1715.613281 1156.058594 1716.117188 1157.492188 1716.550781 C 1158.925781 1716.984375 1160.375 1717.347656 1161.84375 1717.640625 C 1163.3125 1717.933594 1164.792969 1718.152344 1166.28125 1718.300781 C 1167.773438 1718.445312 1169.265625 1718.519531 1170.761719 1718.519531 L 1902.117188 1718.519531 C 1907.355469 1718.519531 1912.589844 1718.390625 1917.820312 1718.132812 C 1923.050781 1717.875 1928.269531 1717.492188 1933.480469 1716.980469 C 1938.691406 1716.464844 1943.886719 1715.824219 1949.066406 1715.054688 C 1954.246094 1714.289062 1959.40625 1713.394531 1964.542969 1712.371094 C 1969.675781 1711.351562 1974.785156 1710.203125 1979.863281 1708.929688 C 1984.945312 1707.660156 1989.988281 1706.265625 1995 1704.742188 C 2000.011719 1703.222656 2004.980469 1701.582031 2009.914062 1699.820312 C 2014.84375 1698.054688 2019.726562 1696.171875 2024.566406 1694.167969 C 2029.402344 1692.164062 2034.1875 1690.042969 2038.921875 1687.804688 C 2043.65625 1685.566406 2048.332031 1683.214844 2052.949219 1680.746094 C 2057.570312 1678.277344 2062.125 1675.695312 2066.613281 1673.003906 C 2071.105469 1670.3125 2075.527344 1667.515625 2079.882812 1664.605469 C 2084.238281 1661.695312 2088.515625 1658.683594 2092.722656 1655.5625 C 2096.929688 1652.445312 2101.058594 1649.226562 2105.105469 1645.902344 C 2109.152344 1642.582031 2113.117188 1639.164062 2116.996094 1635.648438 C 2120.875 1632.132812 2124.667969 1628.523438 2128.371094 1624.820312 C 2132.074219 1621.117188 2135.683594 1617.328125 2139.199219 1613.449219 C 2142.714844 1609.570312 2146.136719 1605.605469 2149.457031 1601.558594 C 2152.78125 1597.511719 2156 1593.386719 2159.121094 1589.179688 C 2162.238281 1584.976562 2165.253906 1580.695312 2168.164062 1576.34375 C 2171.070312 1571.992188 2173.871094 1567.566406 2176.566406 1563.078125 C 2179.257812 1558.585938 2181.835938 1554.035156 2184.304688 1549.414062 C 2186.773438 1544.796875 2189.128906 1540.125 2191.367188 1535.390625 C 2193.605469 1530.65625 2195.726562 1525.871094 2197.730469 1521.035156 C 2199.734375 1516.199219 2201.617188 1511.316406 2203.382812 1506.386719 C 2205.148438 1501.457031 2206.789062 1496.488281 2208.308594 1491.476562 C 2209.828125 1486.464844 2211.226562 1481.421875 2212.496094 1476.34375 C 2213.769531 1471.265625 2214.917969 1466.160156 2215.9375 1461.023438 C 2216.960938 1455.886719 2217.855469 1450.730469 2218.625 1445.554688 C 2219.390625 1440.375 2220.03125 1435.179688 2220.546875 1429.96875 C 2221.058594 1424.757812 2221.445312 1419.539062 2221.703125 1414.308594 C 2221.957031 1409.082031 2222.085938 1403.847656 2222.085938 1398.613281 C 2222.085938 1393.378906 2221.957031 1388.144531 2221.703125 1382.917969 C 2221.445312 1377.6875 2221.058594 1372.46875 2220.546875 1367.257812 C 2220.03125 1362.046875 2219.390625 1356.851562 2218.625 1351.671875 C 2217.855469 1346.496094 2216.960938 1341.335938 2215.9375 1336.203125 C 2214.917969 1331.066406 2213.769531 1325.960938 2212.496094 1320.882812 C 2211.226562 1315.804688 2209.828125 1310.757812 2208.308594 1305.75 C 2206.789062 1300.738281 2205.148438 1295.769531 2203.382812 1290.839844 C 2201.617188 1285.910156 2199.734375 1281.027344 2197.730469 1276.191406 C 2195.726562 1271.351562 2193.605469 1266.570312 2191.367188 1261.835938 C 2189.128906 1257.101562 2186.773438 1252.425781 2184.304688 1247.808594 C 2181.835938 1243.191406 2179.257812 1238.640625 2176.566406 1234.148438 C 2173.871094 1229.65625 2171.070312 1225.234375 2168.164062 1220.882812 C 2165.253906 1216.53125 2162.238281 1212.25 2159.121094 1208.046875 C 2156 1203.839844 2152.78125 1199.714844 2149.457031 1195.667969 C 2146.136719 1191.621094 2142.714844 1187.65625 2139.199219 1183.777344 C 2135.683594 1179.898438 2132.074219 1176.109375 2128.371094 1172.40625 C 2124.667969 1168.703125 2120.875 1165.09375 2116.996094 1161.578125 C 2113.117188 1158.0625 2109.152344 1154.644531 2105.105469 1151.324219 C 2101.054688 1148 2096.929688 1144.78125 2092.722656 1141.664062 C 2088.515625 1138.542969 2084.238281 1135.53125 2079.882812 1132.621094 C 2075.527344 1129.710938 2071.105469 1126.914062 2066.613281 1124.222656 C 2062.125 1121.527344 2057.570312 1118.949219 2052.949219 1116.480469 C 2048.332031 1114.011719 2043.65625 1111.660156 2038.921875 1109.421875 C 2034.1875 1107.183594 2029.402344 1105.0625 2024.566406 1103.058594 C 2019.726562 1101.054688 2014.84375 1099.171875 2009.914062 1097.40625 C 2004.980469 1095.644531 2000.011719 1094.003906 1995 1092.480469 C 1989.988281 1090.960938 1984.945312 1089.566406 1979.863281 1088.292969 C 1974.785156 1087.023438 1969.675781 1085.875 1964.542969 1084.855469 C 1959.40625 1083.832031 1954.246094 1082.9375 1949.066406 1082.167969 C 1943.886719 1081.402344 1938.691406 1080.761719 1933.480469 1080.246094 C 1928.269531 1079.734375 1923.050781 1079.347656 1917.820312 1079.09375 C 1912.589844 1078.835938 1907.355469 1078.707031 1902.117188 1078.707031 Z M 1902.117188 1078.707031 " fill-opacity="1" fill-rule="nonzero"/></g><path fill="#000000" d="M 73.726562 1170.109375 C 72.230469 1170.109375 70.738281 1170.183594 69.246094 1170.328125 C 67.757812 1170.476562 66.277344 1170.695312 64.808594 1170.988281 C 63.339844 1171.277344 61.890625 1171.640625 60.457031 1172.078125 C 59.027344 1172.511719 57.617188 1173.015625 56.234375 1173.585938 C 54.851562 1174.160156 53.5 1174.800781 52.179688 1175.503906 C 50.859375 1176.210938 49.578125 1176.980469 48.332031 1177.8125 C 47.085938 1178.640625 45.886719 1179.53125 44.730469 1180.484375 C 43.570312 1181.433594 42.464844 1182.4375 41.40625 1183.496094 C 40.347656 1184.554688 39.34375 1185.660156 38.394531 1186.816406 C 37.441406 1187.972656 36.550781 1189.175781 35.71875 1190.417969 C 34.890625 1191.664062 34.121094 1192.945312 33.414062 1194.265625 C 32.707031 1195.585938 32.070312 1196.9375 31.496094 1198.320312 C 30.921875 1199.703125 30.421875 1201.113281 29.984375 1202.542969 C 29.550781 1203.976562 29.1875 1205.425781 28.894531 1206.894531 C 28.601562 1208.363281 28.382812 1209.839844 28.238281 1211.332031 C 28.089844 1212.820312 28.015625 1214.3125 28.015625 1215.808594 L 28.015625 1581.417969 C 28.015625 1582.914062 28.089844 1584.40625 28.238281 1585.894531 C 28.382812 1587.386719 28.601562 1588.863281 28.894531 1590.332031 C 29.1875 1591.800781 29.550781 1593.25 29.984375 1594.683594 C 30.421875 1596.113281 30.921875 1597.523438 31.496094 1598.90625 C 32.070312 1600.289062 32.707031 1601.640625 33.414062 1602.960938 C 34.121094 1604.28125 34.890625 1605.5625 35.71875 1606.804688 C 36.550781 1608.050781 37.441406 1609.25 38.394531 1610.410156 C 39.34375 1611.566406 40.347656 1612.671875 41.40625 1613.730469 C 42.464844 1614.789062 43.570312 1615.792969 44.730469 1616.742188 C 45.886719 1617.691406 47.085938 1618.582031 48.332031 1619.414062 C 49.578125 1620.246094 50.859375 1621.015625 52.179688 1621.722656 C 53.5 1622.425781 54.851562 1623.066406 56.234375 1623.636719 C 57.617188 1624.210938 59.027344 1624.714844 60.457031 1625.148438 C 61.890625 1625.582031 63.339844 1625.945312 64.808594 1626.238281 C 66.277344 1626.53125 67.757812 1626.75 69.246094 1626.898438 C 70.738281 1627.042969 72.230469 1627.117188 73.726562 1627.117188 C 75.222656 1627.117188 76.71875 1627.042969 78.207031 1626.898438 C 79.695312 1626.75 81.175781 1626.53125 82.644531 1626.238281 C 84.113281 1625.945312 85.5625 1625.582031 86.996094 1625.148438 C 88.429688 1624.714844 89.835938 1624.210938 91.21875 1623.636719 C 92.601562 1623.066406 93.953125 1622.425781 95.273438 1621.722656 C 96.59375 1621.015625 97.878906 1620.246094 99.121094 1619.414062 C 100.367188 1618.582031 101.566406 1617.691406 102.726562 1616.742188 C 103.882812 1615.792969 104.988281 1614.789062 106.046875 1613.730469 C 107.105469 1612.671875 108.113281 1611.566406 109.0625 1610.410156 C 110.011719 1609.25 110.902344 1608.050781 111.734375 1606.804688 C 112.566406 1605.5625 113.332031 1604.28125 114.039062 1602.960938 C 114.746094 1601.640625 115.382812 1600.289062 115.957031 1598.90625 C 116.53125 1597.523438 117.035156 1596.113281 117.46875 1594.683594 C 117.902344 1593.25 118.265625 1591.800781 118.558594 1590.332031 C 118.851562 1588.863281 119.070312 1587.386719 119.214844 1585.894531 C 119.363281 1584.40625 119.4375 1582.914062 119.4375 1581.417969 L 119.4375 1215.808594 C 119.4375 1214.3125 119.363281 1212.820312 119.214844 1211.332031 C 119.070312 1209.839844 118.851562 1208.363281 118.558594 1206.894531 C 118.265625 1205.425781 117.902344 1203.976562 117.46875 1202.542969 C 117.035156 1201.109375 116.53125 1199.703125 115.957031 1198.320312 C 115.382812 1196.9375 114.746094 1195.585938 114.039062 1194.265625 C 113.332031 1192.945312 112.566406 1191.664062 111.734375 1190.417969 C 110.902344 1189.175781 110.011719 1187.972656 109.0625 1186.816406 C 108.113281 1185.660156 107.105469 1184.554688 106.046875 1183.496094 C 104.988281 1182.4375 103.882812 1181.433594 102.726562 1180.484375 C 101.566406 1179.53125 100.367188 1178.640625 99.121094 1177.8125 C 97.878906 1176.980469 96.59375 1176.210938 95.273438 1175.503906 C 93.953125 1174.800781 92.601562 1174.160156 91.21875 1173.585938 C 89.835938 1173.015625 88.429688 1172.511719 86.996094 1172.078125 C 85.5625 1171.640625 84.113281 1171.277344 82.644531 1170.988281 C 81.175781 1170.695312 79.695312 1170.476562 78.207031 1170.328125 C 76.71875 1170.183594 75.222656 1170.109375 73.726562 1170.109375 Z M 73.726562 1170.109375 " fill-opacity="1" fill-rule="nonzero"/><g clip-path="url(#1cfaa383d7)"><path fill="#000000" d="M 347.984375 895.902344 C 346.488281 895.902344 344.996094 895.976562 343.503906 896.125 C 342.015625 896.269531 340.535156 896.488281 339.066406 896.78125 C 337.601562 897.074219 336.148438 897.4375 334.71875 897.871094 C 333.285156 898.304688 331.875 898.808594 330.492188 899.382812 C 329.109375 899.957031 327.757812 900.59375 326.4375 901.300781 C 325.117188 902.003906 323.835938 902.773438 322.589844 903.605469 C 321.347656 904.4375 320.144531 905.328125 318.988281 906.277344 C 317.832031 907.226562 316.722656 908.230469 315.664062 909.289062 C 314.605469 910.347656 313.601562 911.457031 312.652344 912.613281 C 311.703125 913.769531 310.8125 914.96875 309.980469 916.214844 C 309.148438 917.460938 308.378906 918.742188 307.671875 920.0625 C 306.96875 921.382812 306.328125 922.734375 305.753906 924.117188 C 305.183594 925.5 304.679688 926.90625 304.246094 928.339844 C 303.808594 929.769531 303.445312 931.222656 303.152344 932.6875 C 302.863281 934.15625 302.644531 935.636719 302.496094 937.125 C 302.347656 938.613281 302.277344 940.109375 302.277344 941.605469 L 302.277344 1672.816406 C 302.277344 1674.316406 302.347656 1675.808594 302.496094 1677.296875 C 302.644531 1678.789062 302.863281 1680.265625 303.152344 1681.734375 C 303.445312 1683.203125 303.808594 1684.652344 304.246094 1686.085938 C 304.679688 1687.515625 305.183594 1688.925781 305.753906 1690.308594 C 306.328125 1691.691406 306.96875 1693.042969 307.671875 1694.359375 C 308.378906 1695.679688 309.148438 1696.964844 309.980469 1698.207031 C 310.8125 1699.453125 311.703125 1700.652344 312.652344 1701.808594 C 313.601562 1702.96875 314.605469 1704.074219 315.664062 1705.132812 C 316.722656 1706.191406 317.832031 1707.195312 318.988281 1708.144531 C 320.144531 1709.09375 321.347656 1709.984375 322.589844 1710.816406 C 323.835938 1711.648438 325.117188 1712.417969 326.4375 1713.121094 C 327.757812 1713.828125 329.109375 1714.46875 330.492188 1715.039062 C 331.875 1715.613281 333.285156 1716.117188 334.71875 1716.550781 C 336.148438 1716.984375 337.601562 1717.347656 339.066406 1717.640625 C 340.535156 1717.933594 342.015625 1718.152344 343.503906 1718.300781 C 344.996094 1718.445312 346.488281 1718.519531 347.984375 1718.519531 C 349.484375 1718.519531 350.976562 1718.445312 352.464844 1718.300781 C 353.957031 1718.152344 355.433594 1717.933594 356.902344 1717.640625 C 358.371094 1717.347656 359.820312 1716.984375 361.253906 1716.550781 C 362.6875 1716.117188 364.09375 1715.613281 365.476562 1715.039062 C 366.859375 1714.46875 368.214844 1713.828125 369.53125 1713.121094 C 370.851562 1712.417969 372.136719 1711.648438 373.378906 1710.816406 C 374.625 1709.984375 375.828125 1709.09375 376.984375 1708.144531 C 378.140625 1707.195312 379.25 1706.191406 380.308594 1705.132812 C 381.367188 1704.074219 382.371094 1702.96875 383.320312 1701.808594 C 384.269531 1700.652344 385.160156 1699.453125 385.992188 1698.207031 C 386.824219 1696.964844 387.59375 1695.679688 388.296875 1694.359375 C 389.003906 1693.042969 389.644531 1691.691406 390.214844 1690.308594 C 390.789062 1688.925781 391.292969 1687.515625 391.726562 1686.085938 C 392.160156 1684.652344 392.523438 1683.203125 392.816406 1681.734375 C 393.109375 1680.265625 393.328125 1678.789062 393.476562 1677.296875 C 393.621094 1675.808594 393.695312 1674.316406 393.695312 1672.816406 L 393.695312 941.605469 C 393.695312 940.109375 393.621094 938.613281 393.476562 937.125 C 393.328125 935.636719 393.109375 934.15625 392.816406 932.6875 C 392.523438 931.222656 392.160156 929.769531 391.726562 928.339844 C 391.292969 926.90625 390.789062 925.5 390.214844 924.117188 C 389.644531 922.734375 389.003906 921.382812 388.296875 920.0625 C 387.59375 918.742188 386.824219 917.460938 385.992188 916.214844 C 385.160156 914.96875 384.269531 913.769531 383.320312 912.613281 C 382.371094 911.457031 381.367188 910.347656 380.308594 909.289062 C 379.25 908.230469 378.140625 907.226562 376.984375 906.277344 C 375.828125 905.328125 374.625 904.4375 373.378906 903.605469 C 372.136719 902.773438 370.851562 902.003906 369.53125 901.300781 C 368.214844 900.59375 366.859375 899.957031 365.476562 899.382812 C 364.09375 898.808594 362.6875 898.304688 361.253906 897.871094 C 359.820312 897.4375 358.371094 897.074219 356.902344 896.78125 C 355.433594 896.488281 353.957031 896.269531 352.464844 896.125 C 350.976562 895.976562 349.484375 895.902344 347.984375 895.902344 Z M 347.984375 895.902344 " fill-opacity="1" fill-rule="nonzero"/></g><g clip-path="url(#1720fab003)"><path fill="#000000" d="M 622.246094 987.304688 C 620.746094 987.304688 619.253906 987.378906 617.765625 987.527344 C 616.273438 987.671875 614.796875 987.890625 613.328125 988.183594 C 611.859375 988.476562 610.410156 988.839844 608.976562 989.273438 C 607.542969 989.707031 606.136719 990.210938 604.753906 990.785156 C 603.367188 991.355469 602.015625 991.996094 600.695312 992.703125 C 599.375 993.40625 598.09375 994.175781 596.847656 995.007812 C 595.605469 995.839844 594.402344 996.730469 593.246094 997.679688 C 592.089844 998.628906 590.980469 999.632812 589.921875 1000.691406 C 588.863281 1001.75 587.859375 1002.855469 586.910156 1004.015625 C 585.960938 1005.171875 585.070312 1006.371094 584.238281 1007.617188 C 583.40625 1008.859375 582.636719 1010.144531 581.933594 1011.464844 C 581.226562 1012.785156 580.585938 1014.136719 580.015625 1015.519531 C 579.441406 1016.902344 578.9375 1018.308594 578.503906 1019.742188 C 578.070312 1021.171875 577.707031 1022.621094 577.414062 1024.089844 C 577.121094 1025.558594 576.902344 1027.039062 576.753906 1028.527344 C 576.609375 1030.015625 576.535156 1031.507812 576.535156 1033.007812 L 576.535156 1672.816406 C 576.535156 1674.316406 576.609375 1675.808594 576.753906 1677.296875 C 576.902344 1678.789062 577.121094 1680.265625 577.414062 1681.734375 C 577.703125 1683.203125 578.066406 1684.652344 578.503906 1686.085938 C 578.9375 1687.515625 579.441406 1688.925781 580.015625 1690.308594 C 580.585938 1691.691406 581.226562 1693.042969 581.933594 1694.359375 C 582.636719 1695.679688 583.40625 1696.964844 584.238281 1698.207031 C 585.070312 1699.453125 585.960938 1700.652344 586.910156 1701.808594 C 587.859375 1702.96875 588.863281 1704.074219 589.921875 1705.132812 C 590.980469 1706.191406 592.089844 1707.195312 593.246094 1708.144531 C 594.402344 1709.09375 595.605469 1709.984375 596.847656 1710.816406 C 598.09375 1711.648438 599.375 1712.417969 600.695312 1713.121094 C 602.015625 1713.828125 603.367188 1714.46875 604.753906 1715.039062 C 606.136719 1715.613281 607.542969 1716.117188 608.976562 1716.550781 C 610.40625 1716.984375 611.859375 1717.347656 613.328125 1717.640625 C 614.796875 1717.933594 616.273438 1718.152344 617.765625 1718.300781 C 619.253906 1718.445312 620.746094 1718.519531 622.246094 1718.519531 C 623.742188 1718.519531 625.234375 1718.445312 626.726562 1718.300781 C 628.214844 1718.152344 629.695312 1717.933594 631.160156 1717.640625 C 632.628906 1717.347656 634.082031 1716.984375 635.511719 1716.550781 C 636.945312 1716.117188 638.355469 1715.613281 639.738281 1715.039062 C 641.121094 1714.46875 642.472656 1713.828125 643.792969 1713.121094 C 645.113281 1712.417969 646.394531 1711.648438 647.640625 1710.816406 C 648.882812 1709.984375 650.085938 1709.09375 651.242188 1708.144531 C 652.398438 1707.195312 653.507812 1706.191406 654.566406 1705.132812 C 655.625 1704.074219 656.628906 1702.96875 657.578125 1701.808594 C 658.527344 1700.652344 659.417969 1699.453125 660.25 1698.207031 C 661.082031 1696.964844 661.851562 1695.679688 662.558594 1694.359375 C 663.261719 1693.042969 663.902344 1691.691406 664.476562 1690.308594 C 665.046875 1688.925781 665.550781 1687.515625 665.984375 1686.085938 C 666.421875 1684.652344 666.785156 1683.203125 667.074219 1681.734375 C 667.367188 1680.265625 667.585938 1678.789062 667.734375 1677.296875 C 667.882812 1675.808594 667.953125 1674.316406 667.953125 1672.816406 L 667.953125 1033.007812 C 667.953125 1031.507812 667.882812 1030.015625 667.734375 1028.527344 C 667.585938 1027.039062 667.367188 1025.558594 667.074219 1024.089844 C 666.785156 1022.621094 666.421875 1021.171875 665.984375 1019.738281 C 665.550781 1018.308594 665.046875 1016.898438 664.476562 1015.515625 C 663.902344 1014.132812 663.261719 1012.78125 662.558594 1011.464844 C 661.851562 1010.144531 661.082031 1008.859375 660.25 1007.617188 C 659.417969 1006.371094 658.527344 1005.171875 657.578125 1004.015625 C 656.628906 1002.855469 655.625 1001.75 654.566406 1000.691406 C 653.507812 999.632812 652.398438 998.628906 651.242188 997.679688 C 650.085938 996.730469 648.882812 995.839844 647.640625 995.007812 C 646.394531 994.175781 645.113281 993.40625 643.792969 992.703125 C 642.472656 991.996094 641.121094 991.355469 639.738281 990.785156 C 638.355469 990.210938 636.945312 989.707031 635.511719 989.273438 C 634.082031 988.839844 632.628906 988.476562 631.160156 988.183594 C 629.695312 987.890625 628.214844 987.671875 626.726562 987.527344 C 625.234375 987.378906 623.742188 987.304688 622.246094 987.304688 Z M 622.246094 987.304688 " fill-opacity="1" fill-rule="nonzero"/></g><g clip-path="url(#fd57ae56cc)"><path fill="#000000" d="M 896.503906 621.699219 C 895.007812 621.699219 893.511719 621.773438 892.023438 621.917969 C 890.53125 622.066406 889.054688 622.285156 887.585938 622.578125 C 886.117188 622.867188 884.667969 623.230469 883.234375 623.667969 C 881.800781 624.101562 880.394531 624.605469 879.011719 625.175781 C 877.628906 625.75 876.277344 626.390625 874.957031 627.09375 C 873.636719 627.800781 872.351562 628.570312 871.109375 629.402344 C 869.863281 630.230469 868.664062 631.121094 867.503906 632.074219 C 866.347656 633.023438 865.238281 634.027344 864.179688 635.085938 C 863.121094 636.144531 862.117188 637.25 861.167969 638.40625 C 860.21875 639.5625 859.328125 640.765625 858.496094 642.007812 C 857.664062 643.253906 856.898438 644.535156 856.191406 645.855469 C 855.484375 647.175781 854.847656 648.527344 854.273438 649.910156 C 853.699219 651.292969 853.195312 652.699219 852.761719 654.132812 C 852.328125 655.566406 851.964844 657.015625 851.671875 658.484375 C 851.378906 659.953125 851.160156 661.429688 851.011719 662.921875 C 850.867188 664.410156 850.792969 665.902344 850.792969 667.398438 L 850.792969 1672.816406 C 850.792969 1674.316406 850.867188 1675.808594 851.011719 1677.296875 C 851.160156 1678.789062 851.378906 1680.265625 851.671875 1681.734375 C 851.964844 1683.203125 852.328125 1684.652344 852.761719 1686.085938 C 853.195312 1687.515625 853.699219 1688.925781 854.273438 1690.308594 C 854.847656 1691.691406 855.484375 1693.042969 856.191406 1694.359375 C 856.894531 1695.679688 857.664062 1696.964844 858.496094 1698.207031 C 859.328125 1699.453125 860.21875 1700.652344 861.167969 1701.808594 C 862.117188 1702.96875 863.121094 1704.074219 864.179688 1705.132812 C 865.238281 1706.191406 866.347656 1707.195312 867.503906 1708.144531 C 868.664062 1709.09375 869.863281 1709.984375 871.109375 1710.816406 C 872.351562 1711.648438 873.636719 1712.417969 874.957031 1713.121094 C 876.277344 1713.828125 877.628906 1714.46875 879.011719 1715.039062 C 880.394531 1715.613281 881.800781 1716.117188 883.234375 1716.550781 C 884.667969 1716.984375 886.117188 1717.347656 887.585938 1717.640625 C 889.054688 1717.933594 890.53125 1718.152344 892.023438 1718.300781 C 893.511719 1718.445312 895.007812 1718.519531 896.503906 1718.519531 C 898 1718.519531 899.492188 1718.445312 900.984375 1718.300781 C 902.472656 1718.152344 903.953125 1717.933594 905.421875 1717.640625 C 906.890625 1717.347656 908.339844 1716.984375 909.773438 1716.550781 C 911.203125 1716.117188 912.613281 1715.613281 913.996094 1715.039062 C 915.378906 1714.46875 916.730469 1713.828125 918.050781 1713.121094 C 919.371094 1712.417969 920.652344 1711.648438 921.898438 1710.816406 C 923.144531 1709.984375 924.34375 1709.09375 925.5 1708.144531 C 926.660156 1707.195312 927.765625 1706.191406 928.824219 1705.132812 C 929.882812 1704.074219 930.886719 1702.96875 931.835938 1701.808594 C 932.785156 1700.652344 933.675781 1699.453125 934.507812 1698.207031 C 935.339844 1696.964844 936.109375 1695.679688 936.816406 1694.359375 C 937.519531 1693.042969 938.160156 1691.691406 938.734375 1690.308594 C 939.304688 1688.925781 939.808594 1687.515625 940.246094 1686.085938 C 940.679688 1684.652344 941.042969 1683.203125 941.335938 1681.734375 C 941.625 1680.265625 941.847656 1678.789062 941.992188 1677.296875 C 942.140625 1675.808594 942.214844 1674.316406 942.214844 1672.816406 L 942.214844 667.398438 C 942.214844 665.902344 942.140625 664.410156 941.992188 662.921875 C 941.847656 661.429688 941.625 659.953125 941.335938 658.484375 C 941.042969 657.015625 940.679688 655.566406 940.246094 654.132812 C 939.808594 652.699219 939.304688 651.292969 938.734375 649.910156 C 938.160156 648.527344 937.519531 647.175781 936.816406 645.855469 C 936.109375 644.535156 935.339844 643.253906 934.507812 642.007812 C 933.679688 640.765625 932.785156 639.5625 931.835938 638.40625 C 930.886719 637.25 929.882812 636.144531 928.824219 635.085938 C 927.765625 634.027344 926.660156 633.023438 925.5 632.074219 C 924.34375 631.121094 923.144531 630.230469 921.898438 629.402344 C 920.652344 628.570312 919.371094 627.800781 918.050781 627.09375 C 916.730469 626.390625 915.378906 625.75 913.996094 625.175781 C 912.613281 624.605469 911.203125 624.101562 909.773438 623.667969 C 908.339844 623.230469 906.890625 622.867188 905.421875 622.578125 C 903.953125 622.285156 902.472656 622.066406 900.984375 621.917969 C 899.492188 621.773438 898 621.699219 896.503906 621.699219 Z M 896.503906 621.699219 " fill-opacity="1" fill-rule="nonzero"/></g></svg>