<svg xmlns="http://www.w3.org/2000/svg" xmlns:xlink="http://www.w3.org/1999/xlink" width="3000" zoomAndPan="magnify" viewBox="0 0 2250 2250.000011" height="3000" preserveAspectRatio="xMidYMid meet" version="1.0"><defs><clipPath id="78ac8bec07"><path d="M 20.085938 19.585938 L 2230.101562 19.585938 L 2230.101562 2229.601562 L 20.085938 2229.601562 Z M 20.085938 19.585938 " clip-rule="nonzero"/></clipPath></defs><g clip-path="url(#78ac8bec07)"><path fill="#000000" d="M 1125.09375 19.585938 C 517.339844 19.585938 20.085938 516.839844 20.085938 1124.59375 C 20.085938 1732.347656 517.339844 2229.601562 1125.09375 2229.601562 C 1732.847656 2229.601562 2230.101562 1732.347656 2230.101562 1124.59375 C 2230.101562 516.839844 1732.847656 19.585938 1125.09375 19.585938 Z M 1573.394531 1611.460938 C 1552.621094 1611.460938 1542.234375 1601.074219 1521.460938 1590.6875 C 1365.542969 1497.09375 1168.078125 1445.15625 960.226562 1445.15625 C 845.859375 1445.15625 721.214844 1465.929688 617.230469 1486.707031 C 596.457031 1486.707031 575.683594 1497.09375 565.296875 1497.09375 C 523.75 1497.09375 492.585938 1465.933594 492.585938 1424.382812 C 492.585938 1382.835938 513.359375 1351.671875 554.910156 1351.671875 C 690.050781 1320.511719 825.195312 1299.738281 970.722656 1299.738281 C 1209.738281 1299.738281 1428.085938 1362.0625 1615.164062 1466.042969 C 1635.9375 1486.816406 1656.714844 1497.203125 1656.714844 1538.75 C 1635.71875 1590.6875 1604.558594 1611.460938 1573.394531 1611.460938 Z M 1687.652344 1320.511719 C 1666.878906 1320.511719 1646.105469 1310.125 1625.332031 1299.738281 C 1448.640625 1185.371094 1199.128906 1123.046875 928.953125 1123.046875 C 793.8125 1123.046875 669.058594 1143.820312 575.574219 1164.597656 C 554.800781 1174.984375 544.410156 1174.984375 523.636719 1174.984375 C 471.703125 1174.984375 440.429688 1133.433594 440.429688 1091.777344 C 440.429688 1039.839844 461.203125 1019.066406 513.140625 998.179688 C 637.894531 967.019531 762.652344 935.859375 939.34375 935.859375 C 1230.402344 935.859375 1500.578125 1008.570312 1729.3125 1143.710938 C 1760.472656 1164.484375 1781.25 1195.648438 1781.25 1226.917969 C 1770.859375 1278.855469 1739.699219 1320.511719 1687.652344 1320.511719 Z M 1822.796875 987.792969 C 1802.023438 987.792969 1791.636719 977.40625 1760.472656 967.019531 C 1552.621094 852.652344 1251.175781 779.941406 960.117188 779.941406 C 814.585938 779.941406 658.667969 800.714844 523.527344 831.878906 C 502.753906 831.878906 492.367188 842.265625 461.203125 842.265625 C 398.882812 852.761719 357.222656 800.714844 357.222656 738.394531 C 357.222656 676.070312 388.382812 644.800781 429.933594 634.414062 C 596.347656 592.863281 773.039062 572.089844 960.117188 572.089844 C 1282.335938 572.089844 1614.945312 644.800781 1874.84375 779.941406 C 1906.003906 800.714844 1937.164062 831.878906 1937.164062 883.921875 C 1926.777344 946.246094 1885.121094 987.792969 1822.796875 987.792969 Z M 1822.796875 987.792969 " fill-opacity="1" fill-rule="nonzero"/></g></svg>