<svg xmlns="http://www.w3.org/2000/svg" xmlns:xlink="http://www.w3.org/1999/xlink" width="3000" zoomAndPan="magnify" viewBox="0 0 2250 2250.000011" height="3000" preserveAspectRatio="xMidYMid meet" version="1.0"><defs><clipPath id="c3681231e2"><path d="M 26 256 L 2224 256 L 2224 2041.460938 L 26 2041.460938 Z M 26 256 " clip-rule="nonzero"/></clipPath></defs><g clip-path="url(#c3681231e2)"><path fill="#000000" d="M 1998.519531 700.535156 C 1999.839844 719.914062 1999.839844 739.292969 1999.839844 758.804688 C 1999.839844 1354.433594 1546.457031 2041.328125 717.457031 2041.328125 L 717.457031 2040.976562 C 472.554688 2041.371094 232.746094 1971.242188 26.597656 1838.933594 C 62.183594 1843.195312 97.992188 1845.347656 133.890625 1845.4375 C 336.832031 1845.613281 533.976562 1777.503906 693.644531 1652.09375 C 500.761719 1648.445312 331.648438 1522.683594 272.554688 1339.050781 C 340.128906 1352.101562 409.722656 1349.421875 476.023438 1331.273438 C 265.742188 1288.785156 114.46875 1104.007812 114.46875 889.441406 C 114.46875 887.464844 114.46875 885.617188 114.46875 883.730469 C 177.125 918.617188 247.289062 937.996094 319.039062 940.148438 C 121.015625 807.84375 59.988281 544.367188 179.582031 338.324219 C 408.40625 619.949219 746.015625 791.144531 1108.449219 809.246094 C 1072.113281 652.683594 1121.761719 488.648438 1238.855469 378.574219 C 1420.402344 207.90625 1705.902344 216.652344 1876.550781 398.128906 C 1977.476562 378.222656 2074.222656 341.179688 2162.757812 288.714844 C 2129.101562 393.078125 2058.714844 481.707031 1964.644531 537.996094 C 2053.96875 527.449219 2141.269531 503.546875 2223.476562 467.03125 C 2162.933594 557.726562 2086.703125 636.734375 1998.519531 700.535156 Z M 1998.519531 700.535156 " fill-opacity="1" fill-rule="nonzero"/></g></svg>