<svg xmlns="http://www.w3.org/2000/svg" xmlns:xlink="http://www.w3.org/1999/xlink" width="3000" zoomAndPan="magnify" viewBox="0 0 2250 2250.000011" height="3000" preserveAspectRatio="xMidYMid meet" version="1.0"><defs><clipPath id="8e40c5e2da"><path d="M 18.671875 18.171875 L 2231.6875 18.171875 L 2231.6875 2231.1875 L 18.671875 2231.1875 Z M 18.671875 18.171875 " clip-rule="nonzero"/></clipPath></defs><g clip-path="url(#8e40c5e2da)"><path fill="#000000" d="M 18.671875 1124.679688 C 18.671875 513.570312 514.070312 18.171875 1125.179688 18.171875 C 1736.28125 18.171875 2231.6875 513.570312 2231.6875 1124.679688 C 2231.6875 1735.78125 1736.28125 2231.1875 1125.179688 2231.1875 C 514.070312 2231.1875 18.671875 1735.78125 18.671875 1124.679688 Z M 1125.179688 370.242188 C 708.511719 370.242188 370.742188 708.015625 370.742188 1124.679688 C 370.742188 1541.339844 708.511719 1879.117188 1125.179688 1879.117188 C 1541.839844 1879.117188 1879.617188 1541.339844 1879.617188 1124.679688 C 1879.617188 708.015625 1541.839844 370.242188 1125.179688 370.242188 Z M 981.683594 690.199219 C 950.953125 668.691406 910.808594 666.0625 877.539062 683.386719 C 844.273438 700.707031 823.402344 735.101562 823.402344 772.609375 L 823.402344 1476.75 C 823.402344 1514.261719 844.273438 1548.652344 877.539062 1565.972656 C 910.808594 1583.296875 950.953125 1580.671875 981.683594 1559.152344 L 1484.640625 1207.082031 C 1511.53125 1188.261719 1527.542969 1157.5 1527.542969 1124.679688 C 1527.542969 1091.855469 1511.53125 1061.09375 1484.640625 1042.273438 Z M 981.683594 690.199219 " fill-opacity="1" fill-rule="evenodd"/></g></svg>