<svg xmlns="http://www.w3.org/2000/svg" xmlns:xlink="http://www.w3.org/1999/xlink" width="3000" zoomAndPan="magnify" viewBox="0 0 2250 2250.000011" height="3000" preserveAspectRatio="xMidYMid meet" version="1.0"><defs><clipPath id="0b158e6e5b"><path d="M 24 259.984375 L 2226 259.984375 L 2226 1988.71875 L 24 1988.71875 Z M 24 259.984375 " clip-rule="nonzero"/></clipPath></defs><g clip-path="url(#0b158e6e5b)"><path fill="#000000" d="M 1124.96875 259.984375 C 804.46875 259.984375 520.808594 293.136719 348.277344 318.917969 C 207.0625 339.792969 94.703125 450.292969 68.914062 592.101562 C 46.8125 716.109375 24.707031 897.210938 24.707031 1124.351562 C 24.707031 1351.492188 46.8125 1532.59375 68.914062 1656.597656 C 94.703125 1798.410156 207.0625 1908.296875 348.277344 1929.78125 C 521.421875 1955.566406 806.308594 1988.71875 1124.96875 1988.71875 C 1443.625 1988.71875 1727.898438 1955.566406 1901.042969 1929.78125 L 1901.65625 1929.78125 C 2042.875 1908.910156 2155.234375 1798.410156 2181.019531 1656.597656 C 2203.125 1531.976562 2225.226562 1350.878906 2225.226562 1124.351562 C 2225.226562 897.210938 2203.125 716.109375 2180.40625 592.101562 C 2155.234375 450.292969 2042.875 339.792969 1901.65625 318.917969 C 1729.128906 293.136719 1445.46875 259.984375 1124.96875 259.984375 Z M 1124.96875 417.144531 C 1434.414062 417.144531 1711.324219 449.066406 1878.324219 474.234375 C 1952.003906 485.285156 2011.5625 542.992188 2025.683594 619.730469 C 2046.558594 735.753906 2068.046875 907.644531 2068.046875 1124.351562 C 2068.046875 1341.058594 2046.558594 1512.949219 2026.296875 1628.359375 C 2012.175781 1705.710938 1952.617188 1763.417969 1878.324219 1774.46875 C 1710.09375 1799.023438 1432.574219 1831.558594 1124.96875 1831.558594 C 817.363281 1831.558594 539.226562 1799.023438 371.609375 1774.46875 C 297.929688 1763.417969 237.761719 1705.710938 223.640625 1628.359375 C 203.378906 1512.332031 181.890625 1341.058594 181.890625 1124.351562 C 181.890625 907.03125 203.378906 735.753906 223.640625 619.730469 C 237.761719 542.992188 297.316406 485.285156 370.996094 474.847656 L 371.609375 474.847656 C 538.613281 449.679688 815.519531 417.144531 1124.96875 417.144531 Z M 810.609375 731.457031 L 810.609375 1517.246094 L 1596.507812 1124.351562 Z M 810.609375 731.457031 " fill-opacity="1" fill-rule="nonzero"/></g></svg>