<?xml version="1.0" encoding="UTF-8"?>
<!DOCTYPE svg PUBLIC "-//W3C//DTD SVG 1.1//EN" "http://www.w3.org/Graphics/SVG/1.1/DTD/svg11.dtd">
<!-- Creator: CorelDRAW X7 -->
<svg xmlns="http://www.w3.org/2000/svg" xml:space="preserve" width="276.606mm" height="56.9265mm" version="1.1" style="shape-rendering:geometricPrecision; text-rendering:geometricPrecision; image-rendering:optimizeQuality; fill-rule:evenodd; clip-rule:evenodd"
viewBox="0 0 27661 5693"
 xmlns:xlink="http://www.w3.org/1999/xlink">
 <defs>
  <style type="text/css">
   <![CDATA[
    .fil0 {fill:black}
   ]]>
  </style>
 </defs>
 <g id="Layer_x0020_1">
  <metadata id="CorelCorpID_0Corel-Layer"/>
  <path class="fil0" d="M4987 984c20,0 54,-4 66,-5 9,1 136,-20 145,-11 9,10 -105,43 -118,47 -38,9 -75,17 -118,17 -9,1 -24,-3 -32,-4 -12,-3 -20,-6 -28,-10 -16,-9 -23,-17 -27,-29 -8,-21 -2,-40 7,-61 20,-54 60,-109 94,-161 40,-66 77,-130 108,-197 25,-59 44,-111 34,-171 -4,-23 -12,-41 -30,-63 -18,-19 -35,-31 -65,-46 -94,-40 -213,-56 -330,-69 -224,-21 -433,-24 -660,-21 -292,6 -571,23 -859,44 -299,22 -595,48 -893,75 -259,23 -516,48 -777,64 -203,10 -391,14 -594,13 -50,0 -102,-1 -154,-3 -3,1 -5,1 -7,1 -2,-1 -4,-1 -6,-1 -57,-2 -114,-5 -168,-11 -65,-8 -107,-17 -160,-39 -27,-12 -45,-23 -63,-39 -28,-28 -36,-52 -29,-83 11,-31 32,-53 76,-76 27,-13 51,-22 86,-30 62,-12 106,-15 170,-13 46,2 84,6 127,13 23,2 74,13 98,18 6,1 11,2 16,4 12,0 24,0 32,0 181,6 348,5 530,-1 252,-9 502,-28 751,-45 306,-20 609,-38 915,-53 307,-14 599,-24 908,-21 257,4 487,15 736,49 182,26 330,55 462,125 54,32 86,59 113,98 24,36 32,66 33,104 -2,76 -32,135 -77,206 -46,69 -98,133 -157,200 -39,48 -94,97 -134,146 -10,13 -14,24 -20,37 0,1 0,1 -1,2zm20556 1971c-76,16 -132,41 -187,71 -39,23 -73,47 -102,71 35,25 76,58 125,74 19,5 33,7 55,7 26,0 48,-2 73,-5 56,-8 100,-18 147,-35 38,-16 61,-30 84,-52 18,-18 29,-35 28,-55 -3,-19 -14,-33 -34,-49 -19,-14 -39,-24 -72,-30 -18,-3 -32,-4 -50,-4 -25,1 -44,3 -67,7zm-11658 -167c-43,23 -72,50 -98,78 -41,47 -69,93 -94,142 -10,21 -19,40 -26,59 35,11 67,20 80,19 30,4 52,4 82,1 30,-4 55,-10 83,-17 57,-15 104,-30 151,-53 39,-20 63,-39 87,-65 18,-23 29,-41 30,-65 1,-22 -6,-40 -21,-60 -12,-16 -25,-29 -50,-41 -22,-10 -44,-16 -73,-20 -27,-4 -47,-4 -75,-1 -32,5 -52,11 -76,23zm-4524 19c-177,219 -333,537 -426,794 -90,248 -98,385 -89,458 48,-36 88,-75 124,-114 144,-155 314,-441 395,-627 27,-68 58,-135 86,-203 14,-207 69,-321 156,-498 -3,-5 -8,-11 -12,-15 -82,28 -191,151 -234,205zm14939 -2332c-31,176 -75,346 -129,520 -5,17 -10,33 -15,49 -25,210 -44,419 -55,630 -14,316 -9,626 10,942 21,305 52,606 103,910 45,246 102,485 182,729 61,172 131,337 214,507 56,104 110,209 174,311 19,31 39,63 60,94 9,-59 25,-165 39,-171 24,0 34,194 38,208 1,2 -1,27 -2,29 -2,8 -4,15 -13,22 -3,2 -9,7 -13,7 -8,3 -16,5 -25,5 -10,1 -17,0 -26,-2 -4,-1 -11,-2 -15,-4 -12,-6 -19,-11 -27,-18 -49,-40 -96,-106 -129,-150 -81,-103 -149,-204 -214,-309 -108,-170 -191,-334 -266,-509 -105,-246 -179,-485 -240,-735 -73,-306 -122,-609 -159,-917 -21,-184 -37,-366 -47,-549 -105,221 -217,440 -341,661 -93,165 -190,329 -296,492l-35 52 -31 48c-91,135 -189,268 -291,401 -225,290 -458,556 -761,829 -230,200 -463,379 -812,533 -142,59 -264,98 -439,127 -166,25 -294,29 -464,11 -170,-22 -285,-55 -418,-111 -146,-66 -240,-129 -340,-213 -249,-225 -381,-458 -500,-706 -152,-342 -248,-675 -328,-1022 -83,-387 -138,-768 -179,-1156 -8,-104 -17,-208 -26,-312 -6,64 -12,128 -18,193 -43,391 -57,784 -86,1176 -25,339 -23,680 -33,1019 -8,239 6,482 11,722 2,102 13,207 22,309 4,44 12,88 17,132 6,52 21,104 30,155 1,10 35,144 14,146 -24,2 -91,-129 -96,-138 -28,-52 -46,-103 -67,-155 -17,-44 -30,-88 -42,-133 -30,-103 -51,-206 -68,-311 -46,-242 -72,-482 -91,-725 -31,-341 -45,-681 -51,-1022 -20,-392 6,-790 11,-1182 4,-346 34,-694 53,-1040 11,-195 33,-391 52,-586 5,-53 14,-106 28,-158 2,-7 7,-14 11,-22 7,-10 15,-18 27,-27 14,-12 29,-20 49,-29 44,-19 85,-27 143,-31 37,-2 66,-1 101,4 30,5 52,10 78,19 30,11 50,21 70,37 15,12 24,22 31,35 6,7 6,18 9,25 13,66 8,146 9,213 1,76 4,151 5,227 0,6 0,12 0,18 -4,46 -13,103 -51,149 10,79 18,159 27,238 45,348 88,696 141,1044 62,384 136,761 237,1143 93,339 200,664 365,996 114,222 245,442 479,641 74,60 145,108 252,154 72,29 134,48 224,58 81,8 139,5 216,-7 108,-20 188,-49 275,-86 290,-134 497,-302 687,-473 280,-263 496,-522 705,-800 96,-131 186,-262 274,-394l33 -47 32 -51c106,-160 206,-320 303,-482 185,-314 349,-626 500,-944 116,-254 220,-504 311,-760 26,-78 51,-156 74,-233 14,-134 29,-269 56,-402 11,-49 25,-108 52,-154 6,-7 12,-17 19,-23 10,-7 17,-16 31,-21 9,-5 25,-15 37,-17 24,-9 45,-13 73,-17 39,-5 71,-5 110,0 35,5 60,11 87,23 28,12 45,24 59,41 10,11 15,21 18,33 15,78 -14,208 -29,287zm1332 2307c62,3 108,10 164,23 97,26 154,56 204,105 42,43 58,80 51,129 -10,45 -36,78 -86,116 -52,37 -102,61 -179,85 -81,22 -151,33 -243,39 -50,3 -89,3 -139,-2 -57,-6 -96,-16 -141,-35 -40,-20 -69,-42 -93,-65 -3,4 -6,8 -10,12 -60,75 -96,141 -115,221 -9,41 -10,73 -7,114 0,3 0,6 -1,9l2 9c2,13 9,69 17,76 19,49 47,91 117,128 32,15 61,23 102,31 55,10 101,12 159,13 179,-2 348,-32 512,-64 219,-45 421,-97 629,-152 182,-50 364,-102 549,-151 77,-21 154,-42 236,-60 38,-9 74,-17 114,-24l45 -6c19,-2 34,-4 54,-5 13,0 84,-2 88,8 2,9 -59,21 -69,24 -12,5 -28,8 -40,12l-34 12c-30,10 -61,23 -91,34 -69,26 -135,55 -205,80 -166,67 -335,128 -509,188 -206,72 -405,135 -627,193 -209,51 -397,90 -630,103 -108,4 -193,1 -298,-12 -101,-15 -173,-33 -256,-66 -157,-68 -228,-138 -279,-238 -18,-36 -31,-72 -36,-110l0 -13 -2 -12c-2,-52 8,-102 24,-153 37,-101 92,-183 184,-275 83,-81 166,-143 296,-207 111,-52 212,-86 359,-107 65,-8 117,-10 184,-7zm-8606 793c51,-55 207,-216 364,-174 146,54 100,166 67,245l-3 4c-57,62 -258,259 -423,237 -106,-46 -35,-243 -7,-308l2 -4zm-708 -861c46,33 95,61 165,80 66,16 120,16 191,11 83,-7 150,-20 225,-38 68,-16 121,-33 181,-56 18,-8 139,-65 157,-62 19,7 -92,83 -105,89 -55,32 -107,54 -178,77 -81,27 -155,45 -249,59 -105,13 -185,14 -288,-4 -106,-23 -175,-55 -248,-99 -15,-9 -28,-17 -41,-26 4,15 8,30 12,46 25,86 54,172 78,258 25,90 59,181 77,272 21,83 39,166 52,251 11,69 19,138 19,209 -2,50 -7,95 -30,144 -11,22 -23,39 -44,59 -15,13 -29,23 -51,33 -33,16 -64,25 -108,31 -49,6 -88,5 -136,-3 -32,-6 -55,-12 -82,-23 -35,-15 -57,-28 -83,-46 -57,-42 -90,-80 -124,-126 -44,-63 -78,-128 -114,-192 -48,-87 -89,-167 -121,-255 -13,-42 -28,-82 -39,-124l-5 -24 -6 -22c-1,-3 -1,-5 -2,-8 -17,13 -34,26 -52,39 -101,72 -202,134 -324,198 -129,66 -248,117 -403,167 -146,45 -270,71 -438,88 -154,13 -277,11 -424,-16 -139,-31 -224,-70 -305,-133 -73,-63 -103,-118 -123,-189 -2,-9 -4,-17 -5,-25 -30,28 -54,50 -66,60 -63,45 -123,83 -203,121 -78,35 -146,58 -244,77 -51,8 -92,11 -145,12 -57,-1 -100,-5 -153,-16 -55,-12 -92,-24 -135,-44 -44,-21 -73,-41 -105,-66 -113,-100 -162,-208 -182,-320 -142,36 -297,17 -431,-41 -34,-14 -67,-32 -100,-53 27,67 56,133 74,201 26,99 65,202 80,301 27,155 62,315 33,477 -24,130 -90,198 -224,226 -235,51 -466,-63 -623,-221 -97,-98 -223,-283 -280,-400 -9,-16 -18,-33 -27,-50 -31,26 -67,52 -108,76 -269,152 -674,125 -897,-103 -207,333 -548,751 -909,673 -166,-35 -187,-160 -165,-303 12,-79 40,-175 80,-279 -107,90 -235,171 -413,237 -73,23 -134,37 -218,47 -90,9 -160,9 -250,0 -98,-12 -168,-29 -252,-57 -96,-34 -165,-68 -241,-113 -39,-23 -77,-45 -115,-67 -112,125 -229,251 -344,377 -135,148 -264,298 -397,447 -115,128 -230,257 -341,385l-109 124 -99 114c-22,25 -44,49 -65,73 -5,5 -8,10 -13,14 -3,4 -6,9 -10,13l-5 4c-2,2 -6,4 -9,5 -6,3 -12,5 -20,7 -9,1 -16,2 -26,1 -13,-1 -22,-3 -32,-7 -7,-3 -12,-6 -16,-10 -2,-1 -3,-5 -4,-7 -2,-2 -1,-5 -1,-7 -1,-2 0,-4 1,-5 0,-2 2,-4 2,-5 4,-8 9,-17 14,-25 14,-26 30,-51 47,-76 22,-40 50,-80 75,-119 27,-44 56,-87 85,-130 89,-134 186,-266 284,-398 108,-154 228,-307 344,-460 102,-133 214,-265 315,-398 22,-27 43,-54 65,-81 -55,-37 -108,-74 -162,-112 -166,-120 -322,-241 -482,-362 -55,-41 -111,-84 -164,-126 -76,-61 15,-93 112,-123 97,-31 195,-58 271,2 53,42 108,87 157,130 142,125 290,247 437,370 1,1 2,2 3,3 130,-165 258,-329 387,-493 87,-108 175,-219 270,-324 69,-77 153,-73 287,-41 130,31 193,59 126,134 -96,105 -190,209 -283,315 -179,200 -355,402 -533,602 68,50 139,99 213,148l2 1c51,35 99,63 164,91 45,18 83,30 137,39 44,7 76,9 121,6 50,-4 87,-11 132,-22 251,-73 417,-200 569,-320 41,-33 81,-66 121,-99 179,-341 437,-689 666,-815 99,-55 234,-70 304,-11 58,-13 120,-10 174,4 46,11 118,44 119,89 2,55 -74,258 -110,347 -22,139 -16,284 48,411 29,55 103,150 172,160 152,-25 300,-250 323,-399 -6,-42 -10,-91 1,-112 20,-42 48,-59 103,-75 82,-22 223,-15 280,46 35,37 32,116 20,183 0,1 0,2 1,3 26,144 75,275 144,406 89,170 182,368 354,477l71 34c53,-76 59,-184 60,-272 1,-136 -36,-431 -71,-558 -23,-86 -40,-174 -71,-258 -22,-62 -45,-122 -68,-183 -9,-22 -37,-83 -50,-101 -42,-49 115,-91 168,-41 3,3 6,7 10,11 1,1 1,2 2,3l93 118c42,48 85,96 135,143 139,127 296,181 476,140 -1,-7 -1,-13 -2,-20 -4,-69 118,-73 225,-73 97,0 224,3 228,66 3,102 7,203 72,300 9,10 19,19 32,29 4,4 15,8 21,11 7,3 11,4 20,6 13,1 25,1 39,0 55,-4 103,-18 149,-33 74,-25 132,-52 194,-84 38,-20 162,-100 269,-166 18,-69 46,-130 87,-197 35,-57 73,-107 129,-160 45,-43 89,-77 161,-109 61,-25 113,-38 191,-45 66,-4 116,-2 179,9 61,12 105,27 150,51 44,25 66,48 84,80 18,34 23,60 16,95 -9,35 -28,61 -62,93 -38,33 -76,57 -135,82 -64,25 -122,40 -198,54 -39,7 -72,11 -114,14 -48,1 -82,-2 -127,-11 -8,-3 -33,-11 -62,-23 -8,27 -15,54 -19,83 -8,60 -5,111 15,170 18,47 41,86 94,127 43,30 85,49 155,62 82,13 154,10 237,1 118,-14 206,-36 307,-70 124,-43 220,-89 321,-145 103,-58 187,-114 271,-179 70,-55 131,-109 189,-168 35,-35 65,-66 85,-103 6,-16 14,-31 20,-47 1,-4 6,-20 8,-22 10,-21 17,-30 41,-49 15,-10 29,-17 50,-25 40,-13 76,-19 125,-20 52,1 90,7 132,22 22,9 37,17 52,28 17,15 25,25 32,41 2,8 5,16 7,25 3,18 6,35 11,52 16,62 35,123 51,185 14,44 24,91 35,135l4 21 7 23c9,38 16,80 30,116 13,38 27,75 42,112 -5,-46 -10,-92 -19,-138l-53 -270c-17,-86 -42,-175 -54,-262 -10,-77 -27,-154 -31,-232 -6,-60 -9,-120 -11,-180 -2,-36 -6,-78 -1,-114 1,-3 1,-8 2,-11 3,-10 8,-17 19,-26 8,-7 17,-12 29,-17 23,-9 43,-13 72,-14 27,-1 47,1 71,8 14,3 23,7 33,13 13,7 21,13 27,22 7,13 12,23 17,35 15,38 22,81 42,117 24,59 52,116 89,173 36,50 70,88 130,132zm-4041 -1457c55,-67 181,-211 344,-216 172,18 113,216 90,279l-1 2c0,1 0,1 -1,2 -1,3 -10,13 -13,15 -47,47 -101,95 -166,136 -21,17 -43,33 -73,46 -26,17 -42,19 -80,26 -47,9 -69,-20 -79,-37 -20,-21 -25,-43 -29,-66 -17,-55 -11,-112 0,-167 0,0 4,-15 5,-16l3 -2c-1,-1 -1,-2 0,-2zm-9288 1306c158,-11 319,-20 476,-31 87,-7 215,-22 301,-17 8,0 20,3 28,4 16,3 27,7 40,13 16,8 25,17 29,29 3,9 2,17 -4,26 -6,9 -13,14 -26,21 -2,2 -18,8 -22,10 -27,10 -62,17 -93,24 -72,15 -145,26 -217,41 -35,7 -222,54 -249,44 -6,-9 19,-26 53,-44 -116,15 -239,30 -256,33 -205,28 -414,52 -620,77 -218,27 -440,49 -659,73 -208,24 -412,48 -618,76 -170,23 -346,49 -511,81 -26,4 -52,10 -77,16 -4,298 4,594 29,892l13 133c1,11 1,22 1,32 2,12 4,23 5,35 20,208 46,407 96,615 47,173 105,333 218,498 53,70 122,154 237,204 28,11 50,17 85,20 41,4 75,1 116,-3 160,-21 298,-73 426,-123 251,-100 488,-212 722,-323 269,-126 537,-254 807,-380 292,-135 585,-268 891,-397 260,-108 510,-204 790,-300 236,-80 472,-156 725,-223 161,-43 314,-81 491,-106 43,-6 85,-11 129,-15 26,-2 52,-5 79,-7 11,0 114,-6 118,1 3,8 -94,25 -104,27 -23,5 -49,9 -72,14 -40,8 -78,16 -117,25 -157,39 -297,81 -445,128 -231,79 -452,160 -673,245 -257,102 -495,205 -736,316 -287,135 -565,273 -841,414 -259,131 -515,264 -773,396 -236,119 -471,238 -724,347 -185,77 -348,138 -580,174 -105,14 -187,18 -295,12 -116,-9 -196,-26 -291,-60 -208,-81 -310,-182 -407,-301 -142,-183 -214,-355 -276,-547 -64,-212 -107,-424 -131,-638l-2 -35 -4 -33c-4,-44 -9,-92 -9,-136 -11,-293 -3,-584 16,-876 -1,0 -2,-1 -3,-1 -33,-15 -51,-30 -65,-51 -13,-23 -13,-42 -2,-65 9,-15 19,-26 36,-39 16,-13 31,-22 48,-31 30,-324 74,-645 130,-969 44,-256 93,-512 156,-767 30,-129 61,-257 101,-385l27 -104 4 -9c2,-3 4,-8 6,-11 6,-7 12,-12 21,-19 19,-12 39,-19 68,-25 29,-5 53,-6 83,-3 28,3 49,8 71,18 20,9 32,17 42,30 2,4 6,9 7,13 1,3 2,7 2,10 0,3 1,5 0,8l-1 9c-4,31 -10,62 -16,93 -22,130 -50,262 -67,392 -35,255 -67,509 -95,764 -27,281 -48,559 -60,839 155,-22 313,-39 469,-56 218,-21 433,-38 653,-54 222,-15 445,-29 668,-44 209,-14 418,-30 628,-44z"/>
 </g>
</svg>
