<svg xmlns="http://www.w3.org/2000/svg" xmlns:xlink="http://www.w3.org/1999/xlink" width="150" zoomAndPan="magnify" viewBox="0 0 112.5 112.499997" height="150" preserveAspectRatio="xMidYMid meet" version="1.0"><defs><g/><clipPath id="0929e8c4bd"><path d="M 2.730469 53.695312 L 7.367188 53.695312 L 7.367188 58.332031 L 2.730469 58.332031 Z M 2.730469 53.695312 " clip-rule="nonzero"/></clipPath><clipPath id="189063db32"><path d="M 5.046875 53.695312 C 3.765625 53.695312 2.730469 54.734375 2.730469 56.015625 C 2.730469 57.296875 3.765625 58.332031 5.046875 58.332031 C 6.328125 58.332031 7.367188 57.296875 7.367188 56.015625 C 7.367188 54.734375 6.328125 53.695312 5.046875 53.695312 " clip-rule="nonzero"/></clipPath><clipPath id="02eaa54928"><path d="M 105.101562 53.695312 L 109.742188 53.695312 L 109.742188 58.332031 L 105.101562 58.332031 Z M 105.101562 53.695312 " clip-rule="nonzero"/></clipPath><clipPath id="a516895b10"><path d="M 107.421875 53.695312 C 106.140625 53.695312 105.101562 54.734375 105.101562 56.015625 C 105.101562 57.296875 106.140625 58.332031 107.421875 58.332031 C 108.703125 58.332031 109.742188 57.296875 109.742188 56.015625 C 109.742188 54.734375 108.703125 53.695312 107.421875 53.695312 " clip-rule="nonzero"/></clipPath><clipPath id="c25edeaf3d"><path d="M 22 24 L 97.988281 24 L 97.988281 95.71875 L 22 95.71875 Z M 22 24 " clip-rule="nonzero"/></clipPath></defs><g clip-path="url(#0929e8c4bd)"><g clip-path="url(#189063db32)"><path fill="#000000" d="M 2.730469 53.695312 L 7.367188 53.695312 L 7.367188 58.332031 L 2.730469 58.332031 Z M 2.730469 53.695312 " fill-opacity="1" fill-rule="nonzero"/></g></g><g fill="#000000" fill-opacity="1"><g transform="translate(2.228772, 51.46143)"><g><path d="M 2.0625 -4.078125 L 1.46875 0.203125 L 0.453125 0.0625 L 1.046875 -4.21875 Z M 2.0625 -4.078125 "/></g></g></g><g fill="#000000" fill-opacity="1"><g transform="translate(2.779173, 47.391344)"><g><path d="M 2.359375 -3.921875 L 1.453125 0.3125 L 0.4375 0.09375 L 1.34375 -4.140625 Z M 2.359375 -3.921875 "/></g></g></g><g fill="#000000" fill-opacity="1"><g transform="translate(3.634958, 43.374354)"><g><path d="M 2.65625 -3.734375 L 1.421875 0.421875 L 0.4375 0.125 L 1.671875 -4.03125 Z M 2.65625 -3.734375 "/></g></g></g><g fill="#000000" fill-opacity="1"><g transform="translate(4.791255, 39.433343)"><g><path d="M 2.921875 -3.515625 L 1.390625 0.53125 L 0.421875 0.15625 L 1.953125 -3.890625 Z M 2.921875 -3.515625 "/></g></g></g><g fill="#000000" fill-opacity="1"><g transform="translate(6.241474, 35.590762)"><g><path d="M 3.1875 -3.296875 L 1.34375 0.625 L 0.40625 0.1875 L 2.25 -3.734375 Z M 3.1875 -3.296875 "/></g></g></g><g fill="#000000" fill-opacity="1"><g transform="translate(7.977355, 31.86849)"><g><path d="M 3.421875 -3.03125 L 1.296875 0.734375 L 0.390625 0.21875 L 2.515625 -3.546875 Z M 3.421875 -3.03125 "/></g></g></g><g fill="#000000" fill-opacity="1"><g transform="translate(9.989013, 28.287733)"><g><path d="M 3.640625 -2.765625 L 1.234375 0.828125 L 0.375 0.25 L 2.78125 -3.34375 Z M 3.640625 -2.765625 "/></g></g></g><g fill="#000000" fill-opacity="1"><g transform="translate(12.264988, 24.868888)"><g><path d="M 3.84375 -2.484375 L 1.171875 0.921875 L 0.359375 0.28125 L 3.03125 -3.125 Z M 3.84375 -2.484375 "/></g></g></g><g fill="#000000" fill-opacity="1"><g transform="translate(14.792318, 21.631421)"><g><path d="M 4.015625 -2.1875 L 1.09375 1 L 0.328125 0.3125 L 3.25 -2.875 Z M 4.015625 -2.1875 "/></g></g></g><g fill="#000000" fill-opacity="1"><g transform="translate(17.556605, 18.593777)"><g><path d="M 4.171875 -1.890625 L 1.015625 1.078125 L 0.3125 0.328125 L 3.46875 -2.640625 Z M 4.171875 -1.890625 "/></g></g></g><g fill="#000000" fill-opacity="1"><g transform="translate(20.54211, 15.773256)"><g><path d="M 4.296875 -1.5625 L 0.9375 1.15625 L 0.28125 0.359375 L 3.640625 -2.359375 Z M 4.296875 -1.5625 "/></g></g></g><g fill="#000000" fill-opacity="1"><g transform="translate(23.731824, 13.185922)"><g><path d="M 4.40625 -1.234375 L 0.84375 1.21875 L 0.25 0.375 L 3.8125 -2.078125 Z M 4.40625 -1.234375 "/></g></g></g><g fill="#000000" fill-opacity="1"><g transform="translate(27.107583, 10.846513)"><g><path d="M 4.484375 -0.90625 L 0.75 1.28125 L 0.234375 0.390625 L 3.96875 -1.796875 Z M 4.484375 -0.90625 "/></g></g></g><g fill="#000000" fill-opacity="1"><g transform="translate(30.650155, 8.768352)"><g><path d="M 4.546875 -0.5625 L 0.65625 1.328125 L 0.203125 0.40625 L 4.09375 -1.484375 Z M 4.546875 -0.5625 "/></g></g></g><g fill="#000000" fill-opacity="1"><g transform="translate(34.339368, 6.963277)"><g><path d="M 4.578125 -0.21875 L 0.546875 1.375 L 0.171875 0.421875 L 4.203125 -1.171875 Z M 4.578125 -0.21875 "/></g></g></g><g fill="#000000" fill-opacity="1"><g transform="translate(38.154206, 5.441568)"><g><path d="M 4.5625 0.140625 L 0.4375 1.421875 L 0.140625 0.4375 L 4.265625 -0.84375 Z M 4.5625 0.140625 "/></g></g></g><g fill="#000000" fill-opacity="1"><g transform="translate(42.07294, 4.211895)"><g><path d="M 4.546875 0.484375 L 0.328125 1.453125 L 0.109375 0.4375 L 4.328125 -0.53125 Z M 4.546875 0.484375 "/></g></g></g><g fill="#000000" fill-opacity="1"><g transform="translate(46.073252, 3.281258)"><g><path d="M 4.5 0.8125 L 0.21875 1.46875 L 0.0625 0.453125 L 4.34375 -0.203125 Z M 4.5 0.8125 "/></g></g></g><g fill="#000000" fill-opacity="1"><g transform="translate(50.132353, 2.654959)"><g><path d="M 4.421875 1.15625 L 0.109375 1.484375 L 0.03125 0.453125 L 4.34375 0.125 Z M 4.421875 1.15625 "/></g></g></g><g fill="#000000" fill-opacity="1"><g transform="translate(54.055136, 2.336567)"><g><path d="M 4.328125 1.484375 L 0 1.484375 L 0 0.453125 L 4.328125 0.453125 Z M 4.328125 1.484375 "/></g></g></g><g fill="#000000" fill-opacity="1"><g transform="translate(58.334262, 2.327894)"><g><path d="M 4.203125 1.8125 L -0.109375 1.484375 L -0.03125 0.453125 L 4.28125 0.78125 Z M 4.203125 1.8125 "/></g></g></g><g fill="#000000" fill-opacity="1"><g transform="translate(62.430346, 2.628988)"><g><path d="M 4.0625 2.125 L -0.21875 1.46875 L -0.0625 0.453125 L 4.21875 1.109375 Z M 4.0625 2.125 "/></g></g></g><g fill="#000000" fill-opacity="1"><g transform="translate(66.492058, 3.238137)"><g><path d="M 3.890625 2.421875 L -0.328125 1.453125 L -0.109375 0.4375 L 4.109375 1.40625 Z M 3.890625 2.421875 "/></g></g></g><g fill="#000000" fill-opacity="1"><g transform="translate(70.496268, 4.151869)"><g><path d="M 3.6875 2.703125 L -0.4375 1.421875 L -0.140625 0.4375 L 3.984375 1.71875 Z M 3.6875 2.703125 "/></g></g></g><g fill="#000000" fill-opacity="1"><g transform="translate(74.420164, 5.364981)"><g><path d="M 3.484375 2.96875 L -0.546875 1.375 L -0.171875 0.421875 L 3.859375 2.015625 Z M 3.484375 2.96875 "/></g></g></g><g fill="#000000" fill-opacity="1"><g transform="translate(78.241392, 6.870563)"><g><path d="M 3.234375 3.21875 L -0.65625 1.328125 L -0.203125 0.40625 L 3.6875 2.296875 Z M 3.234375 3.21875 "/></g></g></g><g fill="#000000" fill-opacity="1"><g transform="translate(81.938188, 8.660041)"><g><path d="M 2.984375 3.46875 L -0.75 1.28125 L -0.234375 0.390625 L 3.5 2.578125 Z M 2.984375 3.46875 "/></g></g></g><g fill="#000000" fill-opacity="1"><g transform="translate(85.489513, 10.72322)"><g><path d="M 2.71875 3.671875 L -0.84375 1.21875 L -0.25 0.375 L 3.3125 2.828125 Z M 2.71875 3.671875 "/></g></g></g><g fill="#000000" fill-opacity="1"><g transform="translate(88.875118, 13.048352)"><g><path d="M 2.421875 3.875 L -0.9375 1.15625 L -0.28125 0.359375 L 3.078125 3.078125 Z M 2.421875 3.875 "/></g></g></g><g fill="#000000" fill-opacity="1"><g transform="translate(92.075737, 15.62219)"><g><path d="M 2.140625 4.046875 L -1.015625 1.078125 L -0.3125 0.328125 L 2.84375 3.296875 Z M 2.140625 4.046875 "/></g></g></g><g fill="#000000" fill-opacity="1"><g transform="translate(95.073126, 18.430077)"><g><path d="M 1.828125 4.1875 L -1.09375 1 L -0.328125 0.3125 L 2.59375 3.5 Z M 1.828125 4.1875 "/></g></g></g><g fill="#000000" fill-opacity="1"><g transform="translate(97.850225, 21.456018)"><g><path d="M 1.5 4.328125 L -1.171875 0.921875 L -0.359375 0.28125 L 2.3125 3.6875 Z M 1.5 4.328125 "/></g></g></g><g fill="#000000" fill-opacity="1"><g transform="translate(100.391196, 24.682781)"><g><path d="M 1.171875 4.421875 L -1.234375 0.828125 L -0.375 0.25 L 2.03125 3.84375 Z M 1.171875 4.421875 "/></g></g></g><g fill="#000000" fill-opacity="1"><g transform="translate(102.681596, 28.091983)"><g><path d="M 0.828125 4.5 L -1.296875 0.734375 L -0.390625 0.21875 L 1.734375 3.984375 Z M 0.828125 4.5 "/></g></g></g><g fill="#000000" fill-opacity="1"><g transform="translate(104.708362, 31.664213)"><g><path d="M 0.5 4.546875 L -1.34375 0.625 L -0.40625 0.1875 L 1.4375 4.109375 Z M 0.5 4.546875 "/></g></g></g><g fill="#000000" fill-opacity="1"><g transform="translate(106.459946, 35.379114)"><g><path d="M 0.140625 4.578125 L -1.390625 0.53125 L -0.421875 0.15625 L 1.109375 4.203125 Z M 0.140625 4.578125 "/></g></g></g><g fill="#000000" fill-opacity="1"><g transform="translate(107.926382, 39.215542)"><g><path d="M -0.1875 4.578125 L -1.421875 0.421875 L -0.4375 0.125 L 0.796875 4.28125 Z M -0.1875 4.578125 "/></g></g></g><g fill="#000000" fill-opacity="1"><g transform="translate(109.099306, 43.15163)"><g><path d="M -0.546875 4.546875 L -1.453125 0.3125 L -0.4375 0.09375 L 0.46875 4.328125 Z M -0.546875 4.546875 "/></g></g></g><g fill="#000000" fill-opacity="1"><g transform="translate(109.972044, 47.164968)"><g><path d="M -0.875 4.484375 L -1.46875 0.203125 L -0.453125 0.0625 L 0.140625 4.34375 Z M -0.875 4.484375 "/></g></g></g><g fill="#000000" fill-opacity="1"><g transform="translate(6.638015, 49.458317)"><g><path d="M 2.25 -3.984375 L 1.453125 0.265625 L 0.453125 0.078125 L 1.25 -4.171875 Z M 2.25 -3.984375 "/></g></g></g><g fill="#000000" fill-opacity="1"><g transform="translate(7.378125, 45.436439)"><g><path d="M 2.578125 -3.78125 L 1.4375 0.390625 L 0.4375 0.125 L 1.578125 -4.046875 Z M 2.578125 -3.78125 "/></g></g></g><g fill="#000000" fill-opacity="1"><g transform="translate(8.443394, 41.48822)"><g><path d="M 2.859375 -3.5625 L 1.390625 0.5 L 0.421875 0.15625 L 1.890625 -3.90625 Z M 2.859375 -3.5625 "/></g></g></g><g fill="#000000" fill-opacity="1"><g transform="translate(9.826744, 37.639897)"><g><path d="M 3.140625 -3.3125 L 1.34375 0.625 L 0.40625 0.1875 L 2.203125 -3.75 Z M 3.140625 -3.3125 "/></g></g></g><g fill="#000000" fill-opacity="1"><g transform="translate(11.518976, 33.917048)"><g><path d="M 3.40625 -3.0625 L 1.296875 0.71875 L 0.390625 0.21875 L 2.5 -3.5625 Z M 3.40625 -3.0625 "/></g></g></g><g fill="#000000" fill-opacity="1"><g transform="translate(13.508847, 30.344419)"><g><path d="M 3.65625 -2.765625 L 1.234375 0.828125 L 0.375 0.25 L 2.796875 -3.34375 Z M 3.65625 -2.765625 "/></g></g></g><g fill="#000000" fill-opacity="1"><g transform="translate(15.783128, 26.945759)"><g><path d="M 3.859375 -2.453125 L 1.15625 0.921875 L 0.359375 0.28125 L 3.0625 -3.09375 Z M 3.859375 -2.453125 "/></g></g></g><g fill="#000000" fill-opacity="1"><g transform="translate(18.3267, 23.743652)"><g><path d="M 4.046875 -2.140625 L 1.078125 1.015625 L 0.328125 0.3125 L 3.296875 -2.84375 Z M 4.046875 -2.140625 "/></g></g></g><g fill="#000000" fill-opacity="1"><g transform="translate(21.122663, 20.759387)"><g><path d="M 4.21875 -1.796875 L 1 1.109375 L 0.296875 0.34375 L 3.515625 -2.5625 Z M 4.21875 -1.796875 "/></g></g></g><g fill="#000000" fill-opacity="1"><g transform="translate(24.152429, 18.012795)"><g><path d="M 4.34375 -1.453125 L 0.90625 1.171875 L 0.28125 0.359375 L 3.71875 -2.265625 Z M 4.34375 -1.453125 "/></g></g></g><g fill="#000000" fill-opacity="1"><g transform="translate(27.39586, 15.522132)"><g><path d="M 4.4375 -1.09375 L 0.796875 1.25 L 0.25 0.375 L 3.890625 -1.96875 Z M 4.4375 -1.09375 "/></g></g></g><g fill="#000000" fill-opacity="1"><g transform="translate(30.831399, 13.303955)"><g><path d="M 4.515625 -0.71875 L 0.703125 1.3125 L 0.21875 0.40625 L 4.03125 -1.625 Z M 4.515625 -0.71875 "/></g></g></g><g fill="#000000" fill-opacity="1"><g transform="translate(34.436213, 11.373006)"><g><path d="M 4.5625 -0.359375 L 0.59375 1.359375 L 0.171875 0.421875 L 4.140625 -1.296875 Z M 4.5625 -0.359375 "/></g></g></g><g fill="#000000" fill-opacity="1"><g transform="translate(38.186342, 9.742119)"><g><path d="M 4.5625 0.015625 L 0.46875 1.40625 L 0.140625 0.421875 L 4.234375 -0.96875 Z M 4.5625 0.015625 "/></g></g></g><g fill="#000000" fill-opacity="1"><g transform="translate(42.056859, 8.422135)"><g><path d="M 4.5625 0.390625 L 0.359375 1.4375 L 0.109375 0.4375 L 4.3125 -0.609375 Z M 4.5625 0.390625 "/></g></g></g><g fill="#000000" fill-opacity="1"><g transform="translate(46.022034, 7.421826)"><g><path d="M 4.5 0.765625 L 0.234375 1.46875 L 0.078125 0.453125 L 4.34375 -0.25 Z M 4.5 0.765625 "/></g></g></g><g fill="#000000" fill-opacity="1"><g transform="translate(50.055519, 6.747842)"><g><path d="M 4.4375 1.125 L 0.125 1.484375 L 0.03125 0.453125 L 4.34375 0.09375 Z M 4.4375 1.125 "/></g></g></g><g fill="#000000" fill-opacity="1"><g transform="translate(54.105927, 6.404663)"><g><path d="M 4.328125 1.484375 L 0 1.484375 L 0 0.453125 L 4.328125 0.453125 Z M 4.328125 1.484375 "/></g></g></g><g fill="#000000" fill-opacity="1"><g transform="translate(58.219895, 6.394568)"><g><path d="M 4.1875 1.84375 L -0.125 1.484375 L -0.03125 0.453125 L 4.28125 0.8125 Z M 4.1875 1.84375 "/></g></g></g><g fill="#000000" fill-opacity="1"><g transform="translate(62.296518, 6.717627)"><g><path d="M 4.03125 2.171875 L -0.234375 1.46875 L -0.078125 0.453125 L 4.1875 1.15625 Z M 4.03125 2.171875 "/></g></g></g><g fill="#000000" fill-opacity="1"><g transform="translate(66.333286, 7.37169)"><g><path d="M 3.84375 2.484375 L -0.359375 1.4375 L -0.109375 0.4375 L 4.09375 1.484375 Z M 3.84375 2.484375 "/></g></g></g><g fill="#000000" fill-opacity="1"><g transform="translate(70.30335, 8.352411)"><g><path d="M 3.625 2.796875 L -0.46875 1.40625 L -0.140625 0.421875 L 3.953125 1.8125 Z M 3.625 2.796875 "/></g></g></g><g fill="#000000" fill-opacity="1"><g transform="translate(74.180338, 9.653272)"><g><path d="M 3.375 3.078125 L -0.59375 1.359375 L -0.171875 0.421875 L 3.796875 2.140625 Z M 3.375 3.078125 "/></g></g></g><g fill="#000000" fill-opacity="1"><g transform="translate(77.938463, 11.265625)"><g><path d="M 3.109375 3.34375 L -0.703125 1.3125 L -0.21875 0.40625 L 3.59375 2.4375 Z M 3.109375 3.34375 "/></g></g></g><g fill="#000000" fill-opacity="1"><g transform="translate(81.552769, 13.178754)"><g><path d="M 2.84375 3.59375 L -0.796875 1.25 L -0.25 0.375 L 3.390625 2.71875 Z M 2.84375 3.59375 "/></g></g></g><g fill="#000000" fill-opacity="1"><g transform="translate(84.999217, 15.379944)"><g><path d="M 2.53125 3.796875 L -0.90625 1.171875 L -0.28125 0.359375 L 3.15625 2.984375 Z M 2.53125 3.796875 "/></g></g></g><g fill="#000000" fill-opacity="1"><g transform="translate(88.254904, 17.854565)"><g><path d="M 2.21875 4.015625 L -1 1.109375 L -0.296875 0.34375 L 2.921875 3.25 Z M 2.21875 4.015625 "/></g></g></g><g fill="#000000" fill-opacity="1"><g transform="translate(91.298203, 20.586165)"><g><path d="M 1.890625 4.171875 L -1.078125 1.015625 L -0.328125 0.3125 L 2.640625 3.46875 Z M 1.890625 4.171875 "/></g></g></g><g fill="#000000" fill-opacity="1"><g transform="translate(94.108862, 23.556593)"><g><path d="M 1.546875 4.296875 L -1.15625 0.921875 L -0.359375 0.28125 L 2.34375 3.65625 Z M 1.546875 4.296875 "/></g></g></g><g fill="#000000" fill-opacity="1"><g transform="translate(96.668209, 26.746104)"><g><path d="M 1.1875 4.421875 L -1.234375 0.828125 L -0.375 0.25 L 2.046875 3.84375 Z M 1.1875 4.421875 "/></g></g></g><g fill="#000000" fill-opacity="1"><g transform="translate(98.959241, 30.133496)"><g><path d="M 0.8125 4.5 L -1.296875 0.71875 L -0.390625 0.21875 L 1.71875 4 Z M 0.8125 4.5 "/></g></g></g><g fill="#000000" fill-opacity="1"><g transform="translate(100.966716, 33.696256)"><g><path d="M 0.453125 4.5625 L -1.34375 0.625 L -0.40625 0.1875 L 1.390625 4.125 Z M 0.453125 4.5625 "/></g></g></g><g fill="#000000" fill-opacity="1"><g transform="translate(102.677314, 37.410705)"><g><path d="M 0.078125 4.5625 L -1.390625 0.5 L -0.421875 0.15625 L 1.046875 4.21875 Z M 0.078125 4.5625 "/></g></g></g><g fill="#000000" fill-opacity="1"><g transform="translate(104.079648, 41.25215)"><g><path d="M -0.296875 4.5625 L -1.4375 0.390625 L -0.4375 0.125 L 0.703125 4.296875 Z M -0.296875 4.5625 "/></g></g></g><g fill="#000000" fill-opacity="1"><g transform="translate(105.164389, 45.195065)"><g><path d="M -0.65625 4.515625 L -1.453125 0.265625 L -0.453125 0.078125 L 0.34375 4.328125 Z M -0.65625 4.515625 "/></g></g></g><g fill="#000000" fill-opacity="1"><g transform="translate(110.261479, 61.038499)"><g><path d="M -2.0625 4.078125 L -1.46875 -0.203125 L -0.453125 -0.0625 L -1.046875 4.21875 Z M -2.0625 4.078125 "/></g></g></g><g fill="#000000" fill-opacity="1"><g transform="translate(109.711073, 65.108587)"><g><path d="M -2.359375 3.921875 L -1.453125 -0.3125 L -0.4375 -0.09375 L -1.34375 4.140625 Z M -2.359375 3.921875 "/></g></g></g><g fill="#000000" fill-opacity="1"><g transform="translate(108.855294, 69.125575)"><g><path d="M -2.65625 3.734375 L -1.421875 -0.421875 L -0.4375 -0.125 L -1.671875 4.03125 Z M -2.65625 3.734375 "/></g></g></g><g fill="#000000" fill-opacity="1"><g transform="translate(107.699, 73.066576)"><g><path d="M -2.921875 3.515625 L -1.390625 -0.53125 L -0.421875 -0.15625 L -1.953125 3.890625 Z M -2.921875 3.515625 "/></g></g></g><g fill="#000000" fill-opacity="1"><g transform="translate(106.248779, 76.909163)"><g><path d="M -3.1875 3.296875 L -1.34375 -0.625 L -0.40625 -0.1875 L -2.25 3.734375 Z M -3.1875 3.296875 "/></g></g></g><g fill="#000000" fill-opacity="1"><g transform="translate(104.512904, 80.63144)"><g><path d="M -3.421875 3.03125 L -1.296875 -0.734375 L -0.390625 -0.21875 L -2.515625 3.546875 Z M -3.421875 3.03125 "/></g></g></g><g fill="#000000" fill-opacity="1"><g transform="translate(102.501234, 84.212197)"><g><path d="M -3.640625 2.765625 L -1.234375 -0.828125 L -0.375 -0.25 L -2.78125 3.34375 Z M -3.640625 2.765625 "/></g></g></g><g fill="#000000" fill-opacity="1"><g transform="translate(100.225262, 87.631041)"><g><path d="M -3.84375 2.484375 L -1.171875 -0.921875 L -0.359375 -0.28125 L -3.03125 3.125 Z M -3.84375 2.484375 "/></g></g></g><g fill="#000000" fill-opacity="1"><g transform="translate(97.69793, 90.8685)"><g><path d="M -4.015625 2.1875 L -1.09375 -1 L -0.328125 -0.3125 L -3.25 2.875 Z M -4.015625 2.1875 "/></g></g></g><g fill="#000000" fill-opacity="1"><g transform="translate(94.933653, 93.906152)"><g><path d="M -4.171875 1.890625 L -1.015625 -1.078125 L -0.3125 -0.328125 L -3.46875 2.640625 Z M -4.171875 1.890625 "/></g></g></g><g fill="#000000" fill-opacity="1"><g transform="translate(91.948134, 96.726664)"><g><path d="M -4.296875 1.5625 L -0.9375 -1.15625 L -0.28125 -0.359375 L -3.640625 2.359375 Z M -4.296875 1.5625 "/></g></g></g><g fill="#000000" fill-opacity="1"><g transform="translate(88.758431, 99.314006)"><g><path d="M -4.40625 1.234375 L -0.84375 -1.21875 L -0.25 -0.375 L -3.8125 2.078125 Z M -4.40625 1.234375 "/></g></g></g><g fill="#000000" fill-opacity="1"><g transform="translate(85.382671, 101.653412)"><g><path d="M -4.484375 0.90625 L -0.75 -1.28125 L -0.234375 -0.390625 L -3.96875 1.796875 Z M -4.484375 0.90625 "/></g></g></g><g fill="#000000" fill-opacity="1"><g transform="translate(81.840097, 103.731576)"><g><path d="M -4.546875 0.5625 L -0.65625 -1.328125 L -0.203125 -0.40625 L -4.09375 1.484375 Z M -4.546875 0.5625 "/></g></g></g><g fill="#000000" fill-opacity="1"><g transform="translate(78.15088, 105.536652)"><g><path d="M -4.578125 0.21875 L -0.546875 -1.375 L -0.171875 -0.421875 L -4.203125 1.171875 Z M -4.578125 0.21875 "/></g></g></g><g fill="#000000" fill-opacity="1"><g transform="translate(74.336047, 107.058356)"><g><path d="M -4.5625 -0.140625 L -0.4375 -1.421875 L -0.140625 -0.4375 L -4.265625 0.84375 Z M -4.5625 -0.140625 "/></g></g></g><g fill="#000000" fill-opacity="1"><g transform="translate(70.417313, 108.288034)"><g><path d="M -4.546875 -0.484375 L -0.328125 -1.453125 L -0.109375 -0.4375 L -4.328125 0.53125 Z M -4.546875 -0.484375 "/></g></g></g><g fill="#000000" fill-opacity="1"><g transform="translate(66.417003, 109.218677)"><g><path d="M -4.5 -0.8125 L -0.21875 -1.46875 L -0.0625 -0.453125 L -4.34375 0.203125 Z M -4.5 -0.8125 "/></g></g></g><g fill="#000000" fill-opacity="1"><g transform="translate(62.357895, 109.844966)"><g><path d="M -4.421875 -1.15625 L -0.109375 -1.484375 L -0.03125 -0.453125 L -4.34375 -0.125 Z M -4.421875 -1.15625 "/></g></g></g><g fill="#000000" fill-opacity="1"><g transform="translate(58.435119, 110.163362)"><g><path d="M -4.328125 -1.484375 L 0 -1.484375 L 0 -0.453125 L -4.328125 -0.453125 Z M -4.328125 -1.484375 "/></g></g></g><g fill="#000000" fill-opacity="1"><g transform="translate(54.155993, 110.172039)"><g><path d="M -4.203125 -1.8125 L 0.109375 -1.484375 L 0.03125 -0.453125 L -4.28125 -0.78125 Z M -4.203125 -1.8125 "/></g></g></g><g fill="#000000" fill-opacity="1"><g transform="translate(50.059902, 109.870944)"><g><path d="M -4.0625 -2.125 L 0.21875 -1.46875 L 0.0625 -0.453125 L -4.21875 -1.109375 Z M -4.0625 -2.125 "/></g></g></g><g fill="#000000" fill-opacity="1"><g transform="translate(45.99819, 109.261788)"><g><path d="M -3.890625 -2.421875 L 0.328125 -1.453125 L 0.109375 -0.4375 L -4.109375 -1.40625 Z M -3.890625 -2.421875 "/></g></g></g><g fill="#000000" fill-opacity="1"><g transform="translate(41.993985, 108.34806)"><g><path d="M -3.6875 -2.703125 L 0.4375 -1.421875 L 0.140625 -0.4375 L -3.984375 -1.71875 Z M -3.6875 -2.703125 "/></g></g></g><g fill="#000000" fill-opacity="1"><g transform="translate(38.070092, 107.134951)"><g><path d="M -3.484375 -2.96875 L 0.546875 -1.375 L 0.171875 -0.421875 L -3.859375 -2.015625 Z M -3.484375 -2.96875 "/></g></g></g><g fill="#000000" fill-opacity="1"><g transform="translate(34.24886, 105.629358)"><g><path d="M -3.234375 -3.21875 L 0.65625 -1.328125 L 0.203125 -0.40625 L -3.6875 -2.296875 Z M -3.234375 -3.21875 "/></g></g></g><g fill="#000000" fill-opacity="1"><g transform="translate(30.552057, 103.839884)"><g><path d="M -2.984375 -3.46875 L 0.75 -1.28125 L 0.234375 -0.390625 L -3.5 -2.578125 Z M -2.984375 -3.46875 "/></g></g></g><g fill="#000000" fill-opacity="1"><g transform="translate(27.00074, 101.776707)"><g><path d="M -2.71875 -3.671875 L 0.84375 -1.21875 L 0.25 -0.375 L -3.3125 -2.828125 Z M -2.71875 -3.671875 "/></g></g></g><g fill="#000000" fill-opacity="1"><g transform="translate(23.615132, 99.451571)"><g><path d="M -2.421875 -3.875 L 0.9375 -1.15625 L 0.28125 -0.359375 L -3.078125 -3.078125 Z M -2.421875 -3.875 "/></g></g></g><g fill="#000000" fill-opacity="1"><g transform="translate(20.414515, 96.877738)"><g><path d="M -2.140625 -4.046875 L 1.015625 -1.078125 L 0.3125 -0.328125 L -2.84375 -3.296875 Z M -2.140625 -4.046875 "/></g></g></g><g fill="#000000" fill-opacity="1"><g transform="translate(17.417127, 94.069845)"><g><path d="M -1.828125 -4.1875 L 1.09375 -1 L 0.328125 -0.3125 L -2.59375 -3.5 Z M -1.828125 -4.1875 "/></g></g></g><g fill="#000000" fill-opacity="1"><g transform="translate(14.640033, 91.043901)"><g><path d="M -1.5 -4.328125 L 1.171875 -0.921875 L 0.359375 -0.28125 L -2.3125 -3.6875 Z M -1.5 -4.328125 "/></g></g></g><g fill="#000000" fill-opacity="1"><g transform="translate(12.099051, 87.817144)"><g><path d="M -1.171875 -4.421875 L 1.234375 -0.828125 L 0.375 -0.25 L -2.03125 -3.84375 Z M -1.171875 -4.421875 "/></g></g></g><g fill="#000000" fill-opacity="1"><g transform="translate(9.808657, 84.407942)"><g><path d="M -0.828125 -4.5 L 1.296875 -0.734375 L 0.390625 -0.21875 L -1.734375 -3.984375 Z M -0.828125 -4.5 "/></g></g></g><g fill="#000000" fill-opacity="1"><g transform="translate(7.781894, 80.835715)"><g><path d="M -0.5 -4.546875 L 1.34375 -0.625 L 0.40625 -0.1875 L -1.4375 -4.109375 Z M -0.5 -4.546875 "/></g></g></g><g fill="#000000" fill-opacity="1"><g transform="translate(6.030306, 77.12081)"><g><path d="M -0.140625 -4.578125 L 1.390625 -0.53125 L 0.421875 -0.15625 L -1.109375 -4.203125 Z M -0.140625 -4.578125 "/></g></g></g><g fill="#000000" fill-opacity="1"><g transform="translate(4.563869, 73.284385)"><g><path d="M 0.1875 -4.578125 L 1.421875 -0.421875 L 0.4375 -0.125 L -0.796875 -4.28125 Z M 0.1875 -4.578125 "/></g></g></g><g fill="#000000" fill-opacity="1"><g transform="translate(3.390941, 69.348294)"><g><path d="M 0.546875 -4.546875 L 1.453125 -0.3125 L 0.4375 -0.09375 L -0.46875 -4.328125 Z M 0.546875 -4.546875 "/></g></g></g><g fill="#000000" fill-opacity="1"><g transform="translate(2.518198, 65.334959)"><g><path d="M 0.875 -4.484375 L 1.46875 -0.203125 L 0.453125 -0.0625 L -0.140625 -4.34375 Z M 0.875 -4.484375 "/></g></g></g><g fill="#000000" fill-opacity="1"><g transform="translate(105.855754, 63.033586)"><g><path d="M -2.25 3.984375 L -1.453125 -0.265625 L -0.453125 -0.078125 L -1.25 4.171875 Z M -2.25 3.984375 "/></g></g></g><g fill="#000000" fill-opacity="1"><g transform="translate(105.115631, 67.05546)"><g><path d="M -2.578125 3.78125 L -1.4375 -0.390625 L -0.4375 -0.125 L -1.578125 4.046875 Z M -2.578125 3.78125 "/></g></g></g><g fill="#000000" fill-opacity="1"><g transform="translate(104.050376, 71.003682)"><g><path d="M -2.859375 3.5625 L -1.390625 -0.5 L -0.421875 -0.15625 L -1.890625 3.90625 Z M -2.859375 3.5625 "/></g></g></g><g fill="#000000" fill-opacity="1"><g transform="translate(102.667028, 74.852009)"><g><path d="M -3.140625 3.3125 L -1.34375 -0.625 L -0.40625 -0.1875 L -2.203125 3.75 Z M -3.140625 3.3125 "/></g></g></g><g fill="#000000" fill-opacity="1"><g transform="translate(100.974791, 78.574852)"><g><path d="M -3.40625 3.0625 L -1.296875 -0.71875 L -0.390625 -0.21875 L -2.5 3.5625 Z M -3.40625 3.0625 "/></g></g></g><g fill="#000000" fill-opacity="1"><g transform="translate(98.984918, 82.147478)"><g><path d="M -3.65625 2.765625 L -1.234375 -0.828125 L -0.375 -0.25 L -2.796875 3.34375 Z M -3.65625 2.765625 "/></g></g></g><g fill="#000000" fill-opacity="1"><g transform="translate(96.710636, 85.546141)"><g><path d="M -3.859375 2.453125 L -1.15625 -0.921875 L -0.359375 -0.28125 L -3.0625 3.09375 Z M -3.859375 2.453125 "/></g></g></g><g fill="#000000" fill-opacity="1"><g transform="translate(94.167062, 88.748251)"><g><path d="M -4.046875 2.140625 L -1.078125 -1.015625 L -0.328125 -0.3125 L -3.296875 2.84375 Z M -4.046875 2.140625 "/></g></g></g><g fill="#000000" fill-opacity="1"><g transform="translate(91.371103, 91.732515)"><g><path d="M -4.21875 1.796875 L -1 -1.109375 L -0.296875 -0.34375 L -3.515625 2.5625 Z M -4.21875 1.796875 "/></g></g></g><g fill="#000000" fill-opacity="1"><g transform="translate(88.341331, 94.47911)"><g><path d="M -4.34375 1.453125 L -0.90625 -1.171875 L -0.28125 -0.359375 L -3.71875 2.265625 Z M -4.34375 1.453125 "/></g></g></g><g fill="#000000" fill-opacity="1"><g transform="translate(85.097902, 96.969773)"><g><path d="M -4.4375 1.09375 L -0.796875 -1.25 L -0.25 -0.375 L -3.890625 1.96875 Z M -4.4375 1.09375 "/></g></g></g><g fill="#000000" fill-opacity="1"><g transform="translate(81.662362, 99.187943)"><g><path d="M -4.515625 0.71875 L -0.703125 -1.3125 L -0.21875 -0.40625 L -4.03125 1.625 Z M -4.515625 0.71875 "/></g></g></g><g fill="#000000" fill-opacity="1"><g transform="translate(78.057554, 101.118899)"><g><path d="M -4.5625 0.359375 L -0.59375 -1.359375 L -0.171875 -0.421875 L -4.140625 1.296875 Z M -4.5625 0.359375 "/></g></g></g><g fill="#000000" fill-opacity="1"><g transform="translate(74.307421, 102.749779)"><g><path d="M -4.5625 -0.015625 L -0.46875 -1.40625 L -0.140625 -0.421875 L -4.234375 0.96875 Z M -4.5625 -0.015625 "/></g></g></g><g fill="#000000" fill-opacity="1"><g transform="translate(70.436903, 104.069774)"><g><path d="M -4.5625 -0.390625 L -0.359375 -1.4375 L -0.109375 -0.4375 L -4.3125 0.609375 Z M -4.5625 -0.390625 "/></g></g></g><g fill="#000000" fill-opacity="1"><g transform="translate(66.471729, 105.070072)"><g><path d="M -4.5 -0.765625 L -0.234375 -1.46875 L -0.078125 -0.453125 L -4.34375 0.25 Z M -4.5 -0.765625 "/></g></g></g><g fill="#000000" fill-opacity="1"><g transform="translate(62.438244, 105.744059)"><g><path d="M -4.4375 -1.125 L -0.125 -1.484375 L -0.03125 -0.453125 L -4.34375 -0.09375 Z M -4.4375 -1.125 "/></g></g></g><g fill="#000000" fill-opacity="1"><g transform="translate(58.387836, 106.087241)"><g><path d="M -4.328125 -1.484375 L 0 -1.484375 L 0 -0.453125 L -4.328125 -0.453125 Z M -4.328125 -1.484375 "/></g></g></g><g fill="#000000" fill-opacity="1"><g transform="translate(54.273868, 106.097324)"><g><path d="M -4.1875 -1.84375 L 0.125 -1.484375 L 0.03125 -0.453125 L -4.28125 -0.8125 Z M -4.1875 -1.84375 "/></g></g></g><g fill="#000000" fill-opacity="1"><g transform="translate(50.197242, 105.77428)"><g><path d="M -4.03125 -2.171875 L 0.234375 -1.46875 L 0.078125 -0.453125 L -4.1875 -1.15625 Z M -4.03125 -2.171875 "/></g></g></g><g fill="#000000" fill-opacity="1"><g transform="translate(46.160477, 105.12021)"><g><path d="M -3.84375 -2.484375 L 0.359375 -1.4375 L 0.109375 -0.4375 L -4.09375 -1.484375 Z M -3.84375 -2.484375 "/></g></g></g><g fill="#000000" fill-opacity="1"><g transform="translate(42.190414, 104.139495)"><g><path d="M -3.625 -2.796875 L 0.46875 -1.40625 L 0.140625 -0.421875 L -3.953125 -1.8125 Z M -3.625 -2.796875 "/></g></g></g><g fill="#000000" fill-opacity="1"><g transform="translate(38.313425, 102.838636)"><g><path d="M -3.375 -3.078125 L 0.59375 -1.359375 L 0.171875 -0.421875 L -3.796875 -2.140625 Z M -3.375 -3.078125 "/></g></g></g><g fill="#000000" fill-opacity="1"><g transform="translate(34.555296, 101.226273)"><g><path d="M -3.109375 -3.34375 L 0.703125 -1.3125 L 0.21875 -0.40625 L -3.59375 -2.4375 Z M -3.109375 -3.34375 "/></g></g></g><g fill="#000000" fill-opacity="1"><g transform="translate(30.940992, 99.313144)"><g><path d="M -2.84375 -3.59375 L 0.796875 -1.25 L 0.25 -0.375 L -3.390625 -2.71875 Z M -2.84375 -3.59375 "/></g></g></g><g fill="#000000" fill-opacity="1"><g transform="translate(27.494544, 97.111957)"><g><path d="M -2.53125 -3.796875 L 0.90625 -1.171875 L 0.28125 -0.359375 L -3.15625 -2.984375 Z M -2.53125 -3.796875 "/></g></g></g><g fill="#000000" fill-opacity="1"><g transform="translate(24.238856, 94.63733)"><g><path d="M -2.21875 -4.015625 L 1 -1.109375 L 0.296875 -0.34375 L -2.921875 -3.25 Z M -2.21875 -4.015625 "/></g></g></g><g fill="#000000" fill-opacity="1"><g transform="translate(21.195568, 91.905728)"><g><path d="M -1.890625 -4.171875 L 1.078125 -1.015625 L 0.328125 -0.3125 L -2.640625 -3.46875 Z M -1.890625 -4.171875 "/></g></g></g><g fill="#000000" fill-opacity="1"><g transform="translate(18.384908, 88.935308)"><g><path d="M -1.546875 -4.296875 L 1.15625 -0.921875 L 0.359375 -0.28125 L -2.34375 -3.65625 Z M -1.546875 -4.296875 "/></g></g></g><g fill="#000000" fill-opacity="1"><g transform="translate(15.825555, 85.745796)"><g><path d="M -1.1875 -4.421875 L 1.234375 -0.828125 L 0.375 -0.25 L -2.046875 -3.84375 Z M -1.1875 -4.421875 "/></g></g></g><g fill="#000000" fill-opacity="1"><g transform="translate(13.534524, 82.358405)"><g><path d="M -0.8125 -4.5 L 1.296875 -0.71875 L 0.390625 -0.21875 L -1.71875 -4 Z M -0.8125 -4.5 "/></g></g></g><g fill="#000000" fill-opacity="1"><g transform="translate(11.527042, 78.795648)"><g><path d="M -0.453125 -4.5625 L 1.34375 -0.625 L 0.40625 -0.1875 L -1.390625 -4.125 Z M -0.453125 -4.5625 "/></g></g></g><g fill="#000000" fill-opacity="1"><g transform="translate(9.816453, 75.081198)"><g><path d="M -0.078125 -4.5625 L 1.390625 -0.5 L 0.421875 -0.15625 L -1.046875 -4.21875 Z M -0.078125 -4.5625 "/></g></g></g><g fill="#000000" fill-opacity="1"><g transform="translate(8.414121, 71.23975)"><g><path d="M 0.296875 -4.5625 L 1.4375 -0.390625 L 0.4375 -0.125 L -0.703125 -4.296875 Z M 0.296875 -4.5625 "/></g></g></g><g fill="#000000" fill-opacity="1"><g transform="translate(7.329373, 67.296838)"><g><path d="M 0.65625 -4.515625 L 1.453125 -0.265625 L 0.453125 -0.078125 L -0.34375 -4.328125 Z M 0.65625 -4.515625 "/></g></g></g><g clip-path="url(#02eaa54928)"><g clip-path="url(#a516895b10)"><path fill="#000000" d="M 105.101562 53.695312 L 109.742188 53.695312 L 109.742188 58.332031 L 105.101562 58.332031 Z M 105.101562 53.695312 " fill-opacity="1" fill-rule="nonzero"/></g></g><path fill="#000000" d="M 41.800781 39.996094 C 43.25 39.796875 44.390625 39.078125 44.386719 37.355469 C 44.347656 35.925781 42.945312 34.492188 41.578125 34.667969 C 40.105469 34.855469 38.984375 35.582031 38.992188 37.296875 C 38.996094 38.730469 40.410156 40.183594 41.800781 39.996094 " fill-opacity="1" fill-rule="nonzero"/><path fill="#000000" d="M 54.320312 38.394531 C 56.042969 38.40625 56.738281 37.402344 56.933594 35.988281 C 56.90625 34.214844 55.941406 33.511719 54.441406 33.464844 C 52.847656 33.414062 51.917969 34.351562 51.957031 35.84375 C 51.992188 37.199219 52.605469 38.386719 54.320312 38.394531 " fill-opacity="1" fill-rule="nonzero"/><g clip-path="url(#c25edeaf3d)"><path fill="#000000" d="M 42.945312 85.144531 C 44.222656 85.144531 45.457031 85.507812 46.597656 86.621094 L 46.71875 86.738281 L 46.777344 86.898438 C 47.46875 88.824219 47.375 90.851562 46.492188 92.921875 C 46.320312 93.324219 46.277344 93.675781 46.378906 93.886719 C 46.449219 94.035156 46.617188 94.148438 46.878906 94.222656 C 47.285156 94.34375 47.460938 94.242188 47.519531 94.210938 C 47.734375 94.089844 47.917969 93.785156 48.039062 93.355469 C 48.070312 93.230469 48.089844 93.085938 48.105469 92.941406 C 48.179688 92.378906 48.332031 91.203125 49.636719 91.117188 C 51.039062 91.011719 51.527344 92.324219 51.785156 93.027344 L 51.835938 93.160156 C 52.019531 93.660156 52.265625 93.996094 52.5 94.078125 C 52.679688 94.140625 52.917969 94.082031 53.214844 93.910156 C 53.371094 93.816406 53.566406 93.675781 53.597656 93.523438 C 53.625 93.375 53.5625 93.070312 53.085938 92.429688 C 52.984375 92.292969 52.871094 92.15625 52.761719 92.023438 C 52.3125 91.484375 51.800781 90.871094 51.722656 89.964844 L 51.695312 89.644531 L 51.90625 89.40625 C 52.371094 88.875 52.945312 88.921875 53.257812 88.949219 C 53.320312 88.953125 53.40625 88.957031 53.433594 88.957031 C 53.777344 88.839844 53.875 88.652344 53.910156 88.414062 C 53.925781 88.328125 53.953125 88.152344 53.652344 87.976562 C 53.347656 87.796875 53.03125 87.632812 52.714844 87.46875 C 52.300781 87.257812 51.871094 87.035156 51.460938 86.773438 C 50.222656 85.996094 50.167969 85.105469 50.34375 84.496094 C 50.652344 83.402344 51.785156 83.179688 52.160156 83.105469 C 52.371094 83.0625 52.585938 83.03125 52.804688 83.003906 C 53.046875 82.96875 53.289062 82.9375 53.527344 82.878906 C 53.945312 82.777344 54.152344 82.636719 54.203125 82.535156 C 54.246094 82.460938 54.214844 82.328125 54.179688 82.230469 C 54.132812 82.089844 54.070312 82 54 81.96875 C 53.890625 81.921875 53.632812 81.925781 53.234375 82.09375 C 52.9375 82.21875 52.644531 82.363281 52.351562 82.503906 C 52.117188 82.621094 51.886719 82.734375 51.648438 82.839844 C 51.160156 83.0625 50.25 83.472656 49.382812 82.800781 C 48.386719 82.027344 48.652344 80.898438 48.765625 80.417969 C 48.8125 80.226562 48.886719 80.039062 48.964844 79.855469 C 49.167969 79.367188 49.171875 79.105469 49.125 79.011719 C 49.089844 78.945312 48.960938 78.882812 48.785156 78.839844 C 48.542969 78.789062 48.359375 78.800781 48.246094 78.882812 C 48.082031 79 47.964844 79.289062 47.917969 79.679688 C 47.910156 79.777344 47.910156 79.898438 47.910156 80.03125 C 47.90625 80.824219 47.898438 82.292969 46.433594 83.097656 C 45.9375 83.371094 43.292969 83.476562 43.101562 83.476562 L 43.097656 83.476562 L 42.941406 83.46875 C 40.574219 83.421875 38.644531 82.949219 36.917969 81.984375 C 34.386719 80.574219 32.835938 78.140625 32.773438 75.480469 C 32.710938 72.949219 33.984375 70.683594 36.269531 69.257812 C 40.871094 66.382812 45.824219 65.945312 50.59375 67.984375 L 50.753906 68.054688 C 52.425781 68.769531 53.347656 69.164062 53.890625 69.015625 C 54.441406 68.863281 55.09375 67.984375 56.179688 66.535156 C 56.261719 66.421875 56.339844 66.308594 56.421875 66.195312 C 56.589844 65.960938 56.757812 65.722656 56.945312 65.5 C 60.695312 61 64.675781 58.574219 69.472656 57.859375 C 71.980469 57.488281 74.453125 58.234375 76.082031 59.859375 C 77.539062 61.308594 78.171875 63.269531 77.867188 65.378906 C 77.496094 67.953125 76.351562 70.394531 75.246094 72.757812 L 74.925781 73.441406 C 74.3125 74.757812 73.109375 76.675781 71.949219 78.535156 C 71.082031 79.914062 70.265625 81.21875 69.742188 82.191406 L 69.667969 82.316406 C 69.472656 82.667969 69.242188 83.027344 69.019531 83.371094 C 68.726562 83.828125 68.425781 84.300781 68.230469 84.726562 C 68.007812 85.21875 67.808594 85.921875 68.132812 86.5 C 68.398438 86.972656 68.980469 87.28125 69.78125 87.375 C 70.722656 87.488281 71.527344 87.304688 72.246094 86.816406 C 73.441406 86.003906 74.625 85.171875 75.800781 84.332031 C 76.859375 83.578125 77.898438 82.796875 78.9375 82.015625 C 83.730469 78.414062 88.6875 74.6875 95.175781 73.796875 C 95.324219 73.777344 95.785156 73.710938 95.675781 72.925781 C 95.609375 72.414062 95.347656 72.167969 94.851562 72.144531 C 94.433594 72.125 93.945312 72.277344 93.523438 72.421875 C 92.675781 72.710938 91.394531 73.148438 90.421875 71.972656 C 89.429688 70.78125 90.230469 69.757812 90.660156 69.210938 C 90.742188 69.105469 90.824219 69.003906 90.894531 68.898438 C 90.976562 68.777344 91.074219 68.664062 91.171875 68.554688 C 91.25 68.460938 91.328125 68.371094 91.367188 68.304688 C 91.875 67.386719 91.40625 67.101562 91.15625 66.945312 C 90.914062 66.796875 90.699219 66.746094 90.515625 66.792969 C 90.296875 66.847656 90.085938 67.046875 89.910156 67.359375 C 89.703125 67.726562 89.546875 68.148438 89.386719 68.589844 C 89.261719 68.929688 89.136719 69.269531 88.984375 69.597656 L 88.886719 69.820312 C 88.632812 70.417969 88.191406 71.40625 87.121094 71.363281 C 86.679688 71.339844 86.339844 71.191406 86.105469 70.914062 C 85.746094 70.484375 85.816406 69.941406 85.859375 69.582031 C 85.871094 69.480469 85.890625 69.328125 85.886719 69.277344 C 85.644531 68.171875 85.277344 68.152344 84.789062 68.253906 C 84.515625 68.308594 84.332031 68.402344 84.25 68.539062 C 84.140625 68.710938 84.136719 69.011719 84.230469 69.394531 L 84.273438 69.550781 C 84.316406 69.714844 84.359375 69.882812 84.390625 70.050781 C 84.519531 70.753906 84.679688 71.632812 84.085938 72.425781 C 83.75 72.867188 83.070312 72.875 82.859375 72.839844 C 82.097656 72.722656 81.753906 72.210938 81.6875 71.8125 L 81.679688 71.722656 C 81.628906 70.292969 81.957031 68.917969 82.285156 67.761719 C 82.570312 66.753906 82.800781 65.65625 82.992188 64.414062 C 83.730469 59.570312 80.28125 54.652344 75.460938 53.679688 C 69.558594 52.488281 64.046875 53.960938 57.582031 58.457031 C 57.203125 58.722656 56.816406 58.984375 56.359375 59.296875 L 54.644531 60.464844 L 54.402344 59.410156 C 54.269531 58.839844 54.128906 58.300781 53.996094 57.785156 C 53.671875 56.535156 53.367188 55.355469 53.277344 54.148438 C 53.203125 53.167969 54.238281 51.902344 55.132812 51.558594 C 56.355469 51.089844 57.625 50.71875 58.847656 50.359375 C 59.898438 50.050781 60.984375 49.730469 62.019531 49.355469 C 67.105469 47.511719 70.597656 44.640625 72.695312 40.582031 C 72.996094 40.078125 73.070312 39.785156 73.164062 39.40625 C 73.671875 37.378906 74.105469 36.457031 76.136719 36.164062 L 76.773438 36.066406 C 78.371094 35.824219 80.019531 35.574219 81.753906 35.953125 C 82.253906 36.0625 82.683594 36.027344 82.902344 35.855469 C 82.957031 35.8125 83.121094 35.6875 83.140625 35.25 C 83.160156 34.765625 83 34.609375 82.949219 34.554688 C 82.730469 34.339844 82.269531 34.246094 81.652344 34.285156 C 81.484375 34.292969 81.316406 34.324219 81.148438 34.351562 C 80.839844 34.398438 80.488281 34.457031 80.121094 34.433594 C 78.503906 34.332031 77.449219 33.648438 76.988281 32.40625 C 76.527344 31.148438 76.953125 30.027344 78.257812 29.066406 C 79.019531 28.507812 79.085938 28.238281 78.9375 27.851562 C 78.871094 27.679688 78.675781 27.160156 77.804688 27.109375 C 77.335938 27.078125 76.855469 27.179688 76.542969 28.078125 C 76.515625 28.160156 76.488281 28.246094 76.460938 28.332031 C 76.378906 28.601562 76.285156 28.90625 76.105469 29.195312 C 75.484375 30.1875 74.449219 31.847656 72.546875 31.894531 C 70.914062 31.9375 70.753906 30.5625 70.664062 29.902344 C 70.632812 29.652344 70.597656 29.390625 70.527344 29.253906 C 70.335938 28.867188 70.09375 28.613281 69.84375 28.527344 C 69.640625 28.460938 69.402344 28.496094 69.136719 28.632812 C 68.871094 28.765625 68.714844 28.917969 68.671875 29.085938 C 68.617188 29.304688 68.726562 29.636719 68.976562 30.003906 C 69.042969 30.101562 69.117188 30.203125 69.1875 30.304688 C 69.414062 30.617188 69.648438 30.941406 69.828125 31.328125 C 70.289062 32.339844 70.289062 33.3125 69.824219 34.078125 C 69.359375 34.84375 68.488281 35.296875 67.367188 35.351562 C 67.207031 35.359375 67.042969 35.359375 66.878906 35.355469 C 66.65625 35.351562 66.191406 35.347656 66.105469 35.429688 C 66.105469 35.429688 66.058594 35.492188 66.054688 35.722656 C 66.054688 35.984375 66.054688 36.066406 67.019531 36.117188 L 67.226562 36.128906 C 68.226562 36.195312 68.957031 36.53125 69.394531 37.132812 C 69.871094 37.78125 69.960938 38.65625 69.675781 39.804688 C 69.542969 40.347656 69.417969 40.84375 68.84375 41.296875 C 68.382812 41.601562 67.9375 41.84375 67.507812 42.074219 C 67.195312 42.246094 66.898438 42.410156 66.648438 42.5625 C 62.441406 45.1875 57.957031 46.804688 52.9375 47.507812 L 52.300781 47.59375 L 51.84375 45.980469 C 51.648438 45.289062 51.460938 44.621094 51.269531 43.957031 C 51.1875 43.664062 51.105469 43.371094 51.027344 43.078125 C 50.839844 42.371094 50.664062 41.703125 50.40625 41.074219 C 50.050781 40.210938 49.472656 39.648438 48.816406 39.523438 C 48.226562 39.414062 47.601562 39.671875 47.054688 40.25 C 46.542969 40.792969 46.144531 41.757812 46.011719 42.761719 C 45.878906 43.777344 45.90625 44.839844 45.9375 46.070312 C 45.949219 46.652344 45.964844 47.269531 45.964844 47.9375 L 45.964844 48.53125 L 45.382812 48.660156 C 44.132812 48.9375 42.878906 49.222656 41.628906 49.507812 C 38.523438 50.214844 35.308594 50.949219 32.125 51.566406 C 31.027344 51.777344 29.75 51.359375 28.792969 50.464844 C 27.964844 49.691406 27.558594 48.710938 27.675781 47.769531 C 27.890625 46.023438 28.441406 43.210938 29.078125 41.214844 L 29.207031 40.871094 C 29.441406 40.242188 29.621094 39.769531 29.808594 39.308594 C 30.15625 38.457031 30.695312 38.316406 30.988281 38.304688 C 31.351562 38.300781 31.824219 38.441406 32.195312 39.203125 C 32.367188 39.5625 32.535156 39.71875 32.621094 39.742188 C 32.679688 39.757812 32.808594 39.707031 32.945312 39.613281 C 33.203125 39.433594 33.386719 39.304688 32.875 38.386719 C 32.363281 37.464844 32.292969 36.507812 32.683594 35.691406 C 33.078125 34.867188 33.914062 34.289062 34.972656 34.109375 C 35.242188 34.0625 35.496094 34.066406 35.722656 34.070312 C 35.871094 34.074219 36.015625 34.078125 36.160156 34.058594 C 36.867188 33.96875 36.886719 33.617188 36.851562 33.296875 C 36.828125 33.09375 36.777344 33.007812 36.75 32.988281 C 36.738281 32.976562 36.59375 32.890625 36.003906 33.015625 C 34.699219 33.289062 33.808594 33.132812 33.28125 32.539062 C 32.757812 31.945312 32.707031 31.046875 33.132812 29.785156 C 33.34375 29.15625 33.648438 28.578125 33.945312 28.023438 C 34.152344 27.632812 34.347656 27.265625 34.507812 26.886719 C 34.789062 26.230469 34.417969 26.039062 34.277344 25.96875 C 34.117188 25.882812 33.871094 25.757812 33.480469 26.433594 C 33.292969 26.757812 33.167969 27.152344 33.035156 27.570312 L 32.867188 28.09375 C 32.605469 28.921875 32.246094 30.054688 30.882812 30.34375 C 29.371094 30.660156 28.671875 29.5625 28.207031 28.839844 L 28.078125 28.640625 C 27.71875 28.101562 27.425781 27.8125 27.179688 27.765625 C 27.011719 27.734375 26.792969 27.808594 26.53125 27.988281 C 26.296875 28.152344 26.257812 28.296875 26.246094 28.390625 C 26.21875 28.710938 26.488281 29.1875 26.964844 29.675781 C 29.742188 32.5 29.914062 34.875 27.585938 38.136719 C 26.964844 39.003906 26.417969 39.945312 25.964844 40.9375 C 25.550781 41.757812 25.417969 42.097656 25.375 42.246094 L 25.25 42.691406 C 24.699219 44.679688 24.128906 46.734375 23.84375 48.769531 C 23.550781 50.878906 23.941406 52.609375 24.972656 53.773438 C 25.9375 54.859375 27.472656 55.417969 29.375 55.375 C 33.539062 55.289062 37.800781 54.488281 41.46875 53.742188 L 42.644531 53.5 C 44.765625 53.054688 45.648438 52.867188 46.351562 53.355469 C 46.976562 53.792969 47.085938 54.539062 47.273438 55.769531 C 47.355469 56.324219 47.460938 57.019531 47.632812 57.859375 C 47.78125 58.578125 47.933594 59.296875 48.117188 60.144531 L 48.585938 62.363281 L 47.671875 62.363281 C 47.140625 62.363281 46.628906 62.367188 46.128906 62.371094 C 45.070312 62.378906 44.070312 62.390625 43.066406 62.355469 C 37.746094 62.171875 33.027344 63.761719 28.996094 67.066406 C 25.167969 70.203125 23.769531 76.660156 26.003906 80.886719 C 26.886719 82.5625 28.710938 83.96875 30.351562 85.15625 C 31.230469 85.792969 32.515625 86.042969 33.761719 86.289062 L 34.148438 86.367188 C 35.847656 86.707031 37.578125 86.246094 39.257812 85.800781 C 40.484375 85.472656 41.730469 85.144531 42.945312 85.144531 M 47.222656 95.761719 C 46.996094 95.761719 46.746094 95.730469 46.46875 95.648438 C 45.613281 95.398438 45.21875 94.898438 45.039062 94.519531 C 44.75 93.910156 44.78125 93.15625 45.128906 92.339844 C 45.847656 90.660156 45.949219 89.097656 45.441406 87.566406 C 43.839844 86.117188 41.976562 86.613281 39.636719 87.234375 C 37.878906 87.699219 35.890625 88.226562 33.859375 87.820312 L 33.476562 87.746094 C 32.140625 87.480469 30.625 87.183594 29.484375 86.359375 C 27.710938 85.074219 25.730469 83.539062 24.695312 81.582031 C 22.160156 76.785156 23.734375 69.464844 28.058594 65.917969 C 32.375 62.378906 37.457031 60.679688 43.117188 60.875 C 44.089844 60.90625 45.074219 60.898438 46.117188 60.890625 C 46.328125 60.886719 46.542969 60.886719 46.757812 60.882812 L 46.667969 60.457031 C 46.484375 59.601562 46.332031 58.882812 46.183594 58.160156 C 46 57.277344 45.894531 56.5625 45.808594 55.988281 C 45.71875 55.382812 45.613281 54.695312 45.5 54.570312 C 45.277344 54.460938 44.144531 54.699219 42.945312 54.949219 L 41.765625 55.195312 C 38.03125 55.953125 33.691406 56.769531 29.402344 56.859375 C 27.050781 56.90625 25.128906 56.179688 23.867188 54.757812 C 22.539062 53.261719 22.023438 51.117188 22.378906 48.566406 C 22.675781 46.433594 23.261719 44.328125 23.824219 42.292969 L 23.949219 41.851562 C 24.039062 41.527344 24.25 41.046875 24.632812 40.292969 C 25.113281 39.242188 25.707031 38.214844 26.382812 37.273438 C 28.285156 34.609375 28.167969 33.015625 25.910156 30.714844 C 25.09375 29.886719 24.699219 29.035156 24.773438 28.253906 C 24.832031 27.660156 25.148438 27.144531 25.691406 26.769531 C 26.292969 26.351562 26.890625 26.199219 27.460938 26.308594 C 28.328125 26.476562 28.90625 27.207031 29.3125 27.824219 L 29.449219 28.035156 C 29.945312 28.804688 30.128906 28.984375 30.578125 28.890625 C 31.050781 28.792969 31.195312 28.472656 31.453125 27.644531 L 31.625 27.117188 C 31.777344 26.644531 31.933594 26.152344 32.199219 25.691406 C 32.886719 24.503906 33.914062 24.113281 34.953125 24.648438 C 36.007812 25.191406 36.367188 26.296875 35.871094 27.46875 C 35.683594 27.90625 35.464844 28.320312 35.25 28.71875 C 34.972656 29.246094 34.707031 29.746094 34.535156 30.257812 C 34.183594 31.304688 34.378906 31.546875 34.390625 31.554688 C 34.398438 31.566406 34.613281 31.792969 35.699219 31.5625 C 36.234375 31.453125 37.015625 31.351562 37.617188 31.785156 C 38.015625 32.074219 38.25 32.527344 38.320312 33.128906 C 38.46875 34.414062 37.695312 35.355469 36.351562 35.53125 C 36.136719 35.558594 35.917969 35.554688 35.699219 35.554688 C 35.523438 35.550781 35.355469 35.550781 35.222656 35.570312 C 34.632812 35.671875 34.203125 35.941406 34.019531 36.332031 C 33.84375 36.703125 33.894531 37.175781 34.167969 37.664062 C 34.457031 38.179688 35.332031 39.75 33.792969 40.828125 C 33.148438 41.28125 32.597656 41.265625 32.25 41.175781 C 31.777344 41.054688 31.375 40.722656 31.046875 40.195312 C 30.910156 40.546875 30.765625 40.925781 30.59375 41.394531 L 30.476562 41.703125 C 29.878906 43.574219 29.351562 46.273438 29.144531 47.953125 C 29.085938 48.414062 29.328125 48.933594 29.804688 49.382812 C 30.402344 49.9375 31.21875 50.234375 31.84375 50.109375 C 35.003906 49.496094 38.207031 48.765625 41.300781 48.0625 C 42.359375 47.820312 43.421875 47.578125 44.480469 47.34375 C 44.476562 46.910156 44.464844 46.5 44.457031 46.105469 C 44.425781 44.8125 44.398438 43.699219 44.542969 42.570312 C 44.714844 41.25 45.253906 40 45.980469 39.230469 C 46.882812 38.273438 47.988281 37.859375 49.085938 38.066406 C 50.246094 38.28125 51.226562 39.171875 51.773438 40.511719 C 52.070312 41.226562 52.265625 41.972656 52.460938 42.695312 C 52.535156 42.976562 52.609375 43.261719 52.691406 43.542969 C 52.886719 44.210938 53.074219 44.882812 53.269531 45.578125 L 53.371094 45.941406 C 57.925781 45.226562 62.019531 43.707031 65.867188 41.304688 C 66.136719 41.136719 66.460938 40.957031 66.804688 40.773438 C 67.207031 40.550781 67.625 40.324219 67.984375 40.089844 C 68.09375 40 68.121094 39.933594 68.222656 39.511719 C 68.40625 38.769531 68.394531 38.273438 68.203125 38.007812 C 67.992188 37.722656 67.503906 37.632812 67.132812 37.609375 L 66.9375 37.597656 C 66.167969 37.554688 64.570312 37.46875 64.574219 35.71875 C 64.578125 35.144531 64.742188 34.691406 65.0625 34.371094 C 65.582031 33.859375 66.308594 33.867188 66.890625 33.875 C 67.027344 33.875 67.164062 33.875 67.296875 33.871094 C 67.910156 33.839844 68.359375 33.640625 68.558594 33.308594 C 68.761719 32.976562 68.730469 32.492188 68.480469 31.945312 C 68.367188 31.695312 68.183594 31.441406 67.988281 31.171875 C 67.910156 31.0625 67.828125 30.953125 67.753906 30.839844 C 67.117188 29.90625 67.121094 29.171875 67.238281 28.714844 C 67.34375 28.304688 67.644531 27.726562 68.46875 27.308594 C 69.09375 26.992188 69.730469 26.925781 70.308594 27.121094 C 70.945312 27.332031 71.480469 27.839844 71.851562 28.59375 C 72.03125 28.953125 72.085938 29.351562 72.132812 29.703125 C 72.226562 30.421875 72.246094 30.414062 72.507812 30.414062 C 73.53125 30.386719 74.199219 29.449219 74.851562 28.40625 C 74.929688 28.285156 74.984375 28.097656 75.046875 27.898438 C 75.078125 27.792969 75.109375 27.691406 75.144531 27.585938 C 75.613281 26.246094 76.597656 25.550781 77.894531 25.628906 C 79.050781 25.699219 79.9375 26.316406 80.320312 27.324219 C 80.9375 28.9375 79.625 29.902344 79.132812 30.265625 C 78.246094 30.914062 78.191406 31.382812 78.378906 31.890625 C 78.554688 32.371094 78.910156 32.871094 80.214844 32.953125 C 80.417969 32.964844 80.660156 32.925781 80.914062 32.886719 C 81.128906 32.851562 81.34375 32.816406 81.558594 32.804688 C 82.632812 32.738281 83.445312 32.96875 83.984375 33.496094 C 84.296875 33.804688 84.660156 34.367188 84.621094 35.3125 C 84.582031 36.246094 84.15625 36.761719 83.804688 37.03125 C 83.226562 37.476562 82.382812 37.609375 81.4375 37.402344 C 79.972656 37.082031 78.527344 37.300781 76.996094 37.535156 L 76.351562 37.628906 C 75.230469 37.792969 75.0625 37.921875 74.601562 39.765625 C 74.496094 40.183594 74.378906 40.65625 73.988281 41.304688 C 71.734375 45.671875 67.976562 48.773438 62.523438 50.75 C 61.445312 51.140625 60.335938 51.464844 59.265625 51.78125 C 58.066406 52.132812 56.832031 52.496094 55.664062 52.941406 C 55.273438 53.09375 54.761719 53.800781 54.753906 54.046875 C 54.835938 55.109375 55.109375 56.175781 55.429688 57.414062 C 55.480469 57.613281 55.535156 57.820312 55.585938 58.027344 C 56.015625 57.738281 56.378906 57.492188 56.738281 57.242188 C 63.46875 52.558594 69.511719 50.96875 75.75 52.226562 C 81.324219 53.351562 85.308594 59.035156 84.457031 64.640625 C 84.332031 65.457031 84.1875 66.21875 84.023438 66.933594 C 84.171875 66.878906 84.328125 66.832031 84.5 66.800781 C 85.53125 66.59375 86.863281 66.800781 87.332031 68.96875 C 87.382812 69.191406 87.371094 69.414062 87.347656 69.617188 C 87.417969 69.488281 87.484375 69.339844 87.527344 69.234375 L 87.640625 68.976562 C 87.773438 68.6875 87.882812 68.382812 87.996094 68.078125 C 88.171875 67.597656 88.355469 67.101562 88.621094 66.628906 C 89 65.957031 89.527344 65.515625 90.144531 65.355469 C 90.546875 65.253906 91.183594 65.222656 91.929688 65.679688 C 93.136719 66.421875 93.410156 67.671875 92.660156 69.023438 C 92.546875 69.230469 92.410156 69.386719 92.285156 69.527344 C 92.226562 69.597656 92.164062 69.664062 92.117188 69.738281 C 92.027344 69.867188 91.925781 69.996094 91.824219 70.125 C 91.332031 70.753906 91.371094 70.800781 91.558594 71.023438 C 91.839844 71.363281 92.144531 71.324219 93.046875 71.019531 C 93.640625 70.816406 94.285156 70.636719 94.917969 70.664062 C 96.128906 70.714844 96.980469 71.507812 97.144531 72.726562 C 97.324219 74.074219 96.617188 75.09375 95.375 75.265625 C 89.265625 76.105469 84.683594 79.550781 79.828125 83.203125 C 78.777344 83.992188 77.726562 84.78125 76.660156 85.539062 C 75.476562 86.386719 74.28125 87.222656 73.078125 88.042969 C 72.070312 88.730469 70.90625 89 69.605469 88.847656 C 68.328125 88.695312 67.34375 88.121094 66.84375 87.226562 C 66.351562 86.355469 66.367188 85.246094 66.882812 84.113281 C 67.121094 83.585938 67.453125 83.066406 67.777344 82.566406 C 68.015625 82.195312 68.242188 81.84375 68.417969 81.507812 L 68.492188 81.386719 C 69.039062 80.386719 69.84375 79.101562 70.695312 77.746094 C 71.832031 75.929688 73.011719 74.046875 73.585938 72.8125 L 73.90625 72.128906 C 74.96875 69.863281 76.066406 67.519531 76.402344 65.167969 C 76.636719 63.535156 76.152344 62.023438 75.039062 60.910156 C 73.738281 59.613281 71.742188 59.019531 69.691406 59.324219 C 65.273438 59.984375 61.585938 62.246094 58.082031 66.453125 C 57.917969 66.644531 57.773438 66.851562 57.625 67.058594 C 57.539062 67.179688 57.453125 67.300781 57.363281 67.421875 C 54.65625 71.050781 54.253906 71.164062 50.171875 69.417969 L 50.011719 69.347656 C 45.644531 67.480469 41.285156 67.875 37.050781 70.515625 C 35.222656 71.65625 34.203125 73.453125 34.253906 75.441406 C 34.304688 77.574219 35.570312 79.535156 37.636719 80.691406 C 39.148438 81.53125 40.851562 81.945312 43.007812 81.992188 L 43.125 81.992188 C 43.695312 81.984375 45.390625 81.851562 45.773438 81.765625 C 46.375 81.40625 46.425781 80.8125 46.429688 80.023438 C 46.429688 79.828125 46.433594 79.652344 46.449219 79.511719 C 46.546875 78.679688 46.871094 78.042969 47.386719 77.675781 C 47.710938 77.445312 48.273438 77.207031 49.105469 77.394531 C 49.898438 77.570312 50.269531 78 50.4375 78.328125 C 50.71875 78.871094 50.691406 79.5625 50.351562 80.375 C 50.285156 80.535156 50.234375 80.644531 50.207031 80.757812 C 50.058594 81.390625 50.144531 81.515625 50.292969 81.628906 C 50.40625 81.71875 50.507812 81.730469 51.042969 81.488281 C 51.261719 81.386719 51.480469 81.28125 51.699219 81.171875 C 52.019531 81.015625 52.339844 80.859375 52.664062 80.722656 C 53.414062 80.410156 54.066406 80.375 54.605469 80.617188 C 54.921875 80.757812 55.34375 81.066406 55.582031 81.746094 C 55.816406 82.433594 55.671875 82.941406 55.503906 83.246094 C 55.222656 83.765625 54.675781 84.128906 53.875 84.320312 C 53.589844 84.390625 53.296875 84.433594 53.003906 84.472656 C 52.816406 84.5 52.628906 84.523438 52.445312 84.558594 C 51.828125 84.679688 51.785156 84.832031 51.765625 84.898438 C 51.738281 84.992188 51.691406 85.167969 52.246094 85.519531 C 52.609375 85.746094 52.988281 85.941406 53.394531 86.152344 C 53.734375 86.328125 54.074219 86.503906 54.402344 86.699219 C 55.132812 87.128906 55.496094 87.855469 55.375 88.640625 C 55.246094 89.480469 54.730469 90.078125 53.890625 90.363281 C 53.722656 90.421875 53.5625 90.441406 53.417969 90.441406 C 53.542969 90.648438 53.714844 90.855469 53.898438 91.074219 C 54.027344 91.230469 54.152344 91.382812 54.273438 91.542969 C 54.722656 92.152344 55.21875 92.957031 55.046875 93.816406 C 54.9375 94.371094 54.570312 94.832031 53.964844 95.1875 C 53.101562 95.695312 52.425781 95.625 52.007812 95.476562 C 51.328125 95.234375 50.804688 94.632812 50.449219 93.683594 L 50.394531 93.539062 C 50.09375 92.722656 49.964844 92.578125 49.734375 92.59375 C 49.636719 92.660156 49.597656 92.957031 49.574219 93.132812 C 49.546875 93.347656 49.515625 93.5625 49.464844 93.75 C 49.230469 94.589844 48.820312 95.179688 48.242188 95.503906 C 48.007812 95.636719 47.664062 95.761719 47.222656 95.761719 " fill-opacity="1" fill-rule="nonzero"/></g></svg>