<svg xmlns="http://www.w3.org/2000/svg" xmlns:xlink="http://www.w3.org/1999/xlink" width="150" zoomAndPan="magnify" viewBox="0 0 112.5 112.499997" height="150" preserveAspectRatio="xMidYMid meet" version="1.0"><path fill="#000000" d="M 21.597656 15.121094 L 24.824219 12.8125 L 25.21875 13.367188 L 22.554688 15.273438 L 23.816406 17.035156 L 25.441406 15.871094 L 25.832031 16.417969 L 24.207031 17.578125 L 25.785156 19.789062 L 28.429688 17.898438 L 28.828125 18.457031 L 25.625 20.746094 Z M 21.597656 15.121094 " fill-opacity="1" fill-rule="nonzero"/><path fill="#000000" d="M 30.0625 9.730469 L 30.796875 9.394531 L 33.429688 11.148438 L 33.820312 8 L 34.546875 7.664062 L 34.078125 11.570312 L 37.5625 13.890625 L 36.835938 14.226562 L 33.984375 12.347656 L 33.5625 15.738281 L 32.828125 16.074219 L 33.335938 11.910156 Z M 30.0625 9.730469 " fill-opacity="1" fill-rule="nonzero"/><path fill="#000000" d="M 43.652344 6.355469 L 43.046875 9.066406 L 45.359375 8.539062 Z M 43.40625 4.910156 L 48.09375 10.933594 L 47.375 11.097656 L 45.804688 9.117188 L 42.894531 9.78125 L 42.351562 12.246094 L 41.597656 12.417969 L 43.242188 4.945312 Z M 43.40625 4.910156 " fill-opacity="1" fill-rule="nonzero"/><path fill="#000000" d="M 50.933594 3.683594 L 51.683594 3.65625 L 54.15625 8.921875 L 56.304688 3.5 L 57.058594 3.476562 L 54.28125 10.492188 L 54.132812 10.496094 Z M 50.933594 3.683594 " fill-opacity="1" fill-rule="nonzero"/><path fill="#000000" d="M 62.816406 10.921875 L 62.132812 10.832031 L 63.042969 3.972656 L 63.726562 4.0625 Z M 62.816406 10.921875 " fill-opacity="1" fill-rule="evenodd"/><path fill="#000000" d="M 70.054688 5.28125 L 73.859375 6.390625 L 73.671875 7.042969 L 70.527344 6.128906 L 69.921875 8.207031 L 71.839844 8.765625 L 71.648438 9.410156 L 69.734375 8.851562 L 68.972656 11.457031 L 72.089844 12.367188 L 71.898438 13.023438 L 68.117188 11.921875 Z M 70.054688 5.28125 " fill-opacity="1" fill-rule="nonzero"/><path fill="#000000" d="M 80.183594 9.699219 L 79.113281 11.792969 L 80.167969 12.34375 C 80.578125 12.550781 80.902344 12.667969 81.140625 12.691406 C 81.378906 12.714844 81.597656 12.667969 81.792969 12.554688 C 81.988281 12.4375 82.144531 12.273438 82.253906 12.058594 C 82.355469 11.855469 82.394531 11.640625 82.371094 11.414062 C 82.34375 11.1875 82.261719 10.988281 82.117188 10.824219 C 81.972656 10.660156 81.691406 10.46875 81.269531 10.253906 Z M 79.875 8.78125 L 81.101562 9.410156 C 81.785156 9.757812 82.234375 10.023438 82.449219 10.203125 C 82.773438 10.472656 82.980469 10.804688 83.070312 11.195312 C 83.160156 11.589844 83.101562 11.988281 82.898438 12.386719 C 82.726562 12.726562 82.492188 12.980469 82.207031 13.152344 C 81.921875 13.324219 81.597656 13.398438 81.234375 13.382812 C 80.871094 13.363281 80.582031 13.296875 80.367188 13.1875 L 80.671875 16.957031 L 79.914062 16.570312 L 79.609375 12.800781 L 78.808594 12.390625 L 77.34375 15.257812 L 76.730469 14.945312 Z M 79.875 8.78125 " fill-opacity="1" fill-rule="nonzero"/><path fill="#000000" d="M 84.101562 103.246094 L 80.675781 97.15625 L 80.765625 97.089844 L 86.449219 99.878906 L 85.203125 93.6875 L 85.292969 93.621094 L 90.292969 98.503906 L 89.75 98.917969 L 86.203125 95.402344 L 87.273438 100.816406 L 87.132812 100.925781 L 82.132812 98.476562 L 84.632812 102.839844 Z M 84.101562 103.246094 " fill-opacity="1" fill-rule="nonzero"/><path fill="#000000" d="M 89.902344 88.890625 L 92.296875 85.730469 L 92.839844 86.140625 L 90.859375 88.75 L 92.585938 90.058594 L 93.792969 88.46875 L 94.328125 88.875 L 93.121094 90.464844 L 95.285156 92.105469 L 97.246094 89.519531 L 97.792969 89.933594 L 95.414062 93.070312 Z M 89.902344 88.890625 " fill-opacity="1" fill-rule="nonzero"/><path fill="#000000" d="M 99.859375 87.34375 L 99.285156 87 C 103.210938 80.523438 105.570312 73.417969 106.296875 65.878906 L 106.324219 65.597656 L 106.988281 65.65625 L 106.964844 65.941406 C 106.222656 73.582031 103.832031 80.78125 99.859375 87.34375 " fill-opacity="1" fill-rule="nonzero"/><path fill="#000000" d="M 107.203125 60.976562 L 106.535156 60.976562 C 106.535156 43.792969 97.894531 27.972656 83.425781 18.65625 L 83.785156 18.09375 C 98.449219 27.53125 107.203125 43.5625 107.203125 60.976562 " fill-opacity="1" fill-rule="nonzero"/><path fill="#000000" d="M 6.824219 51.390625 L 6.164062 51.265625 C 8.320312 40.097656 14.28125 29.832031 22.949219 22.359375 L 23.386719 22.867188 C 14.832031 30.238281 8.949219 40.371094 6.824219 51.390625 " fill-opacity="1" fill-rule="nonzero"/><path fill="#000000" d="M 56.222656 111.945312 C 43.414062 111.945312 31.171875 107.179688 21.746094 98.523438 C 12.378906 89.921875 6.589844 78.242188 5.449219 65.628906 L 6.117188 65.566406 C 8.472656 91.625 30.015625 111.277344 56.222656 111.277344 C 65.125 111.277344 73.871094 108.921875 81.519531 104.464844 L 81.855469 105.042969 C 74.105469 109.558594 65.242188 111.945312 56.222656 111.945312 " fill-opacity="1" fill-rule="nonzero"/><path fill="#000000" d="M 46.667969 45.003906 C 47.976562 44.828125 49.003906 44.179688 49 42.625 C 48.96875 41.339844 47.703125 40.046875 46.464844 40.207031 C 45.136719 40.375 44.125 41.03125 44.128906 42.574219 C 44.136719 43.867188 45.414062 45.175781 46.667969 45.003906 " fill-opacity="1" fill-rule="nonzero"/><path fill="#000000" d="M 57.972656 43.566406 C 59.53125 43.578125 60.160156 42.671875 60.335938 41.398438 C 60.3125 39.800781 59.4375 39.167969 58.085938 39.125 C 56.648438 39.078125 55.804688 39.925781 55.84375 41.269531 C 55.875 42.488281 56.429688 43.558594 57.972656 43.566406 " fill-opacity="1" fill-rule="nonzero"/><path fill="#000000" d="M 47.707031 85.683594 C 48.859375 85.683594 49.972656 86.011719 51.003906 87.015625 L 51.113281 87.125 L 51.164062 87.269531 C 51.792969 89.003906 51.703125 90.828125 50.910156 92.695312 C 50.753906 93.058594 50.714844 93.375 50.804688 93.5625 C 50.867188 93.695312 51.019531 93.800781 51.257812 93.867188 C 51.625 93.972656 51.785156 93.882812 51.835938 93.855469 C 52.03125 93.746094 52.195312 93.472656 52.304688 93.082031 C 52.335938 92.96875 52.347656 92.84375 52.367188 92.710938 C 52.433594 92.203125 52.570312 91.144531 53.746094 91.066406 C 55.011719 90.972656 55.453125 92.15625 55.6875 92.789062 L 55.730469 92.910156 C 55.898438 93.359375 56.121094 93.660156 56.332031 93.738281 C 56.496094 93.792969 56.710938 93.742188 56.980469 93.582031 C 57.121094 93.5 57.292969 93.371094 57.324219 93.234375 C 57.347656 93.105469 57.289062 92.828125 56.859375 92.25 C 56.769531 92.125 56.667969 92.007812 56.566406 91.886719 C 56.164062 91.398438 55.703125 90.847656 55.628906 90.027344 L 55.605469 89.742188 L 55.796875 89.527344 C 56.214844 89.050781 56.734375 89.089844 57.015625 89.113281 C 57.070312 89.117188 57.152344 89.125 57.175781 89.121094 C 57.484375 89.015625 57.574219 88.847656 57.605469 88.632812 C 57.617188 88.554688 57.644531 88.398438 57.375 88.238281 C 57.097656 88.078125 56.8125 87.929688 56.527344 87.78125 C 56.152344 87.589844 55.765625 87.390625 55.394531 87.15625 C 54.277344 86.453125 54.230469 85.652344 54.382812 85.101562 C 54.664062 84.117188 55.6875 83.914062 56.027344 83.847656 C 56.214844 83.8125 56.410156 83.785156 56.605469 83.757812 C 56.824219 83.726562 57.046875 83.699219 57.257812 83.648438 C 57.636719 83.554688 57.824219 83.425781 57.871094 83.335938 C 57.910156 83.269531 57.882812 83.148438 57.851562 83.0625 C 57.804688 82.933594 57.75 82.855469 57.6875 82.828125 C 57.589844 82.78125 57.355469 82.789062 56.996094 82.9375 C 56.726562 83.050781 56.460938 83.179688 56.199219 83.308594 C 55.988281 83.410156 55.777344 83.515625 55.566406 83.609375 C 55.121094 83.808594 54.300781 84.179688 53.519531 83.574219 C 52.621094 82.875 52.859375 81.863281 52.960938 81.429688 C 53.003906 81.253906 53.070312 81.085938 53.140625 80.921875 C 53.324219 80.484375 53.328125 80.246094 53.285156 80.160156 C 53.253906 80.101562 53.140625 80.042969 52.976562 80.007812 C 52.757812 79.960938 52.597656 79.972656 52.492188 80.046875 C 52.34375 80.148438 52.238281 80.410156 52.199219 80.765625 C 52.1875 80.851562 52.1875 80.957031 52.1875 81.082031 C 52.183594 81.792969 52.175781 83.117188 50.855469 83.84375 C 50.40625 84.089844 48.019531 84.183594 47.847656 84.183594 L 47.84375 84.183594 L 47.703125 84.179688 C 45.5625 84.136719 43.824219 83.710938 42.265625 82.839844 C 39.980469 81.570312 38.582031 79.378906 38.519531 76.980469 C 38.464844 74.699219 39.617188 72.65625 41.675781 71.371094 C 45.832031 68.785156 50.304688 68.386719 54.609375 70.226562 L 54.757812 70.289062 C 56.265625 70.933594 57.097656 71.289062 57.589844 71.15625 C 58.085938 71.015625 58.675781 70.226562 59.652344 68.917969 C 59.726562 68.820312 59.800781 68.71875 59.875 68.613281 C 60.027344 68.402344 60.179688 68.191406 60.34375 67.988281 C 63.730469 63.933594 67.328125 61.746094 71.65625 61.105469 C 73.921875 60.769531 76.152344 61.441406 77.625 62.90625 C 78.9375 64.214844 79.511719 65.980469 79.238281 67.878906 C 78.902344 70.195312 77.867188 72.398438 76.867188 74.527344 L 76.582031 75.140625 C 76.027344 76.328125 74.941406 78.058594 73.890625 79.730469 C 73.109375 80.976562 72.371094 82.152344 71.898438 83.027344 L 71.832031 83.136719 C 71.65625 83.457031 71.449219 83.777344 71.25 84.089844 C 70.984375 84.5 70.710938 84.925781 70.535156 85.3125 C 70.332031 85.753906 70.152344 86.386719 70.445312 86.910156 C 70.6875 87.332031 71.214844 87.613281 71.933594 87.695312 C 72.785156 87.796875 73.511719 87.632812 74.160156 87.195312 C 75.238281 86.460938 76.308594 85.710938 77.371094 84.957031 C 78.324219 84.277344 79.265625 83.574219 80.203125 82.867188 C 84.53125 79.621094 89.003906 76.265625 94.863281 75.460938 C 95 75.445312 95.414062 75.386719 95.316406 74.679688 C 95.253906 74.21875 95.015625 73.992188 94.570312 73.972656 C 94.191406 73.957031 93.753906 74.09375 93.371094 74.226562 C 92.605469 74.484375 91.449219 74.878906 90.570312 73.820312 C 89.675781 72.746094 90.398438 71.824219 90.785156 71.332031 C 90.859375 71.238281 90.933594 71.144531 90.996094 71.050781 C 91.070312 70.941406 91.160156 70.839844 91.246094 70.738281 C 91.320312 70.65625 91.390625 70.574219 91.421875 70.515625 C 91.882812 69.6875 91.460938 69.429688 91.234375 69.289062 C 91.015625 69.15625 90.820312 69.109375 90.652344 69.152344 C 90.460938 69.203125 90.265625 69.382812 90.109375 69.664062 C 89.921875 69.996094 89.78125 70.371094 89.636719 70.773438 C 89.523438 71.078125 89.410156 71.386719 89.273438 71.679688 L 89.183594 71.878906 C 88.953125 72.417969 88.558594 73.308594 87.59375 73.269531 C 87.195312 73.25 86.882812 73.117188 86.675781 72.867188 C 86.347656 72.476562 86.410156 71.988281 86.453125 71.664062 C 86.464844 71.574219 86.480469 71.4375 86.476562 71.390625 C 86.257812 70.394531 85.929688 70.378906 85.484375 70.46875 C 85.238281 70.519531 85.074219 70.605469 84.996094 70.726562 C 84.902344 70.878906 84.894531 71.152344 84.984375 71.496094 L 85.019531 71.636719 C 85.058594 71.785156 85.097656 71.933594 85.128906 72.089844 C 85.242188 72.71875 85.386719 73.515625 84.851562 74.226562 C 84.546875 74.625 83.933594 74.632812 83.742188 74.601562 C 83.054688 74.492188 82.742188 74.035156 82.6875 73.675781 L 82.679688 73.59375 C 82.632812 72.308594 82.929688 71.070312 83.226562 70.023438 C 83.484375 69.117188 83.691406 68.128906 83.863281 67.011719 C 84.53125 62.644531 81.414062 58.214844 77.0625 57.335938 C 71.734375 56.265625 66.757812 57.59375 60.921875 61.644531 C 60.578125 61.882812 60.230469 62.117188 59.816406 62.398438 L 58.269531 63.453125 L 58.050781 62.5 C 57.929688 61.988281 57.804688 61.503906 57.683594 61.035156 C 57.390625 59.910156 57.117188 58.847656 57.035156 57.761719 C 56.96875 56.875 57.902344 55.738281 58.710938 55.425781 C 59.8125 55.003906 60.957031 54.667969 62.066406 54.34375 C 63.011719 54.066406 63.996094 53.78125 64.925781 53.441406 C 69.519531 51.78125 72.671875 49.195312 74.566406 45.539062 C 74.839844 45.085938 74.90625 44.816406 74.988281 44.480469 C 75.449219 42.648438 75.839844 41.820312 77.675781 41.554688 L 78.25 41.46875 C 79.6875 41.25 81.179688 41.023438 82.742188 41.367188 C 83.195312 41.464844 83.582031 41.433594 83.78125 41.277344 C 83.832031 41.242188 83.980469 41.128906 83.996094 40.734375 C 84.015625 40.296875 83.871094 40.15625 83.824219 40.109375 C 83.625 39.914062 83.210938 39.828125 82.652344 39.863281 C 82.503906 39.871094 82.351562 39.898438 82.199219 39.921875 C 81.917969 39.96875 81.601562 40.015625 81.273438 39.996094 C 79.808594 39.90625 78.859375 39.292969 78.445312 38.171875 C 78.023438 37.039062 78.410156 36.027344 79.585938 35.164062 C 80.277344 34.65625 80.335938 34.417969 80.203125 34.066406 C 80.144531 33.914062 79.964844 33.445312 79.179688 33.398438 C 78.757812 33.371094 78.324219 33.464844 78.039062 34.269531 C 78.015625 34.347656 77.992188 34.425781 77.964844 34.503906 C 77.894531 34.746094 77.808594 35.019531 77.648438 35.277344 C 77.085938 36.171875 76.148438 37.667969 74.433594 37.710938 C 72.957031 37.75 72.8125 36.507812 72.734375 35.914062 C 72.703125 35.6875 72.671875 35.457031 72.609375 35.328125 C 72.4375 34.984375 72.21875 34.753906 71.992188 34.675781 C 71.808594 34.617188 71.59375 34.648438 71.355469 34.769531 C 71.113281 34.890625 70.972656 35.03125 70.933594 35.179688 C 70.882812 35.375 70.984375 35.675781 71.207031 36.007812 C 71.269531 36.097656 71.335938 36.1875 71.398438 36.277344 C 71.605469 36.558594 71.816406 36.851562 71.976562 37.199219 C 72.394531 38.109375 72.394531 38.988281 71.976562 39.675781 C 71.554688 40.367188 70.765625 40.777344 69.757812 40.824219 C 69.613281 40.832031 69.464844 40.832031 69.3125 40.828125 C 69.113281 40.828125 68.695312 40.824219 68.613281 40.894531 C 68.613281 40.894531 68.574219 40.953125 68.570312 41.160156 C 68.570312 41.394531 68.570312 41.46875 69.441406 41.515625 L 69.628906 41.527344 C 70.53125 41.585938 71.191406 41.886719 71.589844 42.429688 C 72.015625 43.015625 72.097656 43.800781 71.839844 44.835938 C 71.71875 45.328125 71.609375 45.773438 71.089844 46.179688 C 70.671875 46.457031 70.273438 46.671875 69.882812 46.882812 C 69.601562 47.035156 69.332031 47.183594 69.105469 47.324219 C 65.308594 49.6875 61.257812 51.144531 56.726562 51.773438 L 56.152344 51.855469 L 55.742188 50.402344 C 55.566406 49.777344 55.394531 49.175781 55.222656 48.578125 C 55.144531 48.316406 55.074219 48.050781 55.003906 47.785156 C 54.835938 47.148438 54.675781 46.546875 54.441406 45.980469 C 54.121094 45.203125 53.597656 44.695312 53.007812 44.585938 C 52.476562 44.484375 51.910156 44.71875 51.417969 45.238281 C 50.953125 45.726562 50.59375 46.597656 50.472656 47.503906 C 50.355469 48.414062 50.378906 49.371094 50.40625 50.480469 C 50.417969 51.003906 50.433594 51.5625 50.433594 52.164062 L 50.433594 52.699219 L 49.910156 52.816406 C 48.777344 53.066406 47.648438 53.324219 46.519531 53.582031 C 43.714844 54.21875 40.8125 54.875 37.9375 55.433594 C 36.945312 55.625 35.792969 55.246094 34.929688 54.441406 C 34.183594 53.746094 33.8125 52.859375 33.917969 52.015625 C 34.113281 50.441406 34.609375 47.90625 35.1875 46.105469 L 35.300781 45.796875 C 35.515625 45.230469 35.675781 44.804688 35.847656 44.390625 C 36.160156 43.625 36.648438 43.496094 36.910156 43.488281 C 37.238281 43.480469 37.664062 43.609375 38 44.296875 C 38.15625 44.621094 38.304688 44.757812 38.386719 44.78125 C 38.4375 44.796875 38.554688 44.75 38.679688 44.664062 C 38.910156 44.503906 39.078125 44.386719 38.617188 43.5625 C 38.152344 42.730469 38.089844 41.867188 38.441406 41.128906 C 38.796875 40.386719 39.550781 39.867188 40.507812 39.707031 C 40.75 39.664062 40.980469 39.667969 41.183594 39.671875 C 41.316406 39.671875 41.449219 39.675781 41.582031 39.660156 C 42.21875 39.578125 42.238281 39.265625 42.203125 38.976562 C 42.183594 38.789062 42.136719 38.710938 42.113281 38.699219 C 42.101562 38.6875 41.96875 38.609375 41.4375 38.71875 C 40.261719 38.96875 39.457031 38.828125 38.980469 38.292969 C 38.507812 37.757812 38.460938 36.945312 38.84375 35.808594 C 39.035156 35.242188 39.3125 34.722656 39.578125 34.222656 C 39.765625 33.871094 39.941406 33.539062 40.089844 33.199219 C 40.339844 32.605469 40.007812 32.433594 39.878906 32.371094 C 39.734375 32.292969 39.515625 32.179688 39.160156 32.792969 C 38.992188 33.082031 38.878906 33.4375 38.757812 33.8125 L 38.605469 34.285156 C 38.371094 35.03125 38.046875 36.054688 36.816406 36.3125 C 35.453125 36.597656 34.820312 35.609375 34.398438 34.957031 L 34.28125 34.78125 C 33.960938 34.292969 33.695312 34.03125 33.472656 33.992188 C 33.320312 33.960938 33.125 34.027344 32.886719 34.191406 C 32.671875 34.339844 32.636719 34.46875 32.628906 34.554688 C 32.601562 34.839844 32.847656 35.273438 33.277344 35.710938 C 35.785156 38.257812 35.941406 40.394531 33.835938 43.332031 C 33.277344 44.113281 32.785156 44.964844 32.375 45.859375 C 32 46.59375 31.878906 46.902344 31.84375 47.039062 L 31.730469 47.4375 C 31.230469 49.230469 30.714844 51.082031 30.460938 52.914062 C 30.195312 54.816406 30.550781 56.375 31.480469 57.421875 C 32.351562 58.402344 33.738281 58.90625 35.453125 58.867188 C 39.214844 58.789062 43.0625 58.066406 46.375 57.394531 L 47.433594 57.175781 C 49.351562 56.773438 50.144531 56.605469 50.78125 57.046875 C 51.34375 57.441406 51.445312 58.109375 51.613281 59.222656 C 51.6875 59.722656 51.78125 60.347656 51.9375 61.105469 C 52.070312 61.75 52.210938 62.398438 52.375 63.164062 L 52.800781 65.160156 L 51.976562 65.160156 C 51.496094 65.160156 51.03125 65.164062 50.582031 65.167969 C 49.625 65.175781 48.722656 65.183594 47.816406 65.15625 C 43.011719 64.988281 38.75 66.421875 35.113281 69.398438 C 31.65625 72.226562 30.394531 78.042969 32.410156 81.851562 C 33.207031 83.359375 34.855469 84.628906 36.335938 85.699219 C 37.128906 86.269531 38.289062 86.496094 39.414062 86.71875 L 39.761719 86.789062 C 41.296875 87.09375 42.859375 86.679688 44.375 86.277344 C 45.484375 85.984375 46.609375 85.683594 47.707031 85.683594 M 51.566406 95.253906 C 51.363281 95.253906 51.136719 95.222656 50.886719 95.152344 C 50.113281 94.925781 49.757812 94.472656 49.597656 94.132812 C 49.335938 93.585938 49.363281 92.90625 49.679688 92.171875 C 50.324219 90.65625 50.417969 89.246094 49.957031 87.871094 C 48.515625 86.5625 46.832031 87.007812 44.71875 87.570312 C 43.132812 87.988281 41.335938 88.464844 39.5 88.097656 L 39.15625 88.03125 C 37.949219 87.792969 36.582031 87.523438 35.554688 86.78125 C 33.949219 85.625 32.160156 84.238281 31.230469 82.476562 C 28.941406 78.152344 30.359375 71.558594 34.265625 68.363281 C 38.164062 65.175781 42.75 63.648438 47.859375 63.820312 C 48.742188 63.847656 49.628906 63.839844 50.570312 63.832031 C 50.761719 63.832031 50.953125 63.832031 51.148438 63.828125 L 51.066406 63.445312 C 50.902344 62.675781 50.761719 62.023438 50.628906 61.375 C 50.464844 60.582031 50.367188 59.9375 50.292969 59.417969 C 50.207031 58.871094 50.117188 58.253906 50.011719 58.140625 C 49.8125 58.042969 48.789062 58.257812 47.707031 58.484375 L 46.640625 58.703125 C 43.269531 59.386719 39.351562 60.121094 35.480469 60.203125 C 33.355469 60.242188 31.621094 59.589844 30.480469 58.308594 C 29.28125 56.960938 28.816406 55.03125 29.136719 52.730469 C 29.402344 50.808594 29.933594 48.914062 30.441406 47.082031 L 30.554688 46.679688 C 30.636719 46.386719 30.824219 45.957031 31.171875 45.277344 C 31.605469 44.332031 32.140625 43.40625 32.75 42.554688 C 34.46875 40.15625 34.367188 38.71875 32.324219 36.648438 C 31.589844 35.898438 31.234375 35.132812 31.300781 34.429688 C 31.351562 33.894531 31.636719 33.429688 32.128906 33.09375 C 32.671875 32.71875 33.210938 32.578125 33.726562 32.679688 C 34.507812 32.828125 35.03125 33.488281 35.398438 34.042969 L 35.523438 34.234375 C 35.96875 34.925781 36.132812 35.089844 36.539062 35.003906 C 36.96875 34.914062 37.097656 34.625 37.332031 33.882812 L 37.484375 33.40625 C 37.621094 32.976562 37.765625 32.539062 38.003906 32.121094 C 38.625 31.050781 39.550781 30.699219 40.492188 31.179688 C 41.441406 31.671875 41.769531 32.667969 41.316406 33.722656 C 41.148438 34.117188 40.953125 34.488281 40.757812 34.851562 C 40.507812 35.324219 40.269531 35.773438 40.113281 36.238281 C 39.792969 37.179688 39.972656 37.394531 39.980469 37.40625 C 39.988281 37.414062 40.183594 37.617188 41.164062 37.414062 C 41.648438 37.3125 42.351562 37.222656 42.894531 37.613281 C 43.253906 37.871094 43.46875 38.277344 43.53125 38.824219 C 43.664062 39.980469 42.964844 40.828125 41.753906 40.984375 C 41.558594 41.011719 41.363281 41.007812 41.164062 41.007812 C 41.003906 41.003906 40.855469 41.003906 40.734375 41.023438 C 40.199219 41.113281 39.816406 41.355469 39.648438 41.707031 C 39.488281 42.042969 39.535156 42.46875 39.78125 42.910156 C 40.042969 43.375 40.832031 44.789062 39.445312 45.761719 C 38.859375 46.167969 38.363281 46.15625 38.050781 46.074219 C 37.625 45.960938 37.261719 45.664062 36.964844 45.1875 C 36.839844 45.507812 36.710938 45.847656 36.554688 46.269531 L 36.449219 46.546875 C 35.910156 48.234375 35.429688 50.664062 35.246094 52.179688 C 35.195312 52.59375 35.410156 53.0625 35.839844 53.464844 C 36.378906 53.96875 37.117188 54.234375 37.683594 54.121094 C 40.539062 53.570312 43.425781 52.914062 46.222656 52.277344 C 47.179688 52.058594 48.136719 51.84375 49.09375 51.628906 C 49.085938 51.238281 49.078125 50.867188 49.070312 50.511719 C 49.042969 49.351562 49.015625 48.34375 49.148438 47.328125 C 49.304688 46.140625 49.789062 45.015625 50.445312 44.320312 C 51.261719 43.460938 52.257812 43.085938 53.25 43.269531 C 54.296875 43.464844 55.183594 44.269531 55.675781 45.472656 C 55.945312 46.121094 56.121094 46.792969 56.296875 47.441406 C 56.363281 47.695312 56.433594 47.953125 56.507812 48.207031 C 56.679688 48.808594 56.851562 49.410156 57.027344 50.039062 L 57.117188 50.367188 C 61.230469 49.722656 64.925781 48.351562 68.398438 46.1875 C 68.644531 46.035156 68.9375 45.875 69.246094 45.710938 C 69.609375 45.511719 69.988281 45.308594 70.3125 45.09375 C 70.410156 45.015625 70.433594 44.953125 70.527344 44.574219 C 70.695312 43.90625 70.683594 43.457031 70.507812 43.21875 C 70.320312 42.960938 69.878906 42.882812 69.542969 42.859375 L 69.367188 42.847656 C 68.675781 42.8125 67.230469 42.730469 67.234375 41.15625 C 67.238281 40.636719 67.386719 40.230469 67.675781 39.941406 C 68.144531 39.480469 68.796875 39.488281 69.328125 39.492188 C 69.449219 39.496094 69.574219 39.496094 69.691406 39.492188 C 70.246094 39.464844 70.648438 39.285156 70.832031 38.984375 C 71.011719 38.6875 70.988281 38.25 70.761719 37.757812 C 70.65625 37.527344 70.492188 37.300781 70.316406 37.058594 C 70.246094 36.960938 70.171875 36.859375 70.105469 36.761719 C 69.53125 35.917969 69.535156 35.253906 69.640625 34.847656 C 69.734375 34.476562 70.003906 33.957031 70.75 33.578125 C 71.3125 33.292969 71.886719 33.234375 72.410156 33.410156 C 72.988281 33.601562 73.46875 34.058594 73.804688 34.734375 C 73.96875 35.058594 74.015625 35.417969 74.058594 35.738281 C 74.144531 36.382812 74.160156 36.378906 74.398438 36.375 C 75.320312 36.351562 75.925781 35.507812 76.515625 34.566406 C 76.582031 34.457031 76.632812 34.289062 76.6875 34.113281 C 76.71875 34.015625 76.746094 33.921875 76.78125 33.828125 C 77.203125 32.621094 78.089844 31.996094 79.257812 32.066406 C 80.304688 32.128906 81.105469 32.683594 81.449219 33.589844 C 82.007812 35.046875 80.824219 35.914062 80.378906 36.242188 C 79.578125 36.828125 79.527344 37.25 79.695312 37.707031 C 79.855469 38.140625 80.179688 38.589844 81.355469 38.664062 C 81.539062 38.675781 81.757812 38.640625 81.984375 38.601562 C 82.179688 38.570312 82.375 38.542969 82.570312 38.53125 C 83.539062 38.46875 84.273438 38.679688 84.757812 39.152344 C 85.039062 39.429688 85.371094 39.9375 85.332031 40.789062 C 85.296875 41.628906 84.914062 42.09375 84.597656 42.339844 C 84.074219 42.742188 83.3125 42.859375 82.457031 42.671875 C 81.136719 42.382812 79.832031 42.582031 78.449219 42.792969 L 77.867188 42.878906 C 76.855469 43.023438 76.703125 43.140625 76.285156 44.804688 C 76.195312 45.175781 76.085938 45.601562 75.734375 46.191406 C 73.699219 50.121094 70.304688 52.917969 65.382812 54.699219 C 64.410156 55.050781 63.410156 55.34375 62.441406 55.628906 C 61.359375 55.945312 60.242188 56.269531 59.1875 56.675781 C 58.835938 56.808594 58.375 57.445312 58.367188 57.667969 C 58.441406 58.625 58.6875 59.589844 58.976562 60.703125 C 59.023438 60.882812 59.074219 61.070312 59.121094 61.257812 C 59.507812 60.996094 59.835938 60.773438 60.160156 60.546875 C 66.238281 56.328125 71.691406 54.894531 77.324219 56.027344 C 82.355469 57.039062 85.957031 62.164062 85.183594 67.210938 C 85.070312 67.949219 84.941406 68.632812 84.796875 69.28125 C 84.929688 69.230469 85.070312 69.1875 85.222656 69.160156 C 86.15625 68.972656 87.359375 69.160156 87.78125 71.113281 C 87.828125 71.316406 87.816406 71.511719 87.796875 71.695312 C 87.859375 71.582031 87.917969 71.445312 87.957031 71.351562 L 88.058594 71.121094 C 88.179688 70.859375 88.28125 70.585938 88.382812 70.3125 C 88.539062 69.878906 88.703125 69.433594 88.945312 69.003906 C 89.289062 68.398438 89.761719 68 90.320312 67.859375 C 90.683594 67.765625 91.261719 67.738281 91.933594 68.152344 C 93.023438 68.820312 93.269531 69.945312 92.59375 71.164062 C 92.488281 71.347656 92.363281 71.492188 92.253906 71.617188 C 92.199219 71.679688 92.144531 71.738281 92.101562 71.808594 C 92.019531 71.921875 91.929688 72.039062 91.835938 72.15625 C 91.394531 72.71875 91.429688 72.761719 91.597656 72.964844 C 91.851562 73.269531 92.128906 73.234375 92.941406 72.960938 C 93.476562 72.777344 94.058594 72.617188 94.632812 72.640625 C 95.722656 72.6875 96.492188 73.402344 96.640625 74.5 C 96.804688 75.714844 96.164062 76.632812 95.042969 76.785156 C 89.527344 77.542969 85.390625 80.648438 81.003906 83.9375 C 80.058594 84.648438 79.109375 85.359375 78.148438 86.042969 C 77.078125 86.808594 76 87.5625 74.910156 88.300781 C 74 88.917969 72.949219 89.160156 71.777344 89.023438 C 70.621094 88.886719 69.738281 88.371094 69.28125 87.5625 C 68.839844 86.777344 68.851562 85.777344 69.316406 84.757812 C 69.535156 84.28125 69.835938 83.816406 70.125 83.363281 C 70.34375 83.03125 70.546875 82.710938 70.707031 82.410156 L 70.773438 82.300781 C 71.265625 81.398438 71.992188 80.242188 72.761719 79.019531 C 73.789062 77.382812 74.851562 75.691406 75.371094 74.578125 L 75.660156 73.960938 C 76.617188 71.917969 77.609375 69.808594 77.914062 67.691406 C 78.125 66.21875 77.6875 64.855469 76.683594 63.851562 C 75.507812 62.683594 73.703125 62.148438 71.855469 62.425781 C 67.867188 63.019531 64.535156 65.058594 61.371094 68.847656 C 61.226562 69.019531 61.09375 69.207031 60.960938 69.390625 C 60.882812 69.5 60.804688 69.609375 60.722656 69.71875 C 58.28125 72.992188 57.914062 73.089844 54.230469 71.519531 L 54.085938 71.457031 C 50.144531 69.773438 46.207031 70.125 42.386719 72.507812 C 40.734375 73.535156 39.8125 75.152344 39.855469 76.945312 C 39.90625 78.867188 41.046875 80.632812 42.914062 81.671875 C 44.277344 82.433594 45.816406 82.804688 47.761719 82.84375 L 47.871094 82.847656 C 48.382812 82.839844 49.914062 82.71875 50.261719 82.644531 C 50.800781 82.316406 50.847656 81.785156 50.851562 81.074219 C 50.851562 80.894531 50.855469 80.738281 50.871094 80.609375 C 50.957031 79.863281 51.25 79.289062 51.714844 78.957031 C 52.007812 78.75 52.515625 78.535156 53.269531 78.703125 C 53.984375 78.863281 54.316406 79.25 54.472656 79.546875 C 54.726562 80.035156 54.699219 80.65625 54.394531 81.386719 C 54.332031 81.535156 54.285156 81.632812 54.261719 81.734375 C 54.128906 82.304688 54.207031 82.417969 54.339844 82.519531 C 54.441406 82.597656 54.53125 82.609375 55.015625 82.390625 C 55.214844 82.300781 55.414062 82.207031 55.609375 82.109375 C 55.898438 81.96875 56.1875 81.828125 56.480469 81.703125 C 57.160156 81.421875 57.746094 81.390625 58.234375 81.605469 C 58.519531 81.734375 58.902344 82.015625 59.113281 82.625 C 59.328125 83.246094 59.195312 83.703125 59.042969 83.976562 C 58.789062 84.445312 58.296875 84.769531 57.574219 84.945312 C 57.316406 85.007812 57.050781 85.046875 56.785156 85.082031 C 56.617188 85.105469 56.449219 85.128906 56.28125 85.160156 C 55.726562 85.269531 55.6875 85.40625 55.671875 85.464844 C 55.648438 85.550781 55.601562 85.707031 56.105469 86.023438 C 56.429688 86.226562 56.773438 86.40625 57.140625 86.59375 C 57.445312 86.753906 57.753906 86.914062 58.050781 87.085938 C 58.710938 87.472656 59.039062 88.128906 58.929688 88.835938 C 58.8125 89.59375 58.347656 90.132812 57.589844 90.390625 C 57.4375 90.441406 57.289062 90.457031 57.160156 90.457031 C 57.277344 90.644531 57.429688 90.832031 57.597656 91.03125 C 57.710938 91.167969 57.828125 91.308594 57.933594 91.453125 C 58.339844 92 58.789062 92.726562 58.632812 93.5 C 58.53125 94 58.203125 94.414062 57.65625 94.734375 C 56.875 95.191406 56.265625 95.128906 55.886719 94.996094 C 55.273438 94.777344 54.800781 94.234375 54.480469 93.378906 L 54.433594 93.25 C 54.160156 92.511719 54.046875 92.382812 53.835938 92.398438 C 53.746094 92.457031 53.710938 92.726562 53.691406 92.886719 C 53.667969 93.078125 53.636719 93.269531 53.59375 93.441406 C 53.382812 94.199219 53.011719 94.730469 52.488281 95.019531 C 52.273438 95.140625 51.96875 95.253906 51.566406 95.253906 " fill-opacity="1" fill-rule="nonzero"/><path fill="#000000" d="M 9.445312 57.066406 C 9.445312 58.101562 8.605469 58.945312 7.566406 58.945312 C 6.53125 58.945312 5.6875 58.101562 5.6875 57.066406 C 5.6875 56.027344 6.53125 55.1875 7.566406 55.1875 C 8.605469 55.1875 9.445312 56.027344 9.445312 57.066406 " fill-opacity="1" fill-rule="nonzero"/><path fill="#000000" d="M 105.847656 59.308594 C 105.847656 60.34375 105.007812 61.1875 103.96875 61.1875 C 102.933594 61.1875 102.089844 60.34375 102.089844 59.308594 C 102.089844 58.269531 102.933594 57.429688 103.96875 57.429688 C 105.007812 57.429688 105.847656 58.269531 105.847656 59.308594 " fill-opacity="1" fill-rule="nonzero"/><path fill="#000000" d="M 96.910156 85.996094 L 96.339844 85.644531 C 100.121094 79.515625 102.390625 72.773438 103.089844 65.605469 L 103.753906 65.667969 C 103.046875 72.9375 100.742188 79.777344 96.910156 85.996094 " fill-opacity="1" fill-rule="nonzero"/><path fill="#000000" d="M 102.875 54.511719 C 99.695312 31.355469 79.640625 13.894531 56.222656 13.894531 C 33.472656 13.894531 13.992188 30.105469 9.902344 52.441406 L 9.242188 52.320312 C 13.394531 29.667969 33.152344 13.226562 56.222656 13.226562 C 79.972656 13.226562 100.3125 30.9375 103.535156 54.421875 Z M 102.875 54.511719 " fill-opacity="1" fill-rule="nonzero"/><path fill="#000000" d="M 56.222656 108.726562 C 44.277344 108.726562 32.84375 104.296875 24.027344 96.25 C 15.269531 88.253906 9.820312 77.378906 8.683594 65.628906 L 9.347656 65.5625 C 11.691406 89.789062 31.84375 108.058594 56.222656 108.058594 C 64.941406 108.058594 73.457031 105.65625 80.847656 101.117188 L 81.199219 101.683594 C 73.703125 106.292969 65.066406 108.726562 56.222656 108.726562 " fill-opacity="1" fill-rule="nonzero"/></svg>