<?xml version="1.0" encoding="UTF-8" standalone="no"?><!DOCTYPE svg PUBLIC "-//W3C//DTD SVG 1.1//EN" "http://www.w3.org/Graphics/SVG/1.1/DTD/svg11.dtd"><svg width="100%" height="100%" viewBox="0 0 2451 1158" version="1.1" xmlns="http://www.w3.org/2000/svg" xmlns:xlink="http://www.w3.org/1999/xlink" xml:space="preserve" xmlns:serif="http://www.serif.com/" style="fill-rule:evenodd;clip-rule:evenodd;stroke-linejoin:round;stroke-miterlimit:2;"><clipPath id="_clip1"><rect x="91.437" y="53.123" width="2258.96" height="1066.38"/></clipPath><g clip-path="url(#_clip1)"><g id="Layer_x0020_1"><path d="M925.25,530.779c24.907,-1.062 49.652,-1.878 74.478,-1.062c9.799,-0.163 26.296,-0.816 35.605,2.042c0.082,0.082 2.614,0.735 3.104,1.143c1.551,0.817 2.613,1.634 3.674,3.022c1.389,1.96 1.96,3.756 1.797,6.043c-0.163,1.715 -0.572,2.94 -1.47,4.41c-1.96,2.776 -4.083,4.001 -7.023,5.471c-5.227,2.042 -10.208,3.839 -15.68,4.982c-2.041,0.408 -17.639,3.43 -18.782,0.735l-0,-0.082c-0.409,-1.306 2.695,-3.593 6.124,-5.798c-2.939,0.408 -5.063,0.653 -5.798,0.735c-24.172,4.165 -48.753,7.268 -73.089,10.535c-37.974,5.798 -76.193,11.188 -114.086,17.476c-47.61,7.84 -95.384,15.353 -142.994,23.519c-22.295,3.757 -44.997,7.758 -67.373,11.107c-0.98,0.081 -1.96,0.245 -3.022,0.326c-0.898,0.164 -1.878,0.327 -2.777,0.49c-26.214,3.43 -53.081,6.125 -79.377,9.065c-46.223,5.308 -92.445,10.535 -138.748,15.108c-6.779,0.735 -13.557,1.47 -20.335,2.123c-14.454,20.09 -28.664,40.506 -42.71,61.33c-38.873,58.39 -74.152,115.964 -106.818,178.029c-15.352,29.562 -28.827,57.573 -41.24,88.361c-0.653,1.633 -1.388,3.348 -2.123,4.981c-0.654,1.715 -1.225,3.512 -1.96,5.309c-3.92,10.453 -7.595,20.334 -10.862,31.114c-3.593,12.576 -6.533,24.499 -7.186,37.647c-0.082,4.492 -0,10.208 1.878,14.373c0.082,0.163 0.327,0.653 0.408,0.735c0.572,0.49 1.715,0.898 2.369,1.143c6.288,1.715 14.046,0.98 20.334,0.245c29.073,-4.001 58.554,-15.189 85.748,-25.887c43.037,-17.15 85.339,-36.341 127.805,-54.961c52.837,-22.947 105.51,-44.915 159.246,-65.821c58.145,-22.213 114.82,-42.139 174.517,-59.86c54.225,-15.843 108.205,-29.726 163.655,-40.587c3.43,-0.735 19.6,-4.084 38.137,-7.432c9.065,-19.518 20.008,-38.301 31.278,-56.593c21.641,-34.708 44.589,-66.067 70.64,-97.508c2.531,-2.695 4.818,-5.798 7.268,-8.493c0.408,-0.49 0.898,-0.898 1.306,-1.306c0.327,-0.49 0.654,-0.899 1.062,-1.307c5.227,-5.553 10.698,-11.106 16.333,-16.578c-0.49,-12.413 0.327,-23.519 1.715,-35.851c1.143,-10.861 2.613,-21.477 4.491,-32.175c0.082,-0.654 0.735,-6.044 1.389,-10.617c-0.082,-0.572 -0.082,-1.062 -0.082,-1.633c0,-4.328 0.245,-8.983 1.96,-13.066c0.327,-0.572 1.143,-1.879 1.633,-2.287c0.572,-0.408 1.634,-1.552 2.287,-1.715c1.47,-0.817 2.858,-1.143 4.573,-1.225c2.042,-0 3.593,0.49 5.308,1.552c1.144,0.735 1.96,1.47 2.777,2.613c0.735,1.062 1.143,1.96 1.552,3.185c0.571,2.041 0.816,3.756 0.98,5.798c0.98,6.043 1.061,12.658 1.143,18.701c0.49,10.617 0.572,21.315 0.898,32.013c0.082,2.041 0.163,4.001 0.245,6.043c8.983,-7.922 18.048,-15.598 26.949,-22.948c22.376,-18.701 44.263,-35.442 69.089,-50.959c13.638,-9.064 28.664,-18.619 43.772,-25.071c3.511,-1.715 25.724,-11.759 28.991,-9.636l-0,0.082c1.388,2.613 -19.192,19.844 -21.151,21.641c-11.515,10.861 -25.153,21.559 -37.321,31.931c-20.498,18.864 -40.424,37.565 -60.269,57.246c-13.882,14.537 -27.03,28.828 -40.097,43.283c0.245,0.408 0.49,0.735 0.817,1.061c1.551,1.878 2.94,3.022 5.063,4.165c2.613,1.388 4.982,2.042 7.84,2.613c6.696,0.98 11.515,0.817 18.129,0.409c0.409,-0 0.817,-0 1.144,0.081c0.408,-0.081 0.816,-0.163 1.225,-0.163c3.511,-0.245 6.696,-0.408 10.208,-0.735c16.006,-1.715 29.971,-5.471 45.242,-10.535c17.149,-5.88 32.992,-12.739 49.325,-20.334c12.658,-6.207 25.071,-12.576 37.484,-19.028c0.572,-0.735 1.225,-1.552 1.797,-2.287c6.288,-7.104 12.903,-13.229 20.089,-19.436c8.902,-7.35 16.823,-13.393 26.95,-19.109c8.819,-4.737 17.639,-8.493 27.194,-11.433c3.021,-0.98 12.576,-2.94 19.518,-2.777c0.571,-0.653 1.143,-1.306 1.715,-1.96l2.204,-2.286c0.327,-0.409 0.735,-0.817 1.144,-1.144c0.408,-0.49 0.735,-0.898 1.143,-1.306c1.388,-1.47 3.512,-3.594 5.635,-5.717c2.123,-2.776 4.246,-5.553 6.451,-8.33c2.042,-2.368 3.839,-4.001 6.534,-5.716c3.021,-1.797 5.471,-2.613 8.983,-3.103c3.593,-0.327 6.37,-0 9.799,1.225c4.492,1.878 7.432,4.246 10.127,8.248c1.96,3.185 2.858,5.798 3.266,9.473c0.164,2.123 0.082,3.838 -0.245,5.961c-0.49,2.287 -1.061,4.084 -2.123,6.207c-1.307,2.613 -2.695,4.491 -4.573,6.615c-4.328,4.818 -8.33,9.881 -12.74,14.618c-0.408,0.408 -0.898,0.816 -1.306,1.225c-0.409,0.49 -0.735,0.898 -1.144,1.306c-0.735,0.817 -1.551,1.633 -2.368,2.368c-1.878,1.797 -3.757,3.594 -5.635,5.39c-2.531,3.675 -4.818,7.432 -7.186,11.678c-2.695,4.982 -5.308,10.045 -7.105,15.353c-0.245,0.49 -0.653,2.369 -0.653,2.94l-0.164,0.98c0,0.245 0.082,0.327 -0.081,0.49c-0.164,0.245 0.081,0.49 0.326,0.572c2.45,1.551 8.167,0.98 10.862,0.571c7.839,-1.061 14.291,-3.429 21.477,-6.533c10.208,-4.491 19.355,-9.636 28.91,-15.271c8.493,-5.308 17.231,-10.698 25.887,-15.843c0.409,-0.735 0.735,-1.47 1.144,-2.205c3.429,-6.86 7.676,-13.719 11.351,-20.579c0.082,-0.164 0.163,-0.327 0.245,-0.49l-0,-0.245c0.653,-4.002 4.246,-8.738 6.696,-11.597c2.124,-2.041 3.92,-3.185 6.534,-4.41c3.919,-1.633 7.104,-2.041 11.351,-1.633c3.185,0.49 5.553,1.307 8.411,2.94c2.532,1.633 4.329,3.185 6.125,5.635c2.123,3.103 3.267,5.716 3.92,9.31c0.245,1.633 0.327,3.021 0.245,4.655c0.082,1.225 -0.408,2.695 -0.572,3.919c-0.163,0.817 -0.653,2.369 -0.98,3.185c-0.245,0.572 -0.571,1.225 -0.735,1.715c-1.061,2.614 -2.368,5.064 -3.756,7.513c-4.002,6.86 -8.248,13.72 -12.331,20.58c-6.125,10.453 -11.597,20.906 -17.395,31.441c-3.838,7.595 -7.431,15.026 -10.616,22.866c0.245,-0.245 0.571,-0.409 0.816,-0.654c9.637,-6.941 17.966,-14.862 26.378,-23.274c11.106,-11.106 21.233,-22.458 31.441,-34.462c10.289,-12.332 20.171,-24.826 30.052,-37.566c7.187,-8.983 14.128,-18.701 20.906,-28.011c0.409,-1.225 0.899,-2.531 1.307,-3.756c2.858,-7.024 6.043,-12.822 10.045,-19.11c2.858,-4.246 5.88,-8.33 9.473,-11.923c0.653,-0.735 1.878,-1.552 2.613,-2.123c1.715,-1.062 3.103,-1.633 5.145,-2.042c2.287,-0.326 4.002,-0.081 6.125,0.654c1.388,0.571 2.45,1.224 3.593,2.286c1.062,0.98 1.715,1.878 2.45,3.185c0.898,1.797 1.225,3.267 1.307,5.227c-0,1.143 -0.082,1.959 -0.327,3.021c-1.062,4.655 -3.512,8.738 -5.717,12.903c-3.919,7.677 -8.003,14.781 -12.494,22.131c-2.695,4.492 -5.39,8.902 -8.167,13.23c0.49,1.551 1.062,2.613 2.124,3.92c3.021,3.43 7.268,4.981 11.596,6.206c6.125,1.552 11.841,2.124 17.966,2.532c1.552,-2.205 3.185,-4.328 4.818,-6.697c0.899,-1.388 2.205,-3.103 3.43,-4.41c11.188,-10.371 17.558,-0.49 22.703,9.31c1.878,3.757 7.186,18.048 9.065,19.436c-0.735,0.654 -1.307,1.389 -1.96,2.124c-3.267,3.675 -6.37,7.104 -9.392,11.024c-0.163,0.245 -0.326,0.409 -0.49,0.654c6.289,-1.797 12.658,-4.002 18.783,-6.207c10.127,-3.511 20.171,-7.268 30.298,-10.78c7.35,-2.613 14.863,-5.226 22.457,-7.186c24.745,-24.744 59.861,-45.814 84.197,-46.467c13.801,-0.408 25.234,7.186 26.704,20.988c2.286,20.742 -21.315,37.075 -38.627,41.894c-9.474,2.694 -22.785,3.756 -31.36,-2.205c-10.534,10.289 -20.742,22.539 -25.479,33.155c39.281,-0.571 143.24,-44.833 159.817,-74.069c-1.878,-0.572 -3.593,-1.144 -5.308,-2.124c-1.225,-0.571 -2.123,-1.143 -3.185,-1.96c-1.47,-1.225 -2.286,-2.368 -3.021,-4.164c-0.735,-2.124 -0.817,-3.839 -0.245,-6.044c0.326,-1.143 0.816,-2.041 1.551,-3.103c0.409,-0.408 1.389,-1.715 1.96,-1.96c1.552,-0.98 2.695,-1.47 4.574,-1.796c0.571,-0 1.224,-0.082 1.878,-0.082c0.898,0.082 1.796,0.163 2.695,0.327c1.388,0.245 3.511,0.571 4.9,1.061c0.816,0.327 2.94,0.817 4.083,1.307c2.858,0.082 5.635,-0 8.411,-0c6.533,-0.49 14.128,-0.082 20.58,-1.225c5.145,-0.572 9.309,-1.552 14.291,-2.695c6.206,-1.225 10.861,-2.042 17.231,-0.408c2.45,0.816 4.165,1.715 6.125,3.348c2.205,1.878 3.512,3.593 4.655,6.206c0.98,2.369 1.47,4.329 1.552,6.86c-0,2.123 -0.245,3.838 -0.735,5.88c-1.96,6.697 -5.39,11.106 -9.637,16.333c-5.063,6.37 -10.453,12.25 -16.088,18.211c-5.798,6.125 -11.678,12.005 -16.986,18.538c-4.492,5.635 -8.085,10.861 -11.188,17.394c-0.898,2.042 -2.777,6.37 -2.777,9.147c0,-0 0.082,-0 0.245,0.082c5.554,1.878 10.78,2.123 16.578,2.205c14.863,-0.409 29.073,-2.614 43.691,-5.309c2.368,-0.571 5.063,-1.061 7.513,-1.551c0.572,-0.082 1.143,-0.164 1.715,-0.164c0.653,-0.245 1.306,-0.408 1.96,-0.49c18.946,-3.511 37.157,-6.941 56.022,-11.024c28.256,-5.962 56.266,-12.168 84.604,-17.64c29.971,-5.553 58.798,-10.045 89.178,-12.903c25.642,-2.286 51.367,-3.838 77.173,-2.531c4.654,0.163 42.302,1.225 44.588,7.186l0,0.082c-0.163,4.083 -40.914,7.431 -43.853,7.921c-24.908,4.083 -49.407,7.758 -74.315,12.495c-28.828,5.88 -56.839,12.821 -85.258,20.498c-27.602,7.513 -55.042,15.679 -82.563,23.519c-19.109,4.655 -38.137,10.78 -57.491,14.455c-0.735,0.163 -1.389,0.245 -2.124,0.326c-0.653,0.164 -1.225,0.327 -1.878,0.409c-2.695,0.571 -5.471,0.898 -8.248,1.306c-17.803,2.613 -34.054,4.083 -52.102,3.103c-13.475,-0.898 -24.418,-2.776 -36.014,-10.208c-5.39,-3.838 -8.82,-7.513 -12.005,-13.311c-2.776,-5.553 -3.838,-10.126 -4.001,-16.333c0.245,-10.698 3.185,-18.374 8.248,-27.684c5.145,-8.82 10.453,-15.598 17.394,-23.111c6.534,-6.697 13.312,-12.495 20.335,-18.701c2.695,-2.45 5.308,-4.818 7.921,-7.35c-0.816,0.082 -1.633,0.082 -2.45,-0c-7.594,-0 -15.189,-0.572 -22.784,-1.307c-0.49,-0.081 -1.062,-0.163 -1.552,-0.163c-31.604,46.794 -84.196,82.563 -136.706,101.672c-16.088,5.88 -37.974,12.25 -55.287,8.738c-21.314,-4.328 -32.502,-22.212 -27.439,-43.364c0.653,-2.694 1.633,-5.389 2.776,-8.166c-5.063,3.022 -10.208,6.043 -15.352,9.065c-9.229,5.226 -18.375,9.391 -27.93,13.719c-8.411,3.022 -15.679,5.227 -24.662,4.982c-5.309,-0.49 -9.147,-1.715 -13.72,-4.655c-2.613,-1.878 -4.41,-3.675 -6.207,-6.37c-1.714,-2.613 -2.694,-4.9 -3.429,-7.921c-1.062,-4.818 -0.98,-8.412 -0.082,-13.23c0.572,-3.43 1.47,-6.451 2.613,-9.718c2.205,-6.288 4.573,-11.76 7.758,-17.394c-4.491,0.245 -8.819,0.081 -13.556,-0.409c-7.758,-1.143 -13.72,-2.94 -19.926,-8.085c-0.245,-0.245 -0.49,-0.408 -0.735,-0.653c-1.388,2.123 -2.777,4.165 -4.165,6.288c-8.82,13.965 -18.946,27.113 -28.501,40.588c-9.963,13.311 -20.089,25.887 -31.114,38.382c-9.31,10.29 -18.456,19.681 -29.154,28.501c-8.248,6.451 -15.762,11.351 -25.48,15.271c-4.409,1.552 -7.921,2.45 -12.576,2.777c-5.88,0.081 -10.208,-0.899 -15.271,-3.757c-5.39,-3.43 -8.412,-7.268 -10.78,-13.066c-1.715,-4.819 -2.123,-8.657 -1.96,-13.638c0.408,-9.147 2.532,-16.823 5.39,-25.48c3.185,-9.554 6.86,-18.374 11.025,-27.439c-8.248,6.697 -16.333,12.821 -25.398,18.62c-9.146,5.39 -17.068,9.309 -27.276,12.331c-9.31,2.368 -16.986,3.185 -26.459,0.898c-4.737,-1.388 -8.167,-3.103 -12.086,-6.288c-3.594,-3.021 -5.799,-5.88 -8.085,-9.963c-0.98,-1.96 -1.797,-3.756 -2.369,-5.635c-5.634,4.247 -11.269,8.248 -17.312,12.005c-6.452,4.083 -12.332,7.431 -19.273,10.453c-6.533,2.858 -12.005,4.818 -19.11,5.635c-3.838,0.408 -6.778,0.245 -10.616,-0.572c-4.002,-0.98 -6.942,-2.286 -10.208,-4.9c-2.695,-2.205 -4.492,-4.41 -5.962,-7.186c-5.226,3.838 -10.534,7.513 -16.006,11.106c-16.496,11.025 -32.176,20.335 -50.06,28.909c-17.64,8.085 -33.728,14.047 -52.674,18.048c-4.491,0.817 -9.31,1.552 -13.883,1.96l-1.715,0c-0.49,0.082 -1.061,0.082 -1.633,0.164c-10.535,0.326 -20.253,-1.062 -30.461,-4.002c-7.595,-2.368 -13.148,-5.063 -19.599,-9.718c-3.675,-2.858 -6.615,-5.553 -9.228,-8.738c-0.327,0.408 -0.654,0.735 -1.062,1.061c-0.327,0.49 -0.735,0.98 -1.143,1.389c-2.369,2.613 -5.145,5.145 -7.432,7.84c-27.031,28.337 -52.02,56.593 -76.601,87.136c-8.575,11.188 -16.578,22.294 -24.499,33.482c16.332,-2.368 29.807,-3.512 32.42,-1.388c0.49,2.205 -20.007,8.901 -42.465,15.598c-5.553,8.003 -11.188,16.006 -16.905,24.172c-3.348,5.472 -6.778,10.862 -10.289,16.333c-1.062,2.042 -12.005,21.886 -15.19,20.906l-0.082,0c-3.92,-2.695 2.124,-22.947 3.104,-26.296c1.878,-6.615 4.083,-12.658 6.696,-19.028c0.898,-2.531 1.797,-4.981 2.777,-7.431c-13.965,3.92 -24.745,6.86 -26.215,7.35c-53.408,16.496 -106,32.747 -158.919,51.122c-57.655,20.661 -112.86,42.955 -169.045,67.373c-52.265,22.784 -103.632,46.63 -155.081,71.293c-42.302,20.253 -84.441,41.077 -127.397,59.942c-31.767,13.556 -63.208,26.132 -97.344,32.176c-14.781,2.123 -26.622,2.776 -41.24,-0.572c-7.677,-2.042 -13.312,-4.41 -19.926,-8.82c-6.779,-4.818 -11.188,-9.473 -15.762,-16.496c-8.493,-14.455 -10.534,-27.113 -10.698,-43.691c0.327,-18.701 3.349,-34.217 8.167,-52.183c3.348,-12.25 7.105,-24.255 11.596,-36.096c0.817,-1.96 1.552,-3.92 2.368,-5.88c0.735,-1.878 1.389,-3.675 2.124,-5.553c13.148,-32.012 29.236,-62.718 45.813,-93.016c35.443,-62.881 73.417,-120.863 115.147,-179.743c6.779,-9.392 13.638,-18.701 20.498,-27.848c-7.431,0.49 -14.781,0.98 -22.213,1.388c-21.232,1.552 -42.628,2.859 -63.861,1.715c-10.127,-0.081 -21.151,-0.408 -30.788,-3.838c-1.796,-0.571 -3.266,-1.143 -4.9,-2.123c-0.653,-0.49 -2.368,-1.307 -2.858,-1.96c-1.388,-1.388 -2.286,-2.613 -3.103,-4.41c-0.898,-2.613 -0.98,-4.818 -0.163,-7.431c0.653,-2.042 1.551,-3.349 3.103,-4.819c1.878,-1.551 3.511,-2.286 5.798,-3.021c6.697,-1.633 15.271,-2.123 22.213,-2.287c2.531,0.082 15.761,1.307 25.234,2.695c15.19,-2.123 30.543,-4.41 45.487,-7.105c19.273,-3.43 38.464,-7.023 57.737,-10.534c28.338,-36.423 57.492,-71.783 88.524,-107.144c41.976,-47.529 83.788,-91.301 130.092,-134.502c30.297,-28.582 60.431,-55.286 93.669,-80.439c16.823,-12.985 33.727,-25.479 52.347,-35.932c4.491,-2.614 8.901,-5.145 13.719,-7.105c1.879,-0.817 3.512,-1.389 5.472,-1.797c0.898,-0.082 2.532,-0.571 3.348,-0.408c1.715,-0 2.94,0.245 4.492,0.816c2.205,0.899 3.675,1.96 5.063,3.839c1.225,1.878 1.797,3.511 2.042,5.798c-0,2.695 -0.49,4.573 -1.552,7.023c-2.205,4.247 -5.227,8.003 -8.166,11.678c-9.474,10.78 -19.437,21.559 -29.645,31.604c-6.451,5.962 -42.629,40.016 -46.63,40.914l0.082,-0.082c1.061,-3.184 31.195,-42.873 36.095,-49.897c1.144,-1.551 4.165,-5.471 7.758,-10.044c-9.554,7.513 -18.946,15.271 -28.337,23.274c-30.216,27.194 -58.635,54.715 -87.136,83.788c-42.629,44.915 -82.318,89.831 -121.68,137.768c-18.375,22.784 -36.096,45.65 -53.49,68.68c38.708,-7.187 77.254,-14.537 116.045,-21.233c26.214,-4.41 52.755,-9.718 79.051,-13.393c0.898,-0.163 1.878,-0.245 2.777,-0.245c1.061,-0.245 2.041,-0.49 3.021,-0.572c22.458,-3.021 45.569,-5.226 68.108,-7.595c48.427,-5.063 96.609,-9.718 145.2,-13.393c38.79,-3.103 77.254,-5.634 116.127,-6.696Zm880.016,24.336c-5.88,2.613 -11.678,6.288 -16.578,9.718c-1.552,1.062 -3.266,2.368 -5.063,3.757c3.022,-0.817 5.961,-1.96 8.003,-3.022c4.247,-2.123 9.718,-6.043 13.638,-10.453Zm-510.321,55.695c20.008,-13.229 36.667,-30.869 53.163,-48.182c-18.129,12.821 -42.955,28.011 -53.163,48.182Zm-69.088,-536.617c1.225,-0.245 2.449,-0.49 3.674,-0.653c45.324,-5.554 92.118,-9.392 137.605,-12.822c49.407,-3.675 98.242,-6.37 147.894,-7.105c34.626,-0.816 68.435,-0.735 103.061,1.144c16.986,0.49 36.831,0.98 53.49,4.083c5.308,0.817 9.555,1.633 14.21,4.41c2.123,1.388 3.511,2.695 4.9,4.818c0.98,1.633 1.551,3.103 1.878,4.982c0.408,1.96 0.327,3.593 -0.082,5.553c-0.653,2.858 -1.715,4.818 -3.756,6.941c-1.144,1.144 -2.123,1.96 -3.43,2.777c-6.86,3.348 -16.496,4.981 -24.009,6.615c-10.78,2.286 -21.968,4.655 -32.83,6.615c-9.554,1.959 -19.109,3.756 -28.745,5.226c-4.084,0.817 -11.678,2.45 -15.762,2.532c-8.085,1.796 -9.391,-8.003 -3.103,-10.29c3.757,-2.287 10.943,-4.655 15.108,-6.125c4.083,-1.633 8.166,-3.185 12.331,-4.736c-30.379,1.959 -60.676,4.001 -91.056,6.451c-48.1,5.308 -97.099,9.31 -144.954,16.333c-45.324,6.043 -90.239,12.985 -135.318,19.273c-1.225,0.163 -2.45,0.245 -3.675,0.408c-1.143,0.163 -2.287,0.408 -3.43,0.49c-8.411,1.143 -16.986,1.878 -25.398,3.022c-54.715,6.859 -109.675,12.658 -164.308,20.007c-45.814,6.207 -91.628,12.74 -137.442,18.702c-33.891,4.899 -67.863,9.963 -101.835,13.964c-17.885,2.613 -36.096,5.39 -54.062,6.86c-5.717,0.898 -11.107,1.797 -16.823,1.96c-0,-0 -0.653,0.082 -0.735,0.082c-0.408,-0.082 -1.143,-0 -1.552,-0.082c-0.653,-0.163 -1.878,-0.327 -2.45,-0.653c-1.143,-0.49 -1.96,-0.98 -2.858,-1.797c-1.633,-1.552 -2.532,-3.185 -3.103,-5.39c-0.327,-2.286 -0.164,-4.083 0.816,-6.206c0.572,-1.144 1.062,-1.879 1.879,-2.777c0.735,-0.49 1.306,-1.143 2.123,-1.552c0.408,-0.245 0.898,-0.49 1.388,-0.653c4.737,-1.633 12.087,-3.103 17.232,-4.491c17.312,-5.145 35.36,-9.147 52.918,-13.148c33.319,-8.493 66.802,-15.925 100.447,-23.193c45.488,-9.391 90.648,-20.09 136.462,-28.338c54.552,-9.718 109.348,-21.314 164.227,-29.072c8.575,-1.143 17.068,-2.777 25.643,-3.838c1.143,-0.164 2.286,-0.245 3.43,-0.327Zm481.738,345.032c1.307,-0.898 9.8,-4.246 10.943,-4.41c7.922,-2.694 15.517,-4.246 23.928,-2.531c5.88,0.571 13.556,2.45 14.945,9.31c0.163,5.471 -5.064,10.126 -8.657,13.474c-3.266,4.328 -7.023,8.412 -10.616,12.413c-0.49,0.817 -4.655,5.962 -5.39,6.533c-0.082,0 -0.163,0.082 -0.245,0.082c-0.082,0.082 -0.082,0.082 -0.163,0.163c-2.287,1.307 -8.738,3.512 -11.27,4.165c-8.493,1.225 -26.296,7.595 -30.543,5.308l0,-0.081c-2.613,-5.063 4.737,-26.215 7.432,-32.013c1.96,-3.43 6.206,-9.473 9.146,-12.004c0.082,-0.082 0.245,-0.082 0.327,-0.082c-0,-0.163 0.082,-0.245 0.163,-0.327Z" style="fill:#fff;"/></g></g><clipPath id="_clip2"><rect x="78.195" y="37.397" width="2294.61" height="1083.2"/></clipPath><g clip-path="url(#_clip2)"><g id="Layer_x0020_11" serif:id="Layer_x0020_1"><path d="M925.167,522.592c25.301,-1.079 50.436,-1.908 75.654,-1.079c9.954,-0.166 26.711,-0.829 36.167,2.074c0.083,0.083 2.655,0.747 3.153,1.161c1.576,0.83 2.654,1.66 3.733,3.07c1.41,1.991 1.99,3.816 1.825,6.138c-0.166,1.742 -0.581,2.987 -1.494,4.48c-1.99,2.82 -4.147,4.065 -7.134,5.558c-5.309,2.074 -10.369,3.898 -15.927,5.06c-2.073,0.415 -17.918,3.484 -19.079,0.746l0,-0.083c-0.415,-1.327 2.738,-3.649 6.222,-5.889c-2.987,0.415 -5.144,0.663 -5.89,0.746c-24.554,4.231 -49.523,7.383 -74.243,10.701c-38.574,5.89 -77.396,11.365 -115.886,17.752c-48.362,7.964 -96.89,15.596 -145.252,23.891c-22.646,3.816 -45.707,7.881 -68.436,11.282c-0.996,0.083 -1.991,0.248 -3.069,0.331c-0.913,0.166 -1.908,0.332 -2.821,0.498c-26.628,3.484 -53.92,6.222 -80.631,9.208c-46.951,5.392 -93.903,10.701 -140.937,15.346c-6.885,0.747 -13.771,1.493 -20.656,2.157c-14.683,20.407 -29.116,41.145 -43.384,62.298c-39.486,59.312 -75.322,117.794 -108.503,180.838c-15.596,30.03 -29.283,58.483 -41.892,89.756c-0.663,1.659 -1.41,3.401 -2.157,5.06c-0.663,1.742 -1.244,3.567 -1.991,5.392c-3.981,10.618 -7.714,20.656 -11.032,31.605c-3.65,12.775 -6.637,24.886 -7.3,38.242c-0.083,4.562 -0,10.369 1.908,14.6c0.083,0.166 0.332,0.663 0.414,0.746c0.581,0.498 1.742,0.913 2.406,1.162c6.388,1.742 14.268,0.995 20.656,0.248c29.531,-4.064 59.477,-15.429 87.101,-26.296c43.716,-17.42 86.686,-36.914 129.822,-55.827c53.67,-23.31 107.175,-45.625 161.759,-66.861c59.063,-22.563 116.632,-42.804 177.271,-60.805c55.081,-16.093 109.913,-30.195 166.239,-41.227c3.484,-0.747 19.908,-4.148 38.739,-7.549c9.208,-19.826 20.323,-38.905 31.771,-57.487c21.983,-35.255 45.293,-67.109 71.755,-99.046c2.571,-2.738 4.894,-5.89 7.383,-8.627c0.414,-0.498 0.912,-0.913 1.327,-1.328c0.332,-0.497 0.663,-0.912 1.078,-1.327c5.309,-5.641 10.867,-11.282 16.591,-16.839c-0.498,-12.609 0.332,-23.891 1.742,-36.417c1.161,-11.033 2.654,-21.817 4.562,-32.684c0.083,-0.663 0.747,-6.138 1.411,-10.784c-0.083,-0.58 -0.083,-1.078 -0.083,-1.659c-0,-4.396 0.248,-9.124 1.99,-13.272c0.332,-0.581 1.162,-1.908 1.66,-2.323c0.58,-0.415 1.659,-1.576 2.322,-1.742c1.493,-0.829 2.904,-1.161 4.646,-1.244c2.073,-0 3.65,0.498 5.392,1.576c1.161,0.747 1.99,1.493 2.82,2.654c0.747,1.079 1.161,1.991 1.576,3.236c0.581,2.073 0.83,3.815 0.996,5.889c0.995,6.139 1.078,12.858 1.161,18.997c0.498,10.784 0.581,21.65 0.912,32.517c0.083,2.074 0.166,4.065 0.249,6.139c9.125,-8.047 18.333,-15.844 27.375,-23.31c22.729,-18.996 44.961,-36.002 70.178,-51.763c13.854,-9.208 29.117,-18.913 44.463,-25.467c3.567,-1.742 26.131,-11.945 29.449,-9.788l-0,0.083c1.41,2.654 -19.494,20.158 -21.485,21.983c-11.696,11.032 -25.55,21.899 -37.91,32.434c-20.821,19.163 -41.062,38.159 -61.219,58.151c-14.102,14.765 -27.458,29.282 -40.73,43.965c0.248,0.415 0.497,0.747 0.829,1.078c1.576,1.908 2.986,3.07 5.143,4.231c2.655,1.41 5.06,2.074 7.964,2.654c6.802,0.996 11.696,0.83 18.415,0.415c0.415,0 0.83,0 1.162,0.083c0.415,-0.083 0.829,-0.166 1.244,-0.166c3.567,-0.249 6.802,-0.415 10.369,-0.746c16.259,-1.742 30.444,-5.558 45.956,-10.701c17.421,-5.973 33.514,-12.941 50.104,-20.656c12.858,-6.304 25.467,-12.775 38.076,-19.328c0.581,-0.746 1.244,-1.576 1.825,-2.323c6.387,-7.216 13.106,-13.438 20.406,-19.742c9.042,-7.466 17.089,-13.605 27.375,-19.412c8.959,-4.811 17.918,-8.627 27.623,-11.613c3.07,-0.995 12.775,-2.986 19.826,-2.82c0.581,-0.664 1.162,-1.328 1.742,-1.991l2.24,-2.323c0.332,-0.415 0.747,-0.83 1.161,-1.161c0.415,-0.498 0.747,-0.913 1.162,-1.328c1.41,-1.493 3.567,-3.65 5.724,-5.806c2.156,-2.821 4.313,-5.641 6.553,-8.462c2.074,-2.405 3.899,-4.064 6.636,-5.806c3.069,-1.825 5.558,-2.655 9.125,-3.153c3.65,-0.331 6.47,0 9.954,1.245c4.563,1.908 7.549,4.313 10.287,8.378c1.991,3.235 2.903,5.89 3.318,9.623c0.166,2.156 0.083,3.898 -0.249,6.055c-0.498,2.323 -1.078,4.148 -2.157,6.305c-1.327,2.654 -2.737,4.562 -4.645,6.719c-4.397,4.894 -8.462,10.037 -12.941,14.849c-0.415,0.414 -0.912,0.829 -1.327,1.244c-0.415,0.498 -0.747,0.912 -1.162,1.327c-0.746,0.83 -1.576,1.659 -2.405,2.406c-1.908,1.825 -3.816,3.65 -5.724,5.475c-2.572,3.733 -4.894,7.548 -7.3,11.862c-2.737,5.06 -5.392,10.203 -7.217,15.595c-0.249,0.498 -0.664,2.406 -0.664,2.987l-0.165,0.995c-0,0.249 0.083,0.332 -0.083,0.498c-0.166,0.249 0.083,0.497 0.331,0.58c2.489,1.577 8.296,0.996 11.033,0.581c7.964,-1.078 14.517,-3.484 21.817,-6.636c10.369,-4.563 19.66,-9.789 29.365,-15.512c8.628,-5.392 17.504,-10.867 26.297,-16.093c0.414,-0.747 0.746,-1.494 1.161,-2.24c3.484,-6.968 7.798,-13.936 11.531,-20.904c0.083,-0.166 0.165,-0.332 0.248,-0.498l0,-0.249c0.664,-4.065 4.314,-8.876 6.803,-11.779c2.156,-2.074 3.981,-3.236 6.636,-4.48c3.982,-1.659 7.217,-2.074 11.53,-1.659c3.236,0.498 5.641,1.327 8.545,2.986c2.571,1.659 4.396,3.236 6.221,5.724c2.157,3.152 3.318,5.807 3.982,9.457c0.249,1.659 0.332,3.069 0.249,4.728c0.083,1.245 -0.415,2.738 -0.581,3.982c-0.166,0.83 -0.664,2.406 -0.995,3.235c-0.249,0.581 -0.581,1.244 -0.747,1.742c-1.078,2.655 -2.406,5.143 -3.816,7.632c-4.065,6.968 -8.378,13.936 -12.526,20.904c-6.221,10.618 -11.779,21.236 -17.669,31.937c-3.899,7.715 -7.549,15.264 -10.784,23.227c0.249,-0.249 0.581,-0.415 0.83,-0.663c9.788,-7.052 18.249,-15.098 26.794,-23.642c11.281,-11.282 21.568,-22.812 31.937,-35.007c10.452,-12.525 20.489,-25.217 30.527,-38.158c7.299,-9.125 14.351,-18.996 21.236,-28.453c0.414,-1.244 0.912,-2.572 1.327,-3.816c2.903,-7.134 6.138,-13.024 10.203,-19.411c2.904,-4.314 5.973,-8.461 9.623,-12.111c0.663,-0.747 1.908,-1.576 2.654,-2.157c1.742,-1.078 3.152,-1.659 5.226,-2.074c2.323,-0.332 4.065,-0.083 6.222,0.664c1.41,0.58 2.488,1.244 3.65,2.322c1.078,0.996 1.742,1.908 2.488,3.236c0.913,1.825 1.245,3.318 1.328,5.309c-0,1.161 -0.083,1.991 -0.332,3.069c-1.079,4.728 -3.567,8.876 -5.807,13.107c-3.982,7.797 -8.129,15.014 -12.692,22.48c-2.737,4.562 -5.475,9.042 -8.295,13.438c0.498,1.577 1.078,2.655 2.157,3.982c3.069,3.484 7.383,5.06 11.779,6.305c6.222,1.576 12.028,2.156 18.25,2.571c1.576,-2.24 3.235,-4.396 4.894,-6.802c0.913,-1.41 2.24,-3.152 3.484,-4.479c11.365,-10.536 17.835,-0.498 23.061,9.456c1.908,3.816 7.3,18.333 9.208,19.743c-0.747,0.664 -1.327,1.41 -1.991,2.157c-3.318,3.733 -6.47,7.217 -9.54,11.199c-0.165,0.248 -0.331,0.414 -0.497,0.663c6.387,-1.825 12.857,-4.064 19.079,-6.304c10.286,-3.567 20.489,-7.383 30.776,-10.95c7.465,-2.655 15.097,-5.309 22.812,-7.3c25.135,-25.135 60.805,-46.537 85.525,-47.2c14.019,-0.415 25.632,7.299 27.126,21.319c2.322,21.07 -21.651,37.66 -39.237,42.555c-9.623,2.737 -23.144,3.816 -31.854,-2.24c-10.701,10.452 -21.071,22.895 -25.882,33.679c39.901,-0.581 145.5,-45.541 162.34,-75.239c-1.908,-0.58 -3.65,-1.161 -5.392,-2.157c-1.244,-0.58 -2.157,-1.161 -3.235,-1.99c-1.493,-1.245 -2.323,-2.406 -3.07,-4.231c-0.746,-2.157 -0.829,-3.899 -0.248,-6.139c0.331,-1.161 0.829,-2.073 1.576,-3.152c0.414,-0.415 1.41,-1.742 1.991,-1.991c1.576,-0.995 2.737,-1.493 4.645,-1.825c0.581,0 1.244,-0.083 1.908,-0.083c0.912,0.083 1.825,0.166 2.737,0.332c1.411,0.249 3.567,0.581 4.978,1.079c0.829,0.331 2.986,0.829 4.147,1.327c2.904,0.083 5.724,-0 8.544,-0c6.637,-0.498 14.351,-0.083 20.905,-1.244c5.226,-0.581 9.456,-1.577 14.516,-2.738c6.305,-1.244 11.033,-2.074 17.504,-0.415c2.488,0.83 4.23,1.742 6.221,3.401c2.24,1.908 3.567,3.65 4.728,6.305c0.996,2.406 1.494,4.396 1.577,6.968c-0,2.157 -0.249,3.899 -0.747,5.973c-1.991,6.802 -5.475,11.281 -9.788,16.59c-5.144,6.471 -10.619,12.443 -16.342,18.499c-5.89,6.221 -11.863,12.194 -17.255,18.83c-4.562,5.724 -8.212,11.033 -11.364,17.669c-0.913,2.074 -2.821,6.471 -2.821,9.291c0,0 0.083,0 0.249,0.083c5.641,1.908 10.95,2.157 16.84,2.24c15.097,-0.415 29.531,-2.655 44.38,-5.392c2.405,-0.581 5.143,-1.079 7.632,-1.576c0.58,-0.083 1.161,-0.166 1.742,-0.166c0.663,-0.249 1.327,-0.415 1.99,-0.498c19.246,-3.567 37.744,-7.051 56.906,-11.199c28.702,-6.055 57.155,-12.36 85.94,-17.918c30.444,-5.64 59.727,-10.203 90.585,-13.106c26.048,-2.323 52.178,-3.899 78.391,-2.572c4.729,0.166 42.97,1.245 45.293,7.3l-0,0.083c-0.166,4.148 -41.56,7.549 -44.546,8.047c-25.301,4.147 -50.187,7.88 -75.488,12.691c-29.282,5.973 -57.735,13.024 -86.603,20.822c-28.038,7.632 -55.911,15.927 -83.866,23.89c-19.411,4.729 -38.739,10.95 -58.399,14.683c-0.747,0.166 -1.41,0.249 -2.157,0.332c-0.664,0.166 -1.244,0.332 -1.908,0.415c-2.737,0.58 -5.558,0.912 -8.378,1.327c-18.084,2.654 -34.592,4.148 -52.924,3.152c-13.688,-0.912 -24.803,-2.82 -36.583,-10.369c-5.475,-3.899 -8.959,-7.632 -12.194,-13.521c-2.82,-5.641 -3.899,-10.287 -4.065,-16.591c0.249,-10.867 3.235,-18.665 8.379,-28.121c5.226,-8.959 10.618,-15.844 17.669,-23.476c6.636,-6.802 13.521,-12.692 20.655,-18.996c2.737,-2.489 5.392,-4.895 8.046,-7.466c-0.829,0.083 -1.659,0.083 -2.488,-0c-7.715,-0 -15.429,-0.581 -23.144,-1.327c-0.498,-0.083 -1.078,-0.166 -1.576,-0.166c-32.103,47.532 -85.525,83.866 -138.864,103.277c-16.342,5.972 -38.574,12.443 -56.16,8.876c-21.65,-4.397 -33.015,-22.564 -27.872,-44.049c0.664,-2.737 1.659,-5.475 2.82,-8.295c-5.143,3.069 -10.369,6.139 -15.595,9.208c-9.374,5.309 -18.664,9.539 -28.37,13.936c-8.544,3.069 -15.927,5.309 -25.052,5.06c-5.392,-0.498 -9.291,-1.742 -13.936,-4.728c-2.654,-1.908 -4.479,-3.733 -6.304,-6.471c-1.742,-2.654 -2.738,-4.977 -3.484,-8.046c-1.079,-4.894 -0.996,-8.544 -0.083,-13.438c0.58,-3.485 1.493,-6.554 2.654,-9.872c2.24,-6.387 4.646,-11.945 7.881,-17.669c-4.563,0.249 -8.959,0.083 -13.771,-0.415c-7.88,-1.161 -13.936,-2.986 -20.24,-8.212c-0.249,-0.249 -0.498,-0.415 -0.747,-0.664c-1.41,2.157 -2.82,4.231 -4.23,6.388c-8.959,14.185 -19.246,27.54 -28.951,41.227c-10.12,13.522 -20.407,26.297 -31.605,38.989c-9.457,10.452 -18.748,19.991 -29.615,28.95c-8.378,6.554 -16.01,11.531 -25.881,15.513c-4.48,1.576 -8.047,2.488 -12.775,2.82c-5.973,0.083 -10.369,-0.912 -15.512,-3.816c-5.475,-3.484 -8.544,-7.383 -10.95,-13.272c-1.742,-4.895 -2.157,-8.793 -1.991,-13.854c0.415,-9.29 2.572,-17.088 5.475,-25.881c3.235,-9.706 6.968,-18.665 11.199,-27.872c-8.379,6.802 -16.591,13.023 -25.799,18.913c-9.291,5.475 -17.337,9.457 -27.706,12.526c-9.457,2.406 -17.255,3.235 -26.877,0.912c-4.811,-1.41 -8.296,-3.152 -12.277,-6.387c-3.65,-3.069 -5.89,-5.973 -8.213,-10.12c-0.995,-1.991 -1.825,-3.816 -2.405,-5.724c-5.724,4.313 -11.448,8.378 -17.586,12.194c-6.554,4.148 -12.526,7.549 -19.577,10.618c-6.637,2.903 -12.195,4.894 -19.412,5.724c-3.898,0.415 -6.885,0.249 -10.783,-0.581c-4.065,-0.995 -7.052,-2.322 -10.37,-4.977c-2.737,-2.24 -4.562,-4.479 -6.055,-7.3c-5.309,3.899 -10.701,7.632 -16.259,11.282c-16.757,11.198 -32.684,20.655 -50.851,29.365c-17.917,8.213 -34.259,14.268 -53.504,18.333c-4.563,0.829 -9.457,1.576 -14.103,1.991l-1.742,-0c-0.497,0.083 -1.078,0.083 -1.659,0.166c-10.701,0.332 -20.572,-1.079 -30.941,-4.065c-7.715,-2.406 -13.356,-5.143 -19.909,-9.871c-3.733,-2.904 -6.719,-5.641 -9.374,-8.876c-0.332,0.414 -0.663,0.746 -1.078,1.078c-0.332,0.498 -0.747,0.995 -1.162,1.41c-2.405,2.655 -5.226,5.226 -7.548,7.964c-27.458,28.785 -52.842,57.486 -77.811,88.511c-8.71,11.365 -16.839,22.646 -24.886,34.011c16.591,-2.406 30.278,-3.567 32.933,-1.41c0.498,2.239 -20.324,9.042 -43.136,15.844c-5.641,8.129 -11.364,16.259 -17.171,24.554c-3.401,5.558 -6.885,11.033 -10.452,16.591c-1.079,2.073 -12.194,22.231 -15.43,21.236l-0.083,-0c-3.981,-2.738 2.157,-23.31 3.153,-26.711c1.908,-6.72 4.147,-12.858 6.802,-19.328c0.912,-2.572 1.825,-5.061 2.82,-7.549c-14.185,3.982 -25.135,6.968 -26.628,7.466c-54.251,16.756 -107.673,33.264 -161.427,51.928c-58.565,20.988 -114.642,43.634 -171.714,68.437c-53.09,23.144 -105.267,47.366 -157.528,72.418c-42.97,20.573 -85.774,41.726 -129.407,60.888c-32.269,13.77 -64.206,26.545 -98.881,32.684c-15.014,2.156 -27.043,2.82 -41.891,-0.581c-7.798,-2.074 -13.522,-4.479 -20.241,-8.959c-6.885,-4.894 -11.364,-9.623 -16.01,-16.757c-8.627,-14.682 -10.701,-27.54 -10.867,-44.38c0.332,-18.996 3.401,-34.757 8.296,-53.007c3.401,-12.443 7.217,-24.637 11.779,-36.665c0.829,-1.991 1.576,-3.982 2.406,-5.973c0.746,-1.908 1.41,-3.733 2.156,-5.641c13.356,-32.517 29.698,-63.708 46.537,-94.484c36.002,-63.874 74.575,-122.771 116.965,-182.58c6.885,-9.54 13.853,-18.996 20.821,-28.287c-7.549,0.498 -15.015,0.995 -22.564,1.41c-21.567,1.576 -43.301,2.903 -64.869,1.742c-10.286,-0.083 -21.485,-0.415 -31.273,-3.899c-1.825,-0.58 -3.319,-1.161 -4.978,-2.156c-0.663,-0.498 -2.405,-1.328 -2.903,-1.991c-1.41,-1.411 -2.323,-2.655 -3.152,-4.48c-0.913,-2.654 -0.996,-4.894 -0.166,-7.549c0.663,-2.073 1.576,-3.401 3.152,-4.894c1.908,-1.576 3.567,-2.323 5.89,-3.069c6.802,-1.659 15.512,-2.157 22.563,-2.323c2.572,0.083 16.01,1.327 25.633,2.738c15.429,-2.157 31.024,-4.48 46.205,-7.217c19.577,-3.484 39.071,-7.134 58.648,-10.701c28.785,-36.997 58.399,-72.916 89.921,-108.835c42.638,-48.279 85.11,-92.742 132.145,-136.624c30.776,-29.034 61.385,-56.16 95.147,-81.709c17.089,-13.19 34.26,-25.882 53.174,-36.5c4.562,-2.654 9.041,-5.226 13.936,-7.217c1.908,-0.829 3.567,-1.41 5.558,-1.825c0.912,-0.083 2.571,-0.581 3.401,-0.415c1.742,0 2.986,0.249 4.562,0.83c2.24,0.912 3.733,1.991 5.143,3.899c1.245,1.908 1.825,3.567 2.074,5.889c0,2.738 -0.498,4.646 -1.576,7.134c-2.24,4.314 -5.309,8.13 -8.295,11.863c-9.623,10.95 -19.743,21.899 -30.112,32.103c-6.554,6.055 -43.302,40.647 -47.367,41.559l0.083,-0.083c1.079,-3.235 31.688,-43.55 36.666,-50.684c1.161,-1.576 4.23,-5.558 7.88,-10.203c-9.705,7.631 -19.245,15.512 -28.785,23.641c-30.692,27.624 -59.56,55.579 -88.511,85.111c-43.302,45.624 -83.617,91.248 -123.601,139.942c-18.664,23.144 -36.665,46.371 -54.334,69.764c39.32,-7.3 78.474,-14.766 117.877,-21.568c26.628,-4.48 53.588,-9.872 80.299,-13.605c0.912,-0.165 1.908,-0.248 2.82,-0.248c1.078,-0.249 2.074,-0.498 3.069,-0.581c22.813,-3.069 46.288,-5.309 69.183,-7.715c49.192,-5.143 98.134,-9.871 147.492,-13.604c39.402,-3.152 78.473,-5.724 117.959,-6.802Zm893.906,24.72c-5.973,2.654 -11.862,6.387 -16.84,9.871c-1.576,1.079 -3.318,2.406 -5.143,3.816c3.07,-0.829 6.056,-1.991 8.13,-3.069c4.313,-2.157 9.871,-6.139 13.853,-10.618Zm-518.376,56.574c20.324,-13.438 37.246,-31.356 54.003,-48.942c-18.416,13.023 -43.634,28.453 -54.003,48.942Zm-70.178,-545.087c1.244,-0.249 2.488,-0.497 3.733,-0.663c46.039,-5.641 93.571,-9.54 139.776,-13.024c50.187,-3.733 99.793,-6.47 150.229,-7.217c35.172,-0.829 69.515,-0.746 104.687,1.161c17.254,0.498 37.412,0.996 54.334,4.148c5.392,0.83 9.706,1.659 14.434,4.48c2.157,1.41 3.567,2.737 4.977,4.894c0.996,1.659 1.576,3.152 1.908,5.06c0.415,1.991 0.332,3.65 -0.083,5.641c-0.663,2.903 -1.742,4.894 -3.816,7.051c-1.161,1.161 -2.156,1.991 -3.484,2.82c-6.968,3.401 -16.756,5.06 -24.388,6.719c-10.95,2.323 -22.314,4.729 -33.347,6.72c-9.706,1.991 -19.411,3.816 -29.2,5.309c-4.147,0.829 -11.862,2.488 -16.01,2.571c-8.212,1.825 -9.539,-8.129 -3.152,-10.452c3.816,-2.323 11.116,-4.728 15.346,-6.221c4.148,-1.659 8.296,-3.236 12.526,-4.812c-30.858,1.991 -61.634,4.065 -92.493,6.554c-48.859,5.392 -98.631,9.456 -147.242,16.59c-46.039,6.139 -91.663,13.19 -137.454,19.577c-1.244,0.166 -2.488,0.249 -3.733,0.415c-1.161,0.166 -2.322,0.415 -3.484,0.498c-8.544,1.161 -17.254,1.908 -25.798,3.069c-55.579,6.968 -111.406,12.858 -166.902,20.324c-46.537,6.304 -93.074,12.94 -139.611,18.996c-34.426,4.977 -68.934,10.12 -103.443,14.185c-18.167,2.655 -36.665,5.475 -54.915,6.968c-5.807,0.913 -11.282,1.825 -17.088,1.991c-0,0 -0.664,0.083 -0.747,0.083c-0.415,-0.083 -1.161,-0 -1.576,-0.083c-0.664,-0.166 -1.908,-0.332 -2.489,-0.664c-1.161,-0.497 -1.99,-0.995 -2.903,-1.825c-1.659,-1.576 -2.571,-3.235 -3.152,-5.475c-0.332,-2.322 -0.166,-4.147 0.829,-6.304c0.581,-1.161 1.079,-1.908 1.908,-2.82c0.747,-0.498 1.328,-1.162 2.157,-1.576c0.415,-0.249 0.913,-0.498 1.41,-0.664c4.812,-1.659 12.277,-3.152 17.503,-4.563c17.587,-5.226 35.919,-9.29 53.754,-13.355c33.845,-8.627 67.856,-16.176 102.033,-23.559c46.205,-9.539 92.078,-20.406 138.615,-28.785c55.413,-9.871 111.075,-21.65 166.819,-29.531c8.71,-1.161 17.338,-2.82 26.048,-3.899c1.161,-0.166 2.322,-0.249 3.484,-0.332Zm489.342,350.478c1.327,-0.912 9.954,-4.313 11.115,-4.479c8.047,-2.738 15.762,-4.314 24.306,-2.572c5.972,0.581 13.77,2.489 15.18,9.457c0.166,5.558 -5.143,10.286 -8.793,13.687c-3.318,4.397 -7.134,8.545 -10.784,12.609c-0.497,0.83 -4.728,6.056 -5.475,6.637c-0.083,-0 -0.166,0.082 -0.249,0.082c-0.082,0.083 -0.082,0.083 -0.165,0.166c-2.323,1.328 -8.876,3.567 -11.448,4.231c-8.627,1.244 -26.711,7.715 -31.025,5.392l0,-0.083c-2.654,-5.143 4.812,-26.628 7.549,-32.518c1.991,-3.484 6.305,-9.622 9.291,-12.194c0.083,-0.083 0.249,-0.083 0.332,-0.083c-0,-0.166 0.083,-0.249 0.166,-0.332Z"/></g></g></svg>