<svg xmlns="http://www.w3.org/2000/svg" xmlns:xlink="http://www.w3.org/1999/xlink" width="1000" zoomAndPan="magnify" viewBox="0 0 750 225" height="300" preserveAspectRatio="xMidYMid meet" version="1.0"><defs><clipPath id="9fbcd03e99"><path d="M 496.777344 9.378906 L 749.667969 9.378906 L 749.667969 156.421875 L 496.777344 156.421875 Z M 496.777344 9.378906 " clip-rule="nonzero"/></clipPath><clipPath id="9ebb74e4d2"><path d="M 468.460938 110.488281 L 491.902344 110.488281 L 491.902344 145.296875 L 468.460938 145.296875 Z M 468.460938 110.488281 " clip-rule="nonzero"/></clipPath><clipPath id="401bedf091"><path d="M 0 0.320312 L 475.230469 0.320312 L 475.230469 224.796875 L 0 224.796875 Z M 0 0.320312 " clip-rule="nonzero"/></clipPath></defs><g clip-path="url(#9fbcd03e99)"><path fill="#000000" d="M 164.648438 34.792969 C 165.164062 34.792969 166.039062 34.691406 166.351562 34.664062 C 166.582031 34.691406 169.859375 34.148438 170.09375 34.382812 C 170.324219 34.640625 167.382812 35.492188 167.046875 35.59375 C 166.066406 35.828125 165.113281 36.035156 164.003906 36.035156 C 163.769531 36.058594 163.382812 35.957031 163.175781 35.929688 C 162.867188 35.855469 162.660156 35.777344 162.453125 35.671875 C 162.039062 35.441406 161.859375 35.234375 161.757812 34.925781 C 161.550781 34.382812 161.707031 33.890625 161.9375 33.347656 C 162.453125 31.953125 163.484375 30.53125 164.363281 29.191406 C 165.394531 27.484375 166.351562 25.832031 167.152344 24.101562 C 167.796875 22.578125 168.285156 21.234375 168.027344 19.683594 C 167.925781 19.089844 167.71875 18.625 167.253906 18.058594 C 166.789062 17.566406 166.351562 17.257812 165.578125 16.871094 C 163.152344 15.835938 160.078125 15.421875 157.058594 15.085938 C 151.277344 14.542969 145.886719 14.46875 140.027344 14.542969 C 132.492188 14.699219 125.289062 15.140625 117.859375 15.679688 C 110.140625 16.25 102.503906 16.921875 94.8125 17.617188 C 88.128906 18.210938 81.496094 18.859375 74.757812 19.273438 C 69.519531 19.53125 64.667969 19.632812 59.429688 19.605469 C 58.136719 19.605469 56.796875 19.582031 55.453125 19.53125 C 55.378906 19.554688 55.324219 19.554688 55.273438 19.554688 C 55.222656 19.53125 55.171875 19.53125 55.117188 19.53125 C 53.648438 19.476562 52.175781 19.402344 50.785156 19.246094 C 49.105469 19.039062 48.023438 18.804688 46.652344 18.238281 C 45.957031 17.929688 45.492188 17.644531 45.027344 17.230469 C 44.304688 16.507812 44.097656 15.886719 44.28125 15.085938 C 44.5625 14.285156 45.105469 13.71875 46.242188 13.125 C 46.9375 12.789062 47.558594 12.554688 48.460938 12.347656 C 50.0625 12.039062 51.195312 11.960938 52.847656 12.011719 C 54.035156 12.066406 55.015625 12.167969 56.125 12.347656 C 56.71875 12.402344 58.035156 12.683594 58.65625 12.8125 C 58.808594 12.839844 58.9375 12.867188 59.066406 12.917969 C 59.378906 12.917969 59.6875 12.917969 59.894531 12.917969 C 64.566406 13.074219 68.875 13.046875 73.570312 12.890625 C 80.074219 12.660156 86.527344 12.167969 92.953125 11.730469 C 100.851562 11.210938 108.671875 10.746094 116.566406 10.359375 C 124.492188 10 132.027344 9.742188 140 9.816406 C 146.632812 9.921875 152.570312 10.207031 158.996094 11.082031 C 163.691406 11.753906 167.511719 12.503906 170.917969 14.3125 C 172.3125 15.140625 173.136719 15.835938 173.835938 16.84375 C 174.453125 17.773438 174.660156 18.546875 174.6875 19.53125 C 174.636719 21.492188 173.859375 23.015625 172.699219 24.851562 C 171.511719 26.632812 170.171875 28.285156 168.648438 30.015625 C 167.640625 31.257812 166.222656 32.523438 165.1875 33.789062 C 164.929688 34.125 164.828125 34.40625 164.671875 34.742188 C 164.671875 34.769531 164.671875 34.769531 164.648438 34.792969 Z M 695.152344 85.703125 C 693.191406 86.117188 691.746094 86.761719 690.328125 87.539062 C 689.320312 88.132812 688.441406 88.75 687.695312 89.371094 C 688.597656 90.015625 689.65625 90.871094 690.921875 91.28125 C 691.410156 91.410156 691.773438 91.464844 692.339844 91.464844 C 693.011719 91.464844 693.578125 91.410156 694.222656 91.335938 C 695.667969 91.128906 696.804688 90.871094 698.015625 90.429688 C 698.996094 90.015625 699.589844 89.65625 700.183594 89.085938 C 700.648438 88.621094 700.933594 88.183594 700.90625 87.667969 C 700.832031 87.175781 700.546875 86.8125 700.03125 86.402344 C 699.539062 86.039062 699.023438 85.78125 698.171875 85.625 C 697.707031 85.546875 697.347656 85.523438 696.882812 85.523438 C 696.238281 85.546875 695.746094 85.601562 695.152344 85.703125 Z M 394.285156 81.390625 C 393.175781 81.984375 392.425781 82.683594 391.757812 83.40625 C 390.699219 84.617188 389.976562 85.808594 389.332031 87.074219 C 389.070312 87.613281 388.839844 88.105469 388.660156 88.597656 C 389.5625 88.878906 390.386719 89.113281 390.722656 89.085938 C 391.496094 89.191406 392.066406 89.191406 392.839844 89.113281 C 393.613281 89.011719 394.257812 88.855469 394.980469 88.675781 C 396.453125 88.285156 397.667969 87.898438 398.878906 87.304688 C 399.886719 86.789062 400.503906 86.296875 401.125 85.625 C 401.589844 85.03125 401.871094 84.566406 401.898438 83.949219 C 401.925781 83.378906 401.742188 82.914062 401.355469 82.398438 C 401.046875 81.984375 400.710938 81.648438 400.066406 81.339844 C 399.5 81.082031 398.929688 80.925781 398.183594 80.820312 C 397.484375 80.71875 396.96875 80.71875 396.246094 80.796875 C 395.421875 80.925781 394.90625 81.082031 394.285156 81.390625 Z M 277.53125 81.882812 C 272.960938 87.539062 268.9375 95.75 266.535156 102.390625 C 264.214844 108.796875 264.007812 112.332031 264.238281 114.21875 C 265.476562 113.289062 266.511719 112.28125 267.441406 111.273438 C 271.15625 107.269531 275.542969 99.882812 277.632812 95.078125 C 278.332031 93.324219 279.128906 91.59375 279.851562 89.835938 C 280.214844 84.488281 281.632812 81.546875 283.878906 76.972656 C 283.800781 76.84375 283.671875 76.691406 283.570312 76.585938 C 281.453125 77.308594 278.640625 80.488281 277.53125 81.882812 Z M 663.074219 21.648438 C 662.273438 26.195312 661.136719 30.585938 659.746094 35.078125 C 659.617188 35.519531 659.484375 35.929688 659.355469 36.34375 C 658.710938 41.769531 658.222656 47.167969 657.9375 52.617188 C 657.578125 60.777344 657.707031 68.785156 658.195312 76.949219 C 658.738281 84.824219 659.539062 92.601562 660.855469 100.453125 C 662.015625 106.804688 663.488281 112.980469 665.550781 119.28125 C 667.125 123.722656 668.933594 127.984375 671.074219 132.375 C 672.519531 135.0625 673.914062 137.773438 675.566406 140.410156 C 676.054688 141.210938 676.570312 142.035156 677.113281 142.835938 C 677.34375 141.3125 677.757812 138.574219 678.121094 138.421875 C 678.738281 138.421875 678.996094 143.433594 679.101562 143.792969 C 679.125 143.84375 679.074219 144.492188 679.046875 144.542969 C 678.996094 144.75 678.945312 144.929688 678.714844 145.109375 C 678.636719 145.164062 678.480469 145.292969 678.378906 145.292969 C 678.171875 145.367188 677.964844 145.421875 677.730469 145.421875 C 677.472656 145.445312 677.292969 145.421875 677.0625 145.367188 C 676.957031 145.34375 676.777344 145.316406 676.675781 145.265625 C 676.363281 145.109375 676.183594 144.980469 675.976562 144.800781 C 674.714844 143.765625 673.5 142.0625 672.648438 140.925781 C 670.558594 138.265625 668.804688 135.65625 667.125 132.945312 C 664.339844 128.554688 662.195312 124.316406 660.261719 119.796875 C 657.550781 113.445312 655.640625 107.269531 654.066406 100.8125 C 652.183594 92.910156 650.917969 85.082031 649.964844 77.128906 C 649.421875 72.375 649.007812 67.675781 648.75 62.949219 C 646.039062 68.65625 643.148438 74.3125 639.949219 80.019531 C 637.550781 84.28125 635.046875 88.519531 632.3125 92.730469 L 631.40625 94.074219 L 630.605469 95.3125 C 628.257812 98.800781 625.730469 102.234375 623.097656 105.667969 C 617.289062 113.160156 611.277344 120.03125 603.457031 127.082031 C 597.523438 132.246094 591.507812 136.871094 582.5 140.847656 C 578.835938 142.371094 575.6875 143.378906 571.171875 144.128906 C 566.886719 144.773438 563.585938 144.878906 559.195312 144.414062 C 554.808594 143.84375 551.84375 142.992188 548.410156 141.546875 C 544.640625 139.839844 542.214844 138.214844 539.636719 136.042969 C 533.207031 130.234375 529.800781 124.214844 526.730469 117.808594 C 522.808594 108.976562 520.332031 100.375 518.265625 91.410156 C 516.125 81.417969 514.703125 71.574219 513.644531 61.554688 C 513.441406 58.867188 513.207031 56.179688 512.976562 53.496094 C 512.820312 55.148438 512.664062 56.800781 512.511719 58.480469 C 511.402344 68.578125 511.039062 78.730469 510.292969 88.855469 C 509.644531 97.609375 509.699219 106.417969 509.441406 115.175781 C 509.234375 121.347656 509.59375 127.625 509.722656 133.824219 C 509.773438 136.457031 510.058594 139.167969 510.292969 141.804688 C 510.394531 142.941406 510.601562 144.078125 510.730469 145.214844 C 510.886719 146.558594 511.273438 147.898438 511.503906 149.21875 C 511.53125 149.476562 512.40625 152.9375 511.867188 152.988281 C 511.246094 153.039062 509.515625 149.65625 509.386719 149.425781 C 508.664062 148.082031 508.199219 146.761719 507.660156 145.421875 C 507.21875 144.285156 506.882812 143.148438 506.574219 141.984375 C 505.800781 139.324219 505.257812 136.664062 504.820312 133.953125 C 503.632812 127.703125 502.960938 121.503906 502.472656 115.226562 C 501.671875 106.417969 501.308594 97.636719 501.15625 88.828125 C 500.640625 78.703125 501.308594 68.425781 501.4375 58.300781 C 501.542969 49.363281 502.316406 40.375 502.808594 31.4375 C 503.089844 26.398438 503.660156 21.335938 504.148438 16.300781 C 504.277344 14.933594 504.511719 13.5625 504.871094 12.21875 C 504.921875 12.039062 505.050781 11.859375 505.15625 11.652344 C 505.335938 11.394531 505.542969 11.1875 505.851562 10.953125 C 506.214844 10.644531 506.601562 10.4375 507.117188 10.207031 C 508.253906 9.714844 509.3125 9.507812 510.808594 9.40625 C 511.761719 9.351562 512.511719 9.378906 513.414062 9.507812 C 514.1875 9.636719 514.757812 9.765625 515.425781 10 C 516.203125 10.28125 516.71875 10.542969 517.234375 10.953125 C 517.621094 11.265625 517.851562 11.523438 518.035156 11.859375 C 518.1875 12.039062 518.1875 12.324219 518.265625 12.503906 C 518.601562 14.210938 518.472656 16.273438 518.5 18.007812 C 518.523438 19.96875 518.601562 21.90625 518.628906 23.867188 C 518.628906 24.023438 518.628906 24.179688 518.628906 24.335938 C 518.523438 25.523438 518.292969 26.996094 517.3125 28.183594 C 517.570312 30.222656 517.777344 32.289062 518.007812 34.328125 C 519.167969 43.320312 520.277344 52.308594 521.648438 61.296875 C 523.246094 71.214844 525.15625 80.953125 527.761719 90.816406 C 530.164062 99.574219 532.925781 107.96875 537.183594 116.542969 C 540.125 122.277344 543.507812 127.960938 549.546875 133.101562 C 551.453125 134.648438 553.289062 135.890625 556.046875 137.078125 C 557.90625 137.828125 559.507812 138.316406 561.828125 138.574219 C 563.921875 138.78125 565.417969 138.703125 567.402344 138.394531 C 570.191406 137.878906 572.257812 137.128906 574.5 136.171875 C 581.984375 132.710938 587.328125 128.375 592.230469 123.957031 C 599.457031 117.164062 605.03125 110.472656 610.425781 103.292969 C 612.902344 99.910156 615.226562 96.527344 617.496094 93.117188 L 618.347656 91.902344 L 619.175781 90.585938 C 621.910156 86.453125 624.492188 82.320312 626.996094 78.136719 C 631.769531 70.027344 636 61.96875 639.898438 53.753906 C 642.890625 47.191406 645.574219 40.734375 647.925781 34.125 C 648.59375 32.109375 649.242188 30.09375 649.835938 28.105469 C 650.195312 24.644531 650.582031 21.15625 651.28125 17.722656 C 651.5625 16.457031 651.925781 14.933594 652.621094 13.742188 C 652.777344 13.5625 652.929688 13.304688 653.113281 13.148438 C 653.371094 12.96875 653.550781 12.738281 653.910156 12.609375 C 654.144531 12.476562 654.558594 12.21875 654.867188 12.167969 C 655.484375 11.9375 656.027344 11.832031 656.75 11.730469 C 657.757812 11.601562 658.582031 11.601562 659.589844 11.730469 C 660.492188 11.859375 661.136719 12.011719 661.835938 12.324219 C 662.558594 12.632812 662.996094 12.945312 663.359375 13.382812 C 663.617188 13.667969 663.746094 13.925781 663.820312 14.234375 C 664.210938 16.25 663.460938 19.605469 663.074219 21.648438 Z M 697.449219 81.234375 C 699.050781 81.3125 700.238281 81.492188 701.683594 81.828125 C 704.183594 82.5 705.65625 83.277344 706.945312 84.542969 C 708.03125 85.652344 708.445312 86.609375 708.261719 87.875 C 708.003906 89.035156 707.332031 89.886719 706.042969 90.871094 C 704.703125 91.824219 703.410156 92.445312 701.425781 93.066406 C 699.332031 93.632812 697.527344 93.917969 695.152344 94.074219 C 693.863281 94.148438 692.855469 94.148438 691.566406 94.019531 C 690.09375 93.867188 689.085938 93.609375 687.925781 93.117188 C 686.894531 92.601562 686.144531 92.03125 685.527344 91.4375 C 685.449219 91.542969 685.371094 91.644531 685.269531 91.746094 C 683.71875 93.683594 682.789062 95.390625 682.300781 97.457031 C 682.066406 98.515625 682.042969 99.339844 682.121094 100.402344 C 682.121094 100.476562 682.121094 100.554688 682.09375 100.632812 L 682.144531 100.867188 C 682.195312 101.203125 682.378906 102.648438 682.585938 102.828125 C 683.074219 104.09375 683.796875 105.179688 685.605469 106.132812 C 686.429688 106.523438 687.179688 106.730469 688.234375 106.933594 C 689.65625 107.195312 690.84375 107.246094 692.339844 107.269531 C 696.960938 107.21875 701.320312 106.445312 705.554688 105.617188 C 711.207031 104.457031 716.417969 103.113281 721.785156 101.691406 C 726.484375 100.402344 731.179688 99.058594 735.953125 97.792969 C 737.941406 97.25 739.929688 96.707031 742.046875 96.242188 C 743.027344 96.007812 743.957031 95.804688 744.988281 95.621094 L 746.148438 95.46875 C 746.640625 95.414062 747.027344 95.363281 747.542969 95.339844 C 747.878906 95.339844 749.710938 95.285156 749.8125 95.542969 C 749.867188 95.777344 748.289062 96.085938 748.03125 96.164062 C 747.722656 96.292969 747.308594 96.371094 747 96.472656 L 746.125 96.785156 C 745.347656 97.042969 744.550781 97.378906 743.773438 97.664062 C 741.992188 98.335938 740.289062 99.082031 738.484375 99.730469 C 734.199219 101.460938 729.839844 103.035156 725.347656 104.585938 C 720.03125 106.445312 714.894531 108.070312 709.167969 109.570312 C 703.773438 110.886719 698.921875 111.894531 692.90625 112.230469 C 690.121094 112.332031 687.925781 112.257812 685.214844 111.921875 C 682.609375 111.53125 680.75 111.066406 678.609375 110.214844 C 674.558594 108.460938 672.726562 106.652344 671.410156 104.066406 C 670.945312 103.136719 670.609375 102.207031 670.480469 101.226562 L 670.480469 100.890625 L 670.429688 100.582031 C 670.378906 99.238281 670.636719 97.945312 671.046875 96.628906 C 672.003906 94.019531 673.421875 91.902344 675.796875 89.527344 C 677.9375 87.433594 680.082031 85.832031 683.4375 84.179688 C 686.300781 82.835938 688.90625 81.957031 692.699219 81.417969 C 694.378906 81.210938 695.71875 81.15625 697.449219 81.234375 Z M 475.347656 101.71875 C 476.664062 100.296875 480.691406 96.140625 484.742188 97.222656 C 488.507812 98.617188 487.324219 101.511719 486.472656 103.550781 L 486.394531 103.65625 C 484.921875 105.257812 479.734375 110.34375 475.476562 109.777344 C 472.742188 108.589844 474.574219 103.5 475.296875 101.820312 Z M 457.074219 79.480469 C 458.261719 80.332031 459.527344 81.054688 461.332031 81.546875 C 463.039062 81.957031 464.429688 81.957031 466.261719 81.828125 C 468.40625 81.648438 470.132812 81.3125 472.070312 80.847656 C 473.824219 80.433594 475.191406 79.996094 476.742188 79.402344 C 477.207031 79.195312 480.328125 77.722656 480.792969 77.800781 C 481.285156 77.980469 478.417969 79.945312 478.082031 80.097656 C 476.664062 80.925781 475.320312 81.492188 473.488281 82.085938 C 471.398438 82.785156 469.488281 83.25 467.0625 83.613281 C 464.351562 83.949219 462.289062 83.972656 459.628906 83.507812 C 456.894531 82.914062 455.113281 82.085938 453.230469 80.953125 C 452.84375 80.71875 452.507812 80.511719 452.171875 80.28125 C 452.273438 80.667969 452.378906 81.054688 452.480469 81.46875 C 453.128906 83.6875 453.875 85.910156 454.496094 88.132812 C 455.140625 90.457031 456.015625 92.808594 456.480469 95.15625 C 457.023438 97.300781 457.488281 99.445312 457.824219 101.640625 C 458.109375 103.421875 458.3125 105.203125 458.3125 107.039062 C 458.261719 108.328125 458.132812 109.492188 457.539062 110.757812 C 457.257812 111.328125 456.945312 111.765625 456.40625 112.28125 C 456.015625 112.617188 455.65625 112.875 455.089844 113.132812 C 454.238281 113.546875 453.4375 113.78125 452.300781 113.933594 C 451.035156 114.089844 450.03125 114.0625 448.792969 113.859375 C 447.964844 113.703125 447.371094 113.546875 446.675781 113.261719 C 445.773438 112.875 445.203125 112.539062 444.53125 112.074219 C 443.0625 110.992188 442.210938 110.007812 441.332031 108.820312 C 440.199219 107.195312 439.320312 105.515625 438.390625 103.863281 C 437.152344 101.613281 436.09375 99.546875 435.269531 97.273438 C 434.933594 96.191406 434.546875 95.15625 434.261719 94.074219 L 434.132812 93.453125 L 433.976562 92.882812 C 433.953125 92.808594 433.953125 92.753906 433.925781 92.675781 C 433.488281 93.011719 433.046875 93.347656 432.585938 93.683594 C 429.976562 95.542969 427.371094 97.144531 424.222656 98.800781 C 420.894531 100.503906 417.820312 101.820312 413.820312 103.113281 C 410.054688 104.273438 406.855469 104.945312 402.519531 105.386719 C 398.542969 105.722656 395.371094 105.667969 391.574219 104.972656 C 387.988281 104.171875 385.792969 103.164062 383.703125 101.535156 C 381.820312 99.910156 381.046875 98.488281 380.53125 96.65625 C 380.476562 96.421875 380.425781 96.214844 380.402344 96.007812 C 379.625 96.734375 379.007812 97.300781 378.699219 97.558594 C 377.070312 98.722656 375.523438 99.703125 373.457031 100.683594 C 371.445312 101.589844 369.691406 102.183594 367.160156 102.671875 C 365.84375 102.878906 364.785156 102.957031 363.417969 102.984375 C 361.949219 102.957031 360.839844 102.855469 359.46875 102.570312 C 358.050781 102.261719 357.097656 101.949219 355.988281 101.433594 C 354.851562 100.890625 354.101562 100.375 353.277344 99.730469 C 350.359375 97.144531 349.097656 94.355469 348.578125 91.464844 C 344.914062 92.394531 340.914062 91.902344 337.457031 90.40625 C 336.578125 90.042969 335.726562 89.578125 334.875 89.035156 C 335.574219 90.765625 336.320312 92.472656 336.785156 94.226562 C 337.457031 96.785156 338.464844 99.445312 338.851562 102 C 339.546875 106.003906 340.449219 110.136719 339.703125 114.324219 C 339.082031 117.679688 337.378906 119.4375 333.921875 120.160156 C 327.855469 121.476562 321.894531 118.53125 317.84375 114.453125 C 315.339844 111.921875 312.085938 107.140625 310.617188 104.121094 C 310.382812 103.707031 310.152344 103.265625 309.917969 102.828125 C 309.121094 103.5 308.191406 104.171875 307.132812 104.792969 C 300.191406 108.71875 289.738281 108.019531 283.984375 102.132812 C 278.640625 110.730469 269.839844 121.527344 260.523438 119.515625 C 256.238281 118.609375 255.695312 115.382812 256.265625 111.6875 C 256.574219 109.648438 257.296875 107.167969 258.328125 104.480469 C 255.566406 106.804688 252.265625 108.898438 247.671875 110.601562 C 245.785156 111.195312 244.210938 111.558594 242.046875 111.816406 C 239.722656 112.050781 237.914062 112.050781 235.59375 111.816406 C 233.0625 111.507812 231.257812 111.066406 229.089844 110.34375 C 226.613281 109.464844 224.832031 108.589844 222.871094 107.425781 C 221.863281 106.832031 220.882812 106.265625 219.902344 105.695312 C 217.011719 108.925781 213.992188 112.179688 211.023438 115.433594 C 207.539062 119.253906 204.210938 123.128906 200.777344 126.980469 C 197.808594 130.285156 194.84375 133.617188 191.976562 136.921875 L 189.164062 140.125 L 186.609375 143.070312 C 186.042969 143.714844 185.472656 144.335938 184.933594 144.957031 C 184.804688 145.085938 184.726562 145.214844 184.597656 145.316406 C 184.519531 145.421875 184.441406 145.550781 184.339844 145.652344 L 184.210938 145.757812 C 184.15625 145.808594 184.054688 145.859375 183.976562 145.886719 C 183.824219 145.964844 183.667969 146.015625 183.460938 146.066406 C 183.230469 146.09375 183.046875 146.117188 182.789062 146.09375 C 182.453125 146.066406 182.222656 146.015625 181.964844 145.910156 C 181.785156 145.832031 181.65625 145.757812 181.550781 145.652344 C 181.5 145.628906 181.472656 145.523438 181.449219 145.472656 C 181.398438 145.421875 181.421875 145.34375 181.421875 145.292969 C 181.398438 145.238281 181.421875 145.1875 181.449219 145.164062 C 181.449219 145.109375 181.5 145.058594 181.5 145.03125 C 181.601562 144.828125 181.730469 144.59375 181.859375 144.386719 C 182.222656 143.714844 182.636719 143.070312 183.074219 142.425781 C 183.640625 141.390625 184.363281 140.359375 185.007812 139.351562 C 185.707031 138.214844 186.453125 137.105469 187.203125 135.992188 C 189.5 132.53125 192.003906 129.121094 194.53125 125.714844 C 197.320312 121.734375 200.417969 117.785156 203.410156 113.832031 C 206.042969 110.394531 208.933594 106.988281 211.539062 103.550781 C 212.109375 102.855469 212.648438 102.15625 213.21875 101.460938 C 211.796875 100.503906 210.429688 99.546875 209.035156 98.566406 C 204.753906 95.46875 200.726562 92.34375 196.597656 89.214844 C 195.179688 88.15625 193.734375 87.046875 192.363281 85.960938 C 190.402344 84.386719 192.753906 83.558594 195.253906 82.785156 C 197.757812 81.984375 200.289062 81.285156 202.25 82.835938 C 203.617188 83.921875 205.035156 85.082031 206.300781 86.195312 C 209.964844 89.421875 213.785156 92.574219 217.578125 95.75 C 217.605469 95.777344 217.628906 95.804688 217.65625 95.828125 C 221.011719 91.566406 224.316406 87.332031 227.644531 83.09375 C 229.890625 80.304688 232.160156 77.4375 234.613281 74.726562 C 236.394531 72.738281 238.5625 72.839844 242.019531 73.667969 C 245.375 74.46875 247 75.191406 245.269531 77.128906 C 242.792969 79.839844 240.367188 82.527344 237.96875 85.265625 C 233.347656 90.429688 228.804688 95.648438 224.210938 100.8125 C 225.964844 102.105469 227.800781 103.371094 229.707031 104.636719 L 229.761719 104.664062 C 231.078125 105.566406 232.316406 106.289062 233.992188 107.011719 C 235.152344 107.476562 236.136719 107.789062 237.527344 108.019531 C 238.664062 108.199219 239.488281 108.253906 240.652344 108.175781 C 241.941406 108.070312 242.898438 107.890625 244.058594 107.605469 C 250.535156 105.722656 254.820312 102.441406 258.742188 99.339844 C 259.800781 98.488281 260.832031 97.636719 261.867188 96.785156 C 266.484375 87.976562 273.144531 78.988281 279.054688 75.734375 C 281.609375 74.3125 285.09375 73.925781 286.898438 75.449219 C 288.394531 75.113281 289.996094 75.191406 291.390625 75.554688 C 292.578125 75.835938 294.433594 76.691406 294.460938 77.851562 C 294.511719 79.273438 292.550781 84.515625 291.621094 86.8125 C 291.054688 90.40625 291.207031 94.148438 292.859375 97.429688 C 293.609375 98.851562 295.519531 101.304688 297.300781 101.5625 C 301.222656 100.917969 305.042969 95.105469 305.636719 91.257812 C 305.480469 90.171875 305.378906 88.90625 305.660156 88.363281 C 306.175781 87.28125 306.898438 86.839844 308.320312 86.425781 C 310.4375 85.859375 314.074219 86.039062 315.546875 87.613281 C 316.449219 88.570312 316.371094 90.609375 316.0625 92.34375 C 316.0625 92.367188 316.0625 92.394531 316.085938 92.417969 C 316.757812 96.140625 318.023438 99.523438 319.804688 102.90625 C 322.101562 107.296875 324.5 112.410156 328.941406 115.226562 L 330.773438 116.105469 C 332.140625 114.140625 332.292969 111.351562 332.320312 109.078125 C 332.347656 105.566406 331.390625 97.945312 330.488281 94.667969 C 329.894531 92.445312 329.457031 90.171875 328.65625 88.003906 C 328.089844 86.402344 327.496094 84.851562 326.902344 83.277344 C 326.667969 82.707031 325.945312 81.132812 325.609375 80.667969 C 324.527344 79.402344 328.578125 78.316406 329.945312 79.609375 C 330.023438 79.6875 330.101562 79.789062 330.203125 79.890625 C 330.230469 79.917969 330.230469 79.945312 330.257812 79.96875 L 332.65625 83.015625 C 333.738281 84.257812 334.851562 85.496094 336.140625 86.710938 C 339.726562 89.992188 343.78125 91.386719 348.425781 90.328125 C 348.398438 90.144531 348.398438 89.992188 348.375 89.8125 C 348.269531 88.027344 351.417969 87.925781 354.179688 87.925781 C 356.683594 87.925781 359.960938 88.003906 360.0625 89.628906 C 360.140625 92.265625 360.246094 94.875 361.921875 97.378906 C 362.15625 97.636719 362.414062 97.871094 362.75 98.128906 C 362.851562 98.230469 363.136719 98.335938 363.289062 98.410156 C 363.46875 98.488281 363.574219 98.515625 363.804688 98.566406 C 364.140625 98.59375 364.453125 98.59375 364.8125 98.566406 C 366.230469 98.464844 367.472656 98.101562 368.65625 97.714844 C 370.566406 97.070312 372.066406 96.371094 373.664062 95.542969 C 374.644531 95.027344 377.84375 92.960938 380.605469 91.257812 C 381.070312 89.476562 381.792969 87.898438 382.851562 86.167969 C 383.753906 84.695312 384.734375 83.40625 386.179688 82.035156 C 387.34375 80.925781 388.476562 80.046875 390.335938 79.222656 C 391.910156 78.574219 393.253906 78.238281 395.265625 78.058594 C 396.96875 77.957031 398.257812 78.007812 399.886719 78.289062 C 401.460938 78.601562 402.59375 78.988281 403.757812 79.609375 C 404.890625 80.253906 405.460938 80.847656 405.925781 81.675781 C 406.390625 82.550781 406.519531 83.222656 406.335938 84.128906 C 406.105469 85.03125 405.613281 85.703125 404.738281 86.53125 C 403.757812 87.382812 402.777344 88.003906 401.253906 88.648438 C 399.601562 89.292969 398.105469 89.679688 396.144531 90.042969 C 395.136719 90.222656 394.285156 90.328125 393.203125 90.40625 C 391.960938 90.429688 391.085938 90.351562 389.921875 90.121094 C 389.71875 90.042969 389.070312 89.835938 388.324219 89.527344 C 388.117188 90.222656 387.9375 90.921875 387.832031 91.671875 C 387.625 93.21875 387.703125 94.539062 388.21875 96.0625 C 388.683594 97.273438 389.277344 98.28125 390.644531 99.339844 C 391.757812 100.117188 392.839844 100.605469 394.648438 100.941406 C 396.761719 101.277344 398.621094 101.203125 400.761719 100.96875 C 403.808594 100.605469 406.078125 100.039062 408.6875 99.160156 C 411.886719 98.050781 414.363281 96.863281 416.96875 95.414062 C 419.628906 93.917969 421.796875 92.472656 423.964844 90.792969 C 425.769531 89.371094 427.34375 87.976562 428.84375 86.453125 C 429.746094 85.546875 430.519531 84.75 431.035156 83.792969 C 431.191406 83.378906 431.398438 82.992188 431.550781 82.578125 C 431.578125 82.476562 431.707031 82.0625 431.757812 82.011719 C 432.015625 81.46875 432.195312 81.234375 432.816406 80.746094 C 433.203125 80.488281 433.566406 80.304688 434.105469 80.097656 C 435.140625 79.761719 436.066406 79.609375 437.332031 79.582031 C 438.675781 79.609375 439.65625 79.761719 440.738281 80.152344 C 441.308594 80.382812 441.695312 80.589844 442.082031 80.875 C 442.519531 81.261719 442.726562 81.519531 442.90625 81.933594 C 442.957031 82.140625 443.035156 82.347656 443.085938 82.578125 C 443.164062 83.042969 443.242188 83.484375 443.371094 83.921875 C 443.785156 85.523438 444.273438 87.097656 444.6875 88.699219 C 445.050781 89.835938 445.308594 91.050781 445.589844 92.1875 L 445.695312 92.730469 L 445.875 93.324219 C 446.105469 94.304688 446.289062 95.390625 446.648438 96.320312 C 446.984375 97.300781 447.347656 98.257812 447.734375 99.210938 C 447.605469 98.023438 447.476562 96.835938 447.242188 95.648438 L 445.875 88.675781 C 445.4375 86.453125 444.792969 84.152344 444.480469 81.90625 C 444.222656 79.917969 443.785156 77.929688 443.679688 75.914062 C 443.527344 74.363281 443.449219 72.816406 443.398438 71.265625 C 443.347656 70.335938 443.242188 69.25 443.371094 68.320312 C 443.398438 68.242188 443.398438 68.113281 443.421875 68.035156 C 443.5 67.777344 443.628906 67.597656 443.914062 67.363281 C 444.121094 67.183594 444.351562 67.054688 444.660156 66.925781 C 445.253906 66.695312 445.773438 66.589844 446.519531 66.566406 C 447.21875 66.539062 447.734375 66.589844 448.351562 66.769531 C 448.714844 66.847656 448.945312 66.953125 449.203125 67.105469 C 449.539062 67.289062 449.746094 67.441406 449.902344 67.675781 C 450.082031 68.011719 450.210938 68.269531 450.339844 68.578125 C 450.726562 69.5625 450.90625 70.671875 451.421875 71.601562 C 452.042969 73.125 452.765625 74.597656 453.71875 76.070312 C 454.648438 77.359375 455.527344 78.34375 457.074219 79.480469 Z M 352.785156 41.847656 C 354.207031 40.117188 357.457031 36.394531 361.664062 36.265625 C 366.101562 36.730469 364.582031 41.847656 363.988281 43.472656 L 363.960938 43.523438 C 363.960938 43.550781 363.960938 43.550781 363.933594 43.578125 C 363.910156 43.652344 363.675781 43.914062 363.601562 43.964844 C 362.386719 45.179688 360.992188 46.417969 359.316406 47.476562 C 358.773438 47.914062 358.207031 48.328125 357.433594 48.664062 C 356.761719 49.105469 356.347656 49.15625 355.367188 49.335938 C 354.152344 49.570312 353.585938 48.820312 353.328125 48.378906 C 352.8125 47.839844 352.683594 47.269531 352.578125 46.675781 C 352.140625 45.253906 352.296875 43.785156 352.578125 42.363281 C 352.578125 42.363281 352.683594 41.976562 352.707031 41.949219 L 352.785156 41.898438 C 352.761719 41.871094 352.761719 41.847656 352.785156 41.847656 Z M 113.082031 75.578125 C 117.160156 75.292969 121.316406 75.0625 125.367188 74.777344 C 127.613281 74.597656 130.917969 74.210938 133.136719 74.339844 C 133.34375 74.339844 133.652344 74.417969 133.859375 74.441406 C 134.273438 74.519531 134.554688 74.625 134.890625 74.777344 C 135.304688 74.984375 135.535156 75.21875 135.640625 75.527344 C 135.714844 75.757812 135.691406 75.964844 135.535156 76.199219 C 135.382812 76.429688 135.199219 76.558594 134.863281 76.742188 C 134.8125 76.792969 134.402344 76.949219 134.296875 77 C 133.601562 77.257812 132.695312 77.4375 131.898438 77.621094 C 130.039062 78.007812 128.15625 78.289062 126.296875 78.679688 C 125.394531 78.859375 120.566406 80.074219 119.871094 79.816406 C 119.714844 79.582031 120.359375 79.144531 121.238281 78.679688 C 118.246094 79.066406 115.070312 79.453125 114.632812 79.53125 C 109.339844 80.253906 103.949219 80.875 98.632812 81.519531 C 93.003906 82.21875 87.277344 82.785156 81.625 83.40625 C 76.253906 84.023438 70.992188 84.644531 65.675781 85.367188 C 61.285156 85.960938 56.746094 86.632812 52.488281 87.460938 C 51.816406 87.5625 51.144531 87.71875 50.5 87.875 C 50.394531 95.570312 50.601562 103.214844 51.246094 110.914062 L 51.582031 114.347656 C 51.609375 114.632812 51.609375 114.917969 51.609375 115.175781 C 51.660156 115.484375 51.710938 115.769531 51.738281 116.078125 C 52.253906 121.449219 52.925781 126.589844 54.214844 131.964844 C 55.429688 136.433594 56.925781 140.566406 59.839844 144.828125 C 61.210938 146.632812 62.992188 148.804688 65.957031 150.09375 C 66.679688 150.378906 67.25 150.535156 68.152344 150.613281 C 69.210938 150.714844 70.085938 150.636719 71.144531 150.535156 C 75.273438 149.992188 78.835938 148.648438 82.140625 147.359375 C 88.617188 144.773438 94.734375 141.882812 100.773438 139.015625 C 107.714844 135.761719 114.632812 132.453125 121.601562 129.199219 C 129.136719 125.714844 136.699219 122.277344 144.59375 118.945312 C 151.304688 116.15625 157.757812 113.675781 164.984375 111.195312 C 171.074219 109.128906 177.164062 107.167969 183.695312 105.4375 C 187.847656 104.328125 191.796875 103.34375 196.363281 102.699219 C 197.476562 102.542969 198.558594 102.414062 199.695312 102.3125 C 200.367188 102.261719 201.035156 102.183594 201.734375 102.132812 C 202.015625 102.132812 204.675781 101.976562 204.777344 102.15625 C 204.855469 102.363281 202.351562 102.800781 202.09375 102.855469 C 201.5 102.984375 200.828125 103.085938 200.234375 103.214844 C 199.203125 103.421875 198.222656 103.628906 197.214844 103.863281 C 193.164062 104.867188 189.550781 105.953125 185.730469 107.167969 C 179.769531 109.207031 174.066406 111.300781 168.363281 113.496094 C 161.730469 116.128906 155.589844 118.789062 149.367188 121.65625 C 141.960938 125.144531 134.789062 128.710938 127.664062 132.351562 C 120.980469 135.734375 114.375 139.167969 107.714844 142.578125 C 101.625 145.652344 95.558594 148.726562 89.03125 151.542969 C 84.257812 153.53125 80.050781 155.105469 74.0625 156.035156 C 71.351562 156.398438 69.234375 156.5 66.449219 156.347656 C 63.453125 156.113281 61.390625 155.675781 58.9375 154.796875 C 53.570312 152.703125 50.9375 150.09375 48.433594 147.023438 C 44.769531 142.296875 42.910156 137.851562 41.3125 132.894531 C 39.660156 127.417969 38.550781 121.941406 37.929688 116.414062 L 37.878906 115.511719 L 37.777344 114.65625 C 37.671875 113.523438 37.542969 112.28125 37.542969 111.144531 C 37.261719 103.578125 37.464844 96.0625 37.957031 88.519531 C 37.929688 88.519531 37.90625 88.492188 37.878906 88.492188 C 37.027344 88.105469 36.5625 87.71875 36.203125 87.175781 C 35.867188 86.582031 35.867188 86.089844 36.148438 85.496094 C 36.382812 85.109375 36.640625 84.824219 37.078125 84.488281 C 37.492188 84.152344 37.878906 83.921875 38.316406 83.6875 C 39.09375 75.320312 40.226562 67.03125 41.671875 58.660156 C 42.808594 52.046875 44.074219 45.4375 45.699219 38.851562 C 46.472656 35.519531 47.273438 32.210938 48.304688 28.90625 L 49.003906 26.21875 L 49.105469 25.988281 C 49.15625 25.910156 49.207031 25.78125 49.261719 25.703125 C 49.414062 25.523438 49.570312 25.394531 49.800781 25.210938 C 50.292969 24.902344 50.808594 24.722656 51.558594 24.566406 C 52.304688 24.4375 52.925781 24.410156 53.699219 24.488281 C 54.421875 24.566406 54.964844 24.695312 55.53125 24.953125 C 56.046875 25.1875 56.359375 25.394531 56.617188 25.730469 C 56.667969 25.832031 56.769531 25.960938 56.796875 26.066406 C 56.824219 26.140625 56.847656 26.246094 56.847656 26.324219 C 56.847656 26.398438 56.875 26.453125 56.847656 26.53125 L 56.824219 26.761719 C 56.71875 27.5625 56.5625 28.363281 56.410156 29.164062 C 55.839844 32.523438 55.117188 35.929688 54.679688 39.289062 C 53.777344 45.875 52.949219 52.4375 52.226562 59.023438 C 51.53125 66.28125 50.988281 73.460938 50.679688 80.691406 C 54.679688 80.125 58.757812 79.6875 62.785156 79.246094 C 68.410156 78.703125 73.957031 78.265625 79.636719 77.851562 C 85.367188 77.464844 91.121094 77.101562 96.875 76.714844 C 102.269531 76.355469 107.664062 75.941406 113.082031 75.578125 Z M 113.082031 75.578125 " fill-opacity="1" fill-rule="evenodd"/></g><g clip-path="url(#9ebb74e4d2)"><path fill="#000000" d="M 132.855469 50.292969 C 133.421875 50.292969 134.390625 50.179688 134.730469 50.152344 C 134.988281 50.179688 138.597656 49.582031 138.851562 49.839844 C 139.109375 50.125 135.867188 51.0625 135.5 51.175781 C 134.417969 51.433594 133.367188 51.660156 132.144531 51.660156 C 131.886719 51.6875 131.460938 51.574219 131.234375 51.546875 C 130.894531 51.460938 130.664062 51.375 130.4375 51.261719 C 129.984375 51.007812 129.785156 50.777344 129.671875 50.4375 C 129.441406 49.839844 129.613281 49.300781 129.871094 48.703125 C 130.4375 47.164062 131.574219 45.601562 132.542969 44.121094 C 133.679688 42.242188 134.730469 40.421875 135.613281 38.515625 C 136.324219 36.839844 136.863281 35.359375 136.578125 33.652344 C 136.464844 32.996094 136.238281 32.484375 135.726562 31.859375 C 135.214844 31.320312 134.730469 30.976562 133.878906 30.550781 C 131.207031 29.414062 127.824219 28.957031 124.496094 28.589844 C 118.128906 27.992188 112.1875 27.90625 105.734375 27.992188 C 97.433594 28.160156 89.5 28.644531 81.3125 29.242188 C 72.8125 29.867188 64.398438 30.609375 55.925781 31.375 C 48.5625 32.03125 41.257812 32.742188 33.835938 33.195312 C 28.066406 33.480469 22.722656 33.59375 16.953125 33.566406 C 15.53125 33.566406 14.050781 33.539062 12.574219 33.480469 C 12.488281 33.507812 12.429688 33.507812 12.375 33.507812 C 12.316406 33.480469 12.261719 33.480469 12.203125 33.480469 C 10.582031 33.425781 8.960938 33.339844 7.425781 33.167969 C 5.578125 32.941406 4.386719 32.683594 2.878906 32.058594 C 2.113281 31.71875 1.601562 31.40625 1.089844 30.949219 C 0.292969 30.152344 0.0664062 29.46875 0.261719 28.589844 C 0.578125 27.707031 1.171875 27.082031 2.425781 26.425781 C 3.191406 26.054688 3.875 25.800781 4.867188 25.574219 C 6.632812 25.230469 7.882812 25.144531 9.703125 25.203125 C 11.007812 25.257812 12.089844 25.375 13.3125 25.574219 C 13.964844 25.628906 15.417969 25.941406 16.097656 26.085938 C 16.269531 26.113281 16.410156 26.140625 16.554688 26.199219 C 16.894531 26.199219 17.234375 26.199219 17.464844 26.199219 C 22.609375 26.367188 27.355469 26.339844 32.53125 26.167969 C 39.695312 25.914062 46.800781 25.375 53.878906 24.890625 C 62.578125 24.320312 71.191406 23.808594 79.890625 23.382812 C 88.621094 22.984375 96.921875 22.699219 105.707031 22.785156 C 113.011719 22.898438 119.550781 23.210938 126.628906 24.179688 C 131.800781 24.917969 136.011719 25.742188 139.761719 27.734375 C 141.296875 28.644531 142.207031 29.414062 142.976562 30.523438 C 143.65625 31.546875 143.882812 32.398438 143.914062 33.480469 C 143.855469 35.644531 143.003906 37.320312 141.722656 39.339844 C 140.417969 41.304688 138.9375 43.125 137.261719 45.03125 C 136.152344 46.398438 134.589844 47.792969 133.453125 49.183594 C 133.167969 49.554688 133.054688 49.867188 132.882812 50.238281 C 132.882812 50.265625 132.882812 50.265625 132.855469 50.292969 Z M 717.230469 106.367188 C 715.070312 106.824219 713.480469 107.535156 711.914062 108.386719 C 710.808594 109.042969 709.839844 109.726562 709.015625 110.410156 C 710.011719 111.121094 711.175781 112.058594 712.570312 112.511719 C 713.109375 112.65625 713.507812 112.710938 714.132812 112.710938 C 714.871094 112.710938 715.496094 112.65625 716.207031 112.570312 C 717.800781 112.34375 719.050781 112.058594 720.386719 111.574219 C 721.46875 111.121094 722.121094 110.722656 722.773438 110.09375 C 723.285156 109.582031 723.601562 109.097656 723.570312 108.53125 C 723.484375 107.988281 723.171875 107.589844 722.605469 107.136719 C 722.066406 106.738281 721.496094 106.453125 720.558594 106.28125 C 720.046875 106.199219 719.648438 106.167969 719.136719 106.167969 C 718.425781 106.199219 717.886719 106.253906 717.230469 106.367188 Z M 385.8125 101.617188 C 384.589844 102.273438 383.765625 103.039062 383.027344 103.835938 C 381.859375 105.171875 381.0625 106.480469 380.351562 107.875 C 380.070312 108.472656 379.8125 109.015625 379.613281 109.554688 C 380.609375 109.867188 381.519531 110.125 381.886719 110.09375 C 382.742188 110.210938 383.367188 110.210938 384.21875 110.125 C 385.074219 110.011719 385.785156 109.839844 386.578125 109.640625 C 388.199219 109.214844 389.535156 108.785156 390.871094 108.132812 C 391.980469 107.5625 392.664062 107.023438 393.34375 106.28125 C 393.855469 105.628906 394.167969 105.117188 394.199219 104.433594 C 394.226562 103.808594 394.027344 103.296875 393.601562 102.726562 C 393.261719 102.273438 392.890625 101.902344 392.179688 101.558594 C 391.554688 101.277344 390.929688 101.105469 390.105469 100.992188 C 389.335938 100.878906 388.769531 100.878906 387.972656 100.964844 C 387.0625 101.105469 386.492188 101.277344 385.8125 101.617188 Z M 257.199219 102.15625 C 252.167969 108.386719 247.734375 117.433594 245.089844 124.746094 C 242.53125 131.800781 242.304688 135.699219 242.558594 137.777344 C 243.925781 136.753906 245.0625 135.644531 246.085938 134.535156 C 250.179688 130.125 255.011719 121.988281 257.316406 116.695312 C 258.082031 114.761719 258.964844 112.855469 259.757812 110.921875 C 260.15625 105.03125 261.722656 101.789062 264.195312 96.753906 C 264.109375 96.609375 263.96875 96.441406 263.851562 96.324219 C 261.523438 97.121094 258.421875 100.621094 257.199219 102.15625 Z M 681.894531 35.8125 C 681.015625 40.820312 679.761719 45.65625 678.226562 50.609375 C 678.085938 51.089844 677.945312 51.546875 677.800781 52 C 677.089844 57.976562 676.550781 63.921875 676.238281 69.925781 C 675.839844 78.914062 675.980469 87.734375 676.523438 96.722656 C 677.117188 105.402344 678 113.964844 679.449219 122.613281 C 680.730469 129.613281 682.351562 136.410156 684.625 143.351562 C 686.359375 148.246094 688.347656 152.941406 690.707031 157.777344 C 692.300781 160.734375 693.835938 163.722656 695.65625 166.625 C 696.195312 167.507812 696.761719 168.417969 697.359375 169.296875 C 697.617188 167.621094 698.070312 164.605469 698.46875 164.433594 C 699.152344 164.433594 699.433594 169.953125 699.550781 170.351562 C 699.578125 170.40625 699.519531 171.121094 699.492188 171.175781 C 699.433594 171.402344 699.378906 171.601562 699.121094 171.800781 C 699.039062 171.859375 698.867188 172 698.753906 172 C 698.527344 172.085938 698.296875 172.144531 698.042969 172.144531 C 697.757812 172.171875 697.558594 172.144531 697.304688 172.085938 C 697.191406 172.058594 696.992188 172.03125 696.875 171.972656 C 696.535156 171.800781 696.335938 171.660156 696.109375 171.460938 C 694.714844 170.324219 693.378906 168.445312 692.441406 167.191406 C 690.140625 164.261719 688.207031 161.390625 686.359375 158.402344 C 683.289062 153.566406 680.929688 148.898438 678.796875 143.921875 C 675.8125 136.921875 673.707031 130.125 671.972656 123.011719 C 669.898438 114.304688 668.503906 105.6875 667.453125 96.921875 C 666.855469 91.6875 666.402344 86.511719 666.117188 81.304688 C 663.132812 87.59375 659.949219 93.824219 656.421875 100.109375 C 653.777344 104.804688 651.023438 109.46875 648.007812 114.105469 L 647.011719 115.585938 L 646.132812 116.953125 C 643.542969 120.792969 640.757812 124.574219 637.859375 128.359375 C 631.460938 136.609375 624.839844 144.175781 616.226562 151.945312 C 609.6875 157.632812 603.0625 162.726562 593.140625 167.109375 C 589.105469 168.785156 585.636719 169.894531 580.660156 170.722656 C 575.941406 171.433594 572.304688 171.546875 567.46875 171.035156 C 562.636719 170.40625 559.367188 169.46875 555.585938 167.875 C 551.4375 166 548.765625 164.207031 545.921875 161.816406 C 538.84375 155.414062 535.089844 148.785156 531.707031 141.730469 C 527.386719 132 524.65625 122.527344 522.382812 112.65625 C 520.023438 101.644531 518.460938 90.808594 517.292969 79.769531 C 517.066406 76.808594 516.808594 73.851562 516.554688 70.890625 C 516.382812 72.710938 516.214844 74.535156 516.042969 76.382812 C 514.820312 87.507812 514.421875 98.6875 513.597656 109.839844 C 512.886719 119.484375 512.945312 129.183594 512.660156 138.828125 C 512.433594 145.628906 512.832031 152.542969 512.972656 159.371094 C 513.03125 162.269531 513.34375 165.257812 513.597656 168.160156 C 513.710938 169.414062 513.9375 170.664062 514.082031 171.914062 C 514.25 173.394531 514.679688 174.875 514.933594 176.324219 C 514.960938 176.609375 515.929688 180.421875 515.332031 180.480469 C 514.648438 180.535156 512.746094 176.808594 512.601562 176.554688 C 511.808594 175.074219 511.296875 173.621094 510.699219 172.144531 C 510.214844 170.890625 509.84375 169.640625 509.503906 168.359375 C 508.652344 165.429688 508.054688 162.5 507.570312 159.511719 C 506.261719 152.628906 505.523438 145.800781 504.984375 138.886719 C 504.101562 129.183594 503.703125 119.511719 503.535156 109.8125 C 502.964844 98.660156 503.703125 87.335938 503.847656 76.183594 C 503.960938 66.339844 504.8125 56.441406 505.355469 46.597656 C 505.667969 41.046875 506.292969 35.472656 506.832031 29.925781 C 506.972656 28.417969 507.230469 26.910156 507.628906 25.429688 C 507.683594 25.230469 507.828125 25.03125 507.941406 24.804688 C 508.140625 24.519531 508.367188 24.292969 508.707031 24.035156 C 509.105469 23.695312 509.53125 23.46875 510.101562 23.210938 C 511.351562 22.671875 512.519531 22.441406 514.167969 22.328125 C 515.21875 22.273438 516.042969 22.300781 517.039062 22.441406 C 517.890625 22.585938 518.515625 22.726562 519.253906 22.984375 C 520.109375 23.296875 520.675781 23.582031 521.246094 24.035156 C 521.671875 24.378906 521.925781 24.660156 522.125 25.03125 C 522.296875 25.230469 522.296875 25.542969 522.382812 25.742188 C 522.753906 27.621094 522.609375 29.898438 522.636719 31.800781 C 522.667969 33.964844 522.753906 36.097656 522.78125 38.261719 C 522.78125 38.429688 522.78125 38.601562 522.78125 38.773438 C 522.667969 40.082031 522.410156 41.703125 521.332031 43.011719 C 521.613281 45.257812 521.84375 47.535156 522.097656 49.78125 C 523.378906 59.683594 524.601562 69.582031 526.105469 79.484375 C 527.867188 90.410156 529.972656 101.132812 532.84375 112 C 535.488281 121.644531 538.53125 130.890625 543.21875 140.335938 C 546.460938 146.652344 550.183594 152.910156 556.835938 158.574219 C 558.941406 160.28125 560.960938 161.644531 564 162.953125 C 566.046875 163.777344 567.8125 164.320312 570.371094 164.605469 C 572.671875 164.832031 574.320312 164.746094 576.511719 164.40625 C 579.582031 163.835938 581.855469 163.011719 584.328125 161.957031 C 592.574219 158.144531 598.457031 153.367188 603.859375 148.503906 C 611.820312 141.019531 617.960938 133.652344 623.902344 125.742188 C 626.628906 122.015625 629.1875 118.289062 631.691406 114.535156 L 632.628906 113.195312 L 633.539062 111.746094 C 636.550781 107.195312 639.394531 102.640625 642.152344 98.03125 C 647.410156 89.101562 652.074219 80.222656 656.367188 71.175781 C 659.664062 63.949219 662.621094 56.839844 665.207031 49.554688 C 665.945312 47.335938 666.65625 45.117188 667.3125 42.925781 C 667.710938 39.113281 668.136719 35.273438 668.902344 31.488281 C 669.214844 30.097656 669.613281 28.417969 670.382812 27.109375 C 670.550781 26.910156 670.722656 26.625 670.921875 26.453125 C 671.207031 26.253906 671.40625 26 671.804688 25.855469 C 672.058594 25.714844 672.511719 25.429688 672.855469 25.375 C 673.535156 25.117188 674.132812 25.003906 674.929688 24.890625 C 676.039062 24.746094 676.949219 24.746094 678.058594 24.890625 C 679.050781 25.03125 679.761719 25.203125 680.53125 25.542969 C 681.328125 25.886719 681.808594 26.226562 682.207031 26.710938 C 682.492188 27.023438 682.632812 27.308594 682.71875 27.648438 C 683.144531 29.867188 682.320312 33.566406 681.894531 35.8125 Z M 719.761719 101.445312 C 721.523438 101.53125 722.832031 101.730469 724.425781 102.101562 C 727.183594 102.839844 728.800781 103.695312 730.222656 105.089844 C 731.417969 106.3125 731.871094 107.363281 731.671875 108.757812 C 731.390625 110.039062 730.648438 110.976562 729.230469 112.058594 C 727.75 113.109375 726.328125 113.792969 724.140625 114.476562 C 721.835938 115.101562 719.847656 115.414062 717.230469 115.585938 C 715.808594 115.671875 714.703125 115.671875 713.28125 115.527344 C 711.660156 115.359375 710.550781 115.074219 709.273438 114.535156 C 708.132812 113.964844 707.308594 113.339844 706.628906 112.683594 C 706.542969 112.796875 706.457031 112.910156 706.34375 113.027344 C 704.636719 115.160156 703.613281 117.035156 703.074219 119.3125 C 702.820312 120.480469 702.789062 121.390625 702.875 122.554688 C 702.875 122.640625 702.875 122.726562 702.847656 122.8125 L 702.902344 123.066406 C 702.960938 123.4375 703.160156 125.03125 703.386719 125.230469 C 703.925781 126.625 704.722656 127.820312 706.714844 128.871094 C 707.621094 129.296875 708.445312 129.527344 709.613281 129.753906 C 711.175781 130.039062 712.484375 130.09375 714.132812 130.125 C 719.222656 130.066406 724.027344 129.214844 728.6875 128.304688 C 734.914062 127.023438 740.65625 125.542969 746.570312 123.980469 C 751.742188 122.554688 756.917969 121.078125 762.175781 119.683594 C 764.367188 119.085938 766.554688 118.488281 768.886719 117.976562 C 769.964844 117.71875 770.988281 117.492188 772.128906 117.292969 L 773.40625 117.121094 C 773.945312 117.066406 774.375 117.007812 774.941406 116.980469 C 775.3125 116.980469 777.328125 116.921875 777.441406 117.207031 C 777.5 117.464844 775.765625 117.804688 775.480469 117.890625 C 775.140625 118.03125 774.6875 118.117188 774.34375 118.230469 L 773.378906 118.574219 C 772.523438 118.859375 771.644531 119.226562 770.792969 119.539062 C 768.828125 120.28125 766.953125 121.105469 764.964844 121.816406 C 760.242188 123.722656 755.441406 125.457031 750.492188 127.164062 C 744.636719 129.214844 738.980469 131.003906 732.667969 132.65625 C 726.726562 134.105469 721.382812 135.214844 714.757812 135.585938 C 711.6875 135.699219 709.273438 135.613281 706.285156 135.246094 C 703.414062 134.816406 701.367188 134.304688 699.007812 133.367188 C 694.546875 131.433594 692.527344 129.441406 691.078125 126.597656 C 690.566406 125.570312 690.195312 124.546875 690.054688 123.464844 L 690.054688 123.097656 L 689.996094 122.753906 C 689.941406 121.277344 690.222656 119.851562 690.679688 118.402344 C 691.730469 115.527344 693.292969 113.195312 695.910156 110.578125 C 698.269531 108.273438 700.628906 106.511719 704.324219 104.691406 C 707.480469 103.210938 710.351562 102.242188 714.53125 101.644531 C 716.378906 101.417969 717.855469 101.363281 719.761719 101.445312 Z M 475.105469 124.007812 C 476.554688 122.441406 480.992188 117.863281 485.453125 119.058594 C 489.605469 120.59375 488.296875 123.78125 487.359375 126.027344 L 487.273438 126.140625 C 485.652344 127.90625 479.9375 133.507812 475.246094 132.882812 C 472.234375 131.574219 474.253906 125.96875 475.050781 124.121094 Z M 454.976562 99.511719 C 456.285156 100.449219 457.679688 101.246094 459.667969 101.789062 C 461.546875 102.242188 463.082031 102.242188 465.097656 102.101562 C 467.457031 101.902344 469.363281 101.53125 471.496094 101.019531 C 473.429688 100.566406 474.933594 100.082031 476.640625 99.425781 C 477.152344 99.199219 480.59375 97.578125 481.105469 97.664062 C 481.644531 97.863281 478.488281 100.023438 478.117188 100.195312 C 476.554688 101.105469 475.078125 101.730469 473.058594 102.386719 C 470.757812 103.152344 468.652344 103.664062 465.980469 104.0625 C 462.996094 104.433594 460.722656 104.460938 457.792969 103.949219 C 454.78125 103.296875 452.816406 102.386719 450.742188 101.132812 C 450.316406 100.878906 449.945312 100.648438 449.578125 100.394531 C 449.691406 100.820312 449.804688 101.246094 449.917969 101.703125 C 450.628906 104.148438 451.453125 106.597656 452.136719 109.042969 C 452.847656 111.601562 453.8125 114.191406 454.324219 116.78125 C 454.921875 119.140625 455.433594 121.503906 455.800781 123.921875 C 456.117188 125.882812 456.34375 127.847656 456.34375 129.867188 C 456.285156 131.289062 456.144531 132.570312 455.488281 133.964844 C 455.175781 134.589844 454.835938 135.074219 454.238281 135.644531 C 453.8125 136.011719 453.414062 136.296875 452.789062 136.582031 C 451.851562 137.035156 450.96875 137.292969 449.71875 137.464844 C 448.324219 137.632812 447.21875 137.605469 445.851562 137.378906 C 444.941406 137.207031 444.289062 137.035156 443.523438 136.722656 C 442.527344 136.296875 441.902344 135.925781 441.160156 135.414062 C 439.542969 134.21875 438.601562 133.140625 437.636719 131.832031 C 436.386719 130.039062 435.417969 128.1875 434.394531 126.367188 C 433.03125 123.894531 431.867188 121.617188 430.957031 119.113281 C 430.585938 117.917969 430.160156 116.78125 429.847656 115.585938 L 429.707031 114.902344 L 429.535156 114.277344 C 429.507812 114.191406 429.507812 114.136719 429.476562 114.050781 C 428.996094 114.417969 428.511719 114.789062 428 115.160156 C 425.128906 117.207031 422.257812 118.972656 418.789062 120.792969 C 415.121094 122.671875 411.738281 124.121094 407.332031 125.542969 C 403.179688 126.824219 399.65625 127.5625 394.878906 128.046875 C 390.503906 128.417969 387.003906 128.359375 382.828125 127.589844 C 378.875 126.710938 376.457031 125.601562 374.15625 123.808594 C 372.082031 122.015625 371.226562 120.449219 370.660156 118.429688 C 370.601562 118.175781 370.546875 117.949219 370.515625 117.71875 C 369.664062 118.515625 368.980469 119.140625 368.640625 119.425781 C 366.851562 120.707031 365.144531 121.789062 362.871094 122.867188 C 360.652344 123.863281 358.71875 124.519531 355.933594 125.058594 C 354.484375 125.289062 353.316406 125.371094 351.8125 125.402344 C 350.191406 125.371094 348.96875 125.257812 347.460938 124.945312 C 345.898438 124.605469 344.847656 124.261719 343.625 123.695312 C 342.371094 123.097656 341.546875 122.527344 340.640625 121.816406 C 337.425781 118.972656 336.035156 115.898438 335.464844 112.710938 C 331.429688 113.738281 327.019531 113.195312 323.210938 111.546875 C 322.246094 111.148438 321.308594 110.636719 320.367188 110.039062 C 321.136719 111.945312 321.960938 113.820312 322.472656 115.757812 C 323.210938 118.574219 324.320312 121.503906 324.746094 124.320312 C 325.515625 128.730469 326.507812 133.28125 325.683594 137.890625 C 325.003906 141.589844 323.125 143.523438 319.316406 144.320312 C 312.636719 145.769531 306.070312 142.527344 301.605469 138.03125 C 298.847656 135.246094 295.265625 129.980469 293.644531 126.652344 C 293.390625 126.199219 293.132812 125.714844 292.878906 125.230469 C 291.996094 125.96875 290.972656 126.710938 289.808594 127.390625 C 282.160156 131.71875 270.648438 130.949219 264.308594 124.460938 C 258.421875 133.9375 248.730469 145.828125 238.464844 143.609375 C 233.746094 142.613281 233.148438 139.058594 233.777344 134.988281 C 234.117188 132.742188 234.914062 130.011719 236.050781 127.050781 C 233.007812 129.613281 229.371094 131.914062 224.308594 133.792969 C 222.234375 134.449219 220.5 134.847656 218.113281 135.128906 C 215.554688 135.386719 213.5625 135.386719 211.003906 135.128906 C 208.21875 134.789062 206.226562 134.304688 203.839844 133.507812 C 201.113281 132.542969 199.148438 131.574219 196.988281 130.292969 C 195.878906 129.640625 194.800781 129.015625 193.71875 128.386719 C 190.535156 131.945312 187.210938 135.527344 183.941406 139.113281 C 180.101562 143.324219 176.433594 147.589844 172.65625 151.832031 C 169.386719 155.472656 166.117188 159.140625 162.960938 162.785156 L 159.863281 166.3125 L 157.046875 169.554688 C 156.421875 170.265625 155.796875 170.949219 155.199219 171.632812 C 155.058594 171.773438 154.972656 171.914062 154.828125 172.03125 C 154.746094 172.144531 154.660156 172.285156 154.546875 172.398438 L 154.402344 172.511719 C 154.347656 172.570312 154.234375 172.628906 154.148438 172.65625 C 153.976562 172.742188 153.804688 172.796875 153.578125 172.855469 C 153.324219 172.882812 153.125 172.910156 152.839844 172.882812 C 152.46875 172.855469 152.214844 172.796875 151.929688 172.683594 C 151.730469 172.597656 151.589844 172.511719 151.476562 172.398438 C 151.417969 172.371094 151.390625 172.257812 151.363281 172.199219 C 151.304688 172.144531 151.332031 172.058594 151.332031 172 C 151.304688 171.945312 151.332031 171.886719 151.363281 171.859375 C 151.363281 171.800781 151.417969 171.746094 151.417969 171.714844 C 151.53125 171.488281 151.675781 171.234375 151.816406 171.003906 C 152.214844 170.265625 152.667969 169.554688 153.152344 168.84375 C 153.777344 167.707031 154.574219 166.566406 155.285156 165.457031 C 156.050781 164.207031 156.875 162.984375 157.699219 161.757812 C 160.230469 157.945312 162.988281 154.191406 165.773438 150.4375 C 168.84375 146.054688 172.257812 141.703125 175.554688 137.351562 C 178.453125 133.566406 181.636719 129.8125 184.507812 126.027344 C 185.132812 125.257812 185.730469 124.492188 186.355469 123.722656 C 184.792969 122.671875 183.285156 121.617188 181.75 120.535156 C 177.03125 117.121094 172.597656 113.679688 168.050781 110.238281 C 166.484375 109.070312 164.894531 107.847656 163.386719 106.652344 C 161.226562 104.917969 163.8125 104.007812 166.570312 103.152344 C 169.328125 102.273438 172.113281 101.503906 174.273438 103.210938 C 175.78125 104.40625 177.34375 105.6875 178.738281 106.910156 C 182.773438 110.464844 186.980469 113.9375 191.160156 117.433594 C 191.191406 117.464844 191.21875 117.492188 191.246094 117.519531 C 194.941406 112.828125 198.582031 108.160156 202.25 103.496094 C 204.722656 100.421875 207.222656 97.265625 209.925781 94.277344 C 211.886719 92.085938 214.273438 92.199219 218.082031 93.109375 C 221.777344 93.992188 223.570312 94.789062 221.664062 96.921875 C 218.9375 99.910156 216.265625 102.871094 213.621094 105.886719 C 208.53125 111.574219 203.527344 117.320312 198.46875 123.011719 C 200.402344 124.433594 202.417969 125.828125 204.523438 127.222656 L 204.578125 127.25 C 206.03125 128.246094 207.394531 129.042969 209.242188 129.839844 C 210.519531 130.351562 211.601562 130.691406 213.136719 130.949219 C 214.386719 131.148438 215.296875 131.203125 216.578125 131.121094 C 217.996094 131.003906 219.050781 130.804688 220.328125 130.492188 C 227.464844 128.417969 232.183594 124.804688 236.503906 121.390625 C 237.671875 120.449219 238.808594 119.511719 239.945312 118.574219 C 245.035156 108.871094 252.367188 98.972656 258.878906 95.386719 C 261.691406 93.824219 265.53125 93.394531 267.519531 95.074219 C 269.167969 94.703125 270.933594 94.789062 272.46875 95.1875 C 273.773438 95.5 275.820312 96.441406 275.851562 97.71875 C 275.90625 99.285156 273.746094 105.058594 272.722656 107.589844 C 272.097656 111.546875 272.269531 115.671875 274.085938 119.285156 C 274.910156 120.847656 277.015625 123.550781 278.976562 123.835938 C 283.296875 123.125 287.503906 116.722656 288.160156 112.484375 C 287.988281 111.289062 287.875 109.894531 288.1875 109.296875 C 288.757812 108.105469 289.550781 107.621094 291.117188 107.164062 C 293.449219 106.539062 297.457031 106.738281 299.074219 108.472656 C 300.070312 109.527344 299.984375 111.773438 299.644531 113.679688 C 299.644531 113.707031 299.644531 113.738281 299.671875 113.765625 C 300.414062 117.863281 301.804688 121.589844 303.765625 125.316406 C 306.296875 130.152344 308.941406 135.785156 313.832031 138.886719 L 315.847656 139.851562 C 317.355469 137.691406 317.527344 134.617188 317.554688 132.113281 C 317.582031 128.246094 316.53125 119.851562 315.535156 116.242188 C 314.882812 113.792969 314.398438 111.289062 313.519531 108.902344 C 312.890625 107.136719 312.238281 105.429688 311.585938 103.695312 C 311.328125 103.066406 310.53125 101.332031 310.164062 100.820312 C 308.96875 99.425781 313.433594 98.230469 314.9375 99.65625 C 315.023438 99.738281 315.109375 99.855469 315.222656 99.96875 C 315.253906 99.996094 315.253906 100.023438 315.28125 100.050781 L 317.925781 103.410156 C 319.117188 104.773438 320.339844 106.140625 321.761719 107.476562 C 325.714844 111.089844 330.175781 112.628906 335.292969 111.460938 C 335.265625 111.261719 335.265625 111.089844 335.238281 110.890625 C 335.125 108.929688 338.59375 108.816406 341.632812 108.816406 C 344.390625 108.816406 348 108.902344 348.117188 110.691406 C 348.199219 113.59375 348.3125 116.46875 350.164062 119.226562 C 350.417969 119.511719 350.703125 119.769531 351.070312 120.050781 C 351.1875 120.167969 351.5 120.28125 351.667969 120.367188 C 351.867188 120.449219 351.980469 120.480469 352.238281 120.535156 C 352.605469 120.566406 352.949219 120.566406 353.347656 120.535156 C 354.910156 120.421875 356.273438 120.023438 357.582031 119.597656 C 359.6875 118.886719 361.335938 118.117188 363.097656 117.207031 C 364.175781 116.636719 367.703125 114.363281 370.746094 112.484375 C 371.257812 110.523438 372.050781 108.785156 373.21875 106.878906 C 374.210938 105.257812 375.292969 103.835938 376.886719 102.328125 C 378.164062 101.105469 379.414062 100.136719 381.460938 99.226562 C 383.195312 98.515625 384.675781 98.148438 386.890625 97.949219 C 388.769531 97.832031 390.191406 97.890625 391.980469 98.203125 C 393.714844 98.542969 394.964844 98.972656 396.246094 99.65625 C 397.496094 100.367188 398.121094 101.019531 398.632812 101.929688 C 399.144531 102.898438 399.285156 103.636719 399.085938 104.632812 C 398.832031 105.628906 398.292969 106.367188 397.324219 107.277344 C 396.246094 108.21875 395.164062 108.902344 393.488281 109.613281 C 391.667969 110.324219 390.019531 110.75 387.859375 111.148438 C 386.75 111.347656 385.8125 111.460938 384.617188 111.546875 C 383.253906 111.574219 382.285156 111.488281 381.007812 111.234375 C 380.78125 111.148438 380.070312 110.921875 379.246094 110.578125 C 379.015625 111.347656 378.816406 112.113281 378.703125 112.941406 C 378.476562 114.648438 378.5625 116.097656 379.132812 117.777344 C 379.644531 119.113281 380.296875 120.222656 381.804688 121.390625 C 383.027344 122.242188 384.21875 122.785156 386.210938 123.152344 C 388.539062 123.523438 390.585938 123.4375 392.945312 123.183594 C 396.300781 122.785156 398.804688 122.15625 401.675781 121.191406 C 405.199219 119.96875 407.929688 118.660156 410.800781 117.066406 C 413.726562 115.414062 416.117188 113.820312 418.503906 111.972656 C 420.496094 110.410156 422.230469 108.871094 423.878906 107.195312 C 424.871094 106.199219 425.726562 105.316406 426.292969 104.261719 C 426.464844 103.808594 426.691406 103.382812 426.863281 102.925781 C 426.890625 102.8125 427.03125 102.355469 427.089844 102.300781 C 427.375 101.703125 427.574219 101.445312 428.253906 100.90625 C 428.683594 100.621094 429.078125 100.421875 429.675781 100.195312 C 430.8125 99.824219 431.835938 99.65625 433.230469 99.625 C 434.707031 99.65625 435.789062 99.824219 436.984375 100.25 C 437.609375 100.507812 438.035156 100.734375 438.460938 101.046875 C 438.945312 101.476562 439.171875 101.757812 439.371094 102.214844 C 439.429688 102.441406 439.511719 102.671875 439.570312 102.925781 C 439.65625 103.4375 439.742188 103.921875 439.882812 104.40625 C 440.335938 106.167969 440.878906 107.90625 441.332031 109.667969 C 441.730469 110.921875 442.015625 112.257812 442.328125 113.507812 L 442.441406 114.105469 L 442.640625 114.761719 C 442.894531 115.84375 443.09375 117.035156 443.492188 118.0625 C 443.863281 119.140625 444.261719 120.195312 444.6875 121.246094 C 444.546875 119.9375 444.402344 118.628906 444.148438 117.320312 L 442.640625 109.640625 C 442.15625 107.195312 441.445312 104.660156 441.105469 102.1875 C 440.820312 99.996094 440.335938 97.804688 440.222656 95.585938 C 440.054688 93.878906 439.96875 92.171875 439.910156 90.464844 C 439.855469 89.441406 439.742188 88.246094 439.882812 87.222656 C 439.910156 87.136719 439.910156 86.996094 439.941406 86.910156 C 440.023438 86.625 440.167969 86.425781 440.480469 86.167969 C 440.707031 85.96875 440.964844 85.828125 441.304688 85.6875 C 441.957031 85.429688 442.527344 85.316406 443.351562 85.289062 C 444.117188 85.257812 444.6875 85.316406 445.371094 85.515625 C 445.765625 85.601562 446.023438 85.714844 446.308594 85.886719 C 446.675781 86.085938 446.90625 86.253906 447.074219 86.511719 C 447.273438 86.878906 447.417969 87.164062 447.558594 87.507812 C 447.984375 88.585938 448.183594 89.8125 448.753906 90.835938 C 449.433594 92.511719 450.230469 94.136719 451.28125 95.757812 C 452.304688 97.179688 453.273438 98.261719 454.976562 99.511719 Z M 340.097656 58.0625 C 341.660156 56.15625 345.242188 52.058594 349.878906 51.917969 C 354.769531 52.429688 353.089844 58.0625 352.4375 59.855469 L 352.40625 59.910156 C 352.40625 59.9375 352.40625 59.9375 352.378906 59.96875 C 352.351562 60.054688 352.09375 60.335938 352.011719 60.394531 C 350.675781 61.730469 349.140625 63.097656 347.289062 64.261719 C 346.695312 64.746094 346.070312 65.203125 345.214844 65.570312 C 344.476562 66.054688 344.023438 66.113281 342.941406 66.3125 C 341.605469 66.566406 340.980469 65.742188 340.695312 65.257812 C 340.128906 64.660156 339.984375 64.035156 339.871094 63.382812 C 339.386719 61.816406 339.558594 60.195312 339.871094 58.628906 C 339.871094 58.628906 339.984375 58.203125 340.011719 58.175781 L 340.097656 58.117188 C 340.070312 58.089844 340.070312 58.0625 340.097656 58.0625 Z M 76.054688 95.214844 C 80.546875 94.902344 85.121094 94.648438 89.585938 94.335938 C 92.058594 94.136719 95.699219 93.707031 98.144531 93.851562 C 98.371094 93.851562 98.710938 93.9375 98.9375 93.964844 C 99.394531 94.050781 99.707031 94.164062 100.078125 94.335938 C 100.53125 94.5625 100.785156 94.816406 100.902344 95.160156 C 100.984375 95.414062 100.957031 95.644531 100.785156 95.898438 C 100.617188 96.15625 100.417969 96.296875 100.046875 96.496094 C 99.992188 96.554688 99.535156 96.722656 99.421875 96.78125 C 98.65625 97.066406 97.660156 97.265625 96.777344 97.464844 C 94.730469 97.890625 92.65625 98.203125 90.609375 98.628906 C 89.613281 98.828125 84.296875 100.167969 83.53125 99.882812 C 83.359375 99.625 84.070312 99.140625 85.039062 98.628906 C 81.738281 99.058594 78.242188 99.484375 77.761719 99.570312 C 71.933594 100.367188 65.992188 101.046875 60.132812 101.757812 C 53.9375 102.527344 47.625 103.152344 41.398438 103.835938 C 35.488281 104.519531 29.6875 105.203125 23.832031 106 C 19 106.652344 13.996094 107.394531 9.304688 108.304688 C 8.566406 108.417969 7.824219 108.585938 7.113281 108.757812 C 7 117.234375 7.230469 125.65625 7.9375 134.136719 L 8.308594 137.917969 C 8.335938 138.230469 8.335938 138.542969 8.335938 138.828125 C 8.394531 139.171875 8.449219 139.484375 8.480469 139.824219 C 9.046875 145.742188 9.789062 151.402344 11.207031 157.320312 C 12.542969 162.242188 14.195312 166.792969 17.40625 171.488281 C 18.914062 173.480469 20.875 175.871094 24.144531 177.292969 C 24.941406 177.605469 25.566406 177.777344 26.558594 177.863281 C 27.726562 177.976562 28.691406 177.890625 29.859375 177.777344 C 34.40625 177.179688 38.328125 175.699219 41.96875 174.277344 C 49.105469 171.433594 55.839844 168.246094 62.492188 165.089844 C 70.140625 161.503906 77.761719 157.863281 85.4375 154.277344 C 93.738281 150.4375 102.066406 146.652344 110.765625 142.984375 C 118.15625 139.910156 125.265625 137.179688 133.222656 134.449219 C 139.933594 132.171875 146.640625 130.011719 153.835938 128.105469 C 158.410156 126.878906 162.761719 125.800781 167.792969 125.089844 C 169.015625 124.917969 170.210938 124.773438 171.460938 124.660156 C 172.199219 124.605469 172.9375 124.519531 173.707031 124.460938 C 174.019531 124.460938 176.945312 124.292969 177.0625 124.492188 C 177.144531 124.71875 174.386719 125.203125 174.105469 125.257812 C 173.449219 125.402344 172.710938 125.515625 172.058594 125.65625 C 170.921875 125.882812 169.839844 126.113281 168.730469 126.367188 C 164.269531 127.476562 160.289062 128.671875 156.082031 130.011719 C 149.511719 132.257812 143.230469 134.5625 136.949219 136.980469 C 129.640625 139.882812 122.875 142.8125 116.023438 145.96875 C 107.867188 149.8125 99.960938 153.738281 92.117188 157.746094 C 84.753906 161.476562 77.476562 165.257812 70.140625 169.015625 C 63.433594 172.398438 56.75 175.785156 49.558594 178.886719 C 44.300781 181.078125 39.664062 182.8125 33.070312 183.835938 C 30.085938 184.234375 27.753906 184.347656 24.683594 184.175781 C 21.386719 183.921875 19.113281 183.4375 16.410156 182.46875 C 10.496094 180.167969 7.597656 177.292969 4.839844 173.90625 C 0.804688 168.699219 -1.242188 163.808594 -3.003906 158.34375 C -4.824219 152.3125 -6.046875 146.28125 -6.730469 140.195312 L -6.785156 139.199219 L -6.898438 138.261719 C -7.015625 137.007812 -7.15625 135.644531 -7.15625 134.390625 C -7.46875 126.054688 -7.242188 117.777344 -6.703125 109.46875 C -6.730469 109.46875 -6.757812 109.441406 -6.785156 109.441406 C -7.726562 109.015625 -8.238281 108.585938 -8.632812 107.988281 C -9.003906 107.335938 -9.003906 106.796875 -8.691406 106.140625 C -8.433594 105.714844 -8.152344 105.402344 -7.667969 105.03125 C -7.214844 104.660156 -6.785156 104.40625 -6.304688 104.148438 C -5.449219 94.933594 -4.199219 85.800781 -2.609375 76.582031 C -1.355469 69.300781 0.0351562 62.015625 1.828125 54.761719 C 2.679688 51.089844 3.5625 47.449219 4.699219 43.808594 L 5.464844 40.847656 L 5.578125 40.59375 C 5.636719 40.507812 5.695312 40.367188 5.75 40.28125 C 5.921875 40.082031 6.089844 39.9375 6.347656 39.738281 C 6.886719 39.398438 7.457031 39.199219 8.28125 39.027344 C 9.105469 38.886719 9.789062 38.859375 10.640625 38.945312 C 11.4375 39.027344 12.03125 39.171875 12.660156 39.457031 C 13.226562 39.710938 13.566406 39.9375 13.851562 40.308594 C 13.910156 40.421875 14.023438 40.566406 14.050781 40.679688 C 14.078125 40.765625 14.109375 40.878906 14.109375 40.964844 C 14.109375 41.046875 14.136719 41.105469 14.109375 41.191406 L 14.078125 41.445312 C 13.964844 42.328125 13.796875 43.210938 13.625 44.09375 C 13 47.792969 12.203125 51.546875 11.71875 55.246094 C 10.726562 62.5 9.816406 69.726562 9.019531 76.980469 C 8.253906 84.972656 7.65625 92.882812 7.3125 100.847656 C 11.71875 100.222656 16.210938 99.738281 20.648438 99.257812 C 26.84375 98.660156 32.957031 98.175781 39.210938 97.71875 C 45.523438 97.292969 51.863281 96.894531 58.199219 96.46875 C 64.144531 96.070312 70.085938 95.613281 76.054688 95.214844 Z M 76.054688 95.214844 " fill-opacity="1" fill-rule="evenodd"/></g><g clip-path="url(#401bedf091)"><path fill="#000000" d="M 175.414062 100.871094 C 180.652344 100.644531 185.859375 100.472656 191.082031 100.644531 C 193.144531 100.613281 196.613281 100.472656 198.574219 101.074219 C 198.589844 101.09375 199.121094 101.230469 199.226562 101.316406 C 199.550781 101.488281 199.777344 101.660156 200 101.953125 C 200.292969 102.363281 200.410156 102.742188 200.378906 103.222656 C 200.34375 103.585938 200.257812 103.84375 200.066406 104.152344 C 199.65625 104.738281 199.207031 104.996094 198.589844 105.304688 C 197.492188 105.734375 196.441406 106.113281 195.292969 106.351562 C 194.863281 106.4375 191.582031 107.074219 191.339844 106.507812 C 191.339844 106.492188 191.339844 106.492188 191.339844 106.492188 C 191.253906 106.214844 191.90625 105.734375 192.628906 105.269531 C 192.011719 105.355469 191.5625 105.40625 191.410156 105.425781 C 186.324219 106.300781 181.152344 106.953125 176.03125 107.640625 C 168.042969 108.863281 160.003906 109.996094 152.03125 111.320312 C 142.015625 112.972656 131.964844 114.554688 121.949219 116.273438 C 117.257812 117.0625 112.480469 117.90625 107.773438 118.609375 C 107.570312 118.628906 107.363281 118.660156 107.140625 118.679688 C 106.949219 118.714844 106.742188 118.746094 106.554688 118.78125 C 101.039062 119.503906 95.386719 120.070312 89.855469 120.691406 C 80.132812 121.808594 70.40625 122.90625 60.667969 123.871094 C 59.242188 124.023438 57.8125 124.179688 56.386719 124.316406 C 53.347656 128.546875 50.359375 132.84375 47.402344 137.226562 C 39.226562 149.519531 31.804688 161.636719 24.929688 174.703125 C 21.703125 180.925781 18.867188 186.820312 16.253906 193.304688 C 16.117188 193.648438 15.964844 194.007812 15.808594 194.351562 C 15.671875 194.710938 15.550781 195.089844 15.394531 195.46875 C 14.570312 197.667969 13.796875 199.75 13.109375 202.019531 C 12.355469 204.664062 11.738281 207.175781 11.597656 209.945312 C 11.582031 210.890625 11.597656 212.09375 11.996094 212.96875 C 12.011719 213.003906 12.0625 213.105469 12.082031 213.125 C 12.199219 213.226562 12.441406 213.3125 12.578125 213.363281 C 13.902344 213.726562 15.535156 213.570312 16.855469 213.414062 C 22.972656 212.574219 29.175781 210.21875 34.894531 207.964844 C 43.949219 204.355469 52.847656 200.316406 61.78125 196.398438 C 72.898438 191.566406 83.980469 186.941406 95.285156 182.542969 C 107.515625 177.867188 119.441406 173.671875 132 169.941406 C 143.40625 166.605469 154.761719 163.683594 166.429688 161.398438 C 167.148438 161.242188 170.550781 160.539062 174.453125 159.832031 C 176.359375 155.722656 178.660156 151.769531 181.03125 147.921875 C 185.585938 140.613281 190.414062 134.011719 195.894531 127.394531 C 196.425781 126.828125 196.90625 126.175781 197.421875 125.605469 C 197.507812 125.503906 197.609375 125.417969 197.695312 125.332031 C 197.765625 125.226562 197.835938 125.140625 197.921875 125.054688 C 199.019531 123.886719 200.171875 122.71875 201.355469 121.566406 C 201.253906 118.953125 201.425781 116.617188 201.71875 114.019531 C 201.957031 111.734375 202.265625 109.5 202.664062 107.246094 C 202.679688 107.109375 202.816406 105.976562 202.953125 105.011719 C 202.9375 104.890625 202.9375 104.789062 202.9375 104.667969 C 202.9375 103.757812 202.988281 102.777344 203.347656 101.917969 C 203.417969 101.796875 203.589844 101.523438 203.691406 101.4375 C 203.8125 101.351562 204.035156 101.109375 204.175781 101.074219 C 204.484375 100.902344 204.773438 100.835938 205.136719 100.816406 C 205.566406 100.816406 205.890625 100.921875 206.253906 101.144531 C 206.492188 101.300781 206.664062 101.453125 206.835938 101.695312 C 206.992188 101.917969 207.078125 102.105469 207.164062 102.363281 C 207.285156 102.792969 207.335938 103.15625 207.371094 103.585938 C 207.574219 104.859375 207.59375 106.25 207.609375 107.523438 C 207.714844 109.757812 207.730469 112.007812 207.800781 114.261719 C 207.816406 114.691406 207.832031 115.101562 207.851562 115.53125 C 209.742188 113.867188 211.648438 112.25 213.519531 110.703125 C 218.226562 106.765625 222.832031 103.242188 228.054688 99.976562 C 230.925781 98.066406 234.085938 96.054688 237.261719 94.699219 C 238.003906 94.335938 242.675781 92.222656 243.363281 92.667969 C 243.363281 92.667969 243.363281 92.6875 243.363281 92.6875 C 243.65625 93.238281 239.324219 96.863281 238.914062 97.242188 C 236.492188 99.527344 233.621094 101.78125 231.0625 103.964844 C 226.75 107.933594 222.558594 111.871094 218.382812 116.015625 C 215.460938 119.074219 212.695312 122.082031 209.945312 125.125 C 210 125.210938 210.050781 125.28125 210.117188 125.347656 C 210.445312 125.742188 210.738281 125.984375 211.183594 126.226562 C 211.734375 126.519531 212.230469 126.65625 212.832031 126.777344 C 214.242188 126.980469 215.253906 126.949219 216.648438 126.863281 C 216.734375 126.863281 216.820312 126.863281 216.886719 126.878906 C 216.972656 126.863281 217.058594 126.84375 217.144531 126.84375 C 217.882812 126.792969 218.554688 126.757812 219.292969 126.691406 C 222.660156 126.328125 225.597656 125.539062 228.8125 124.472656 C 232.417969 123.234375 235.75 121.789062 239.1875 120.191406 C 241.851562 118.886719 244.460938 117.542969 247.074219 116.1875 C 247.195312 116.03125 247.332031 115.859375 247.453125 115.703125 C 248.773438 114.210938 250.164062 112.921875 251.679688 111.613281 C 253.550781 110.066406 255.21875 108.792969 257.347656 107.589844 C 259.203125 106.59375 261.058594 105.804688 263.066406 105.183594 C 263.703125 104.976562 265.714844 104.566406 267.175781 104.601562 C 267.292969 104.460938 267.414062 104.324219 267.535156 104.1875 L 268 103.707031 C 268.066406 103.621094 268.152344 103.535156 268.238281 103.464844 C 268.324219 103.363281 268.394531 103.277344 268.480469 103.191406 C 268.773438 102.878906 269.21875 102.433594 269.664062 101.988281 C 270.113281 101.402344 270.558594 100.816406 271.023438 100.234375 C 271.453125 99.734375 271.832031 99.390625 272.398438 99.03125 C 273.03125 98.652344 273.546875 98.480469 274.289062 98.375 C 275.042969 98.308594 275.628906 98.375 276.347656 98.632812 C 277.292969 99.03125 277.914062 99.527344 278.480469 100.371094 C 278.890625 101.042969 279.082031 101.589844 279.167969 102.363281 C 279.199219 102.8125 279.183594 103.171875 279.113281 103.621094 C 279.011719 104.101562 278.890625 104.480469 278.667969 104.925781 C 278.394531 105.476562 278.101562 105.871094 277.707031 106.320312 C 276.796875 107.332031 275.953125 108.398438 275.027344 109.394531 C 274.941406 109.480469 274.835938 109.566406 274.75 109.652344 C 274.664062 109.757812 274.597656 109.84375 274.511719 109.929688 C 274.355469 110.101562 274.183594 110.273438 274.011719 110.425781 C 273.617188 110.804688 273.222656 111.183594 272.828125 111.5625 C 272.292969 112.335938 271.8125 113.125 271.316406 114.019531 C 270.746094 115.070312 270.199219 116.132812 269.820312 117.253906 C 269.769531 117.355469 269.683594 117.75 269.683594 117.871094 L 269.648438 118.078125 C 269.648438 118.128906 269.664062 118.144531 269.632812 118.179688 C 269.597656 118.230469 269.648438 118.285156 269.699219 118.300781 C 270.214844 118.628906 271.417969 118.507812 271.984375 118.421875 C 273.632812 118.199219 274.992188 117.699219 276.503906 117.046875 C 278.652344 116.101562 280.574219 115.015625 282.585938 113.832031 C 284.371094 112.714844 286.210938 111.578125 288.03125 110.496094 C 288.117188 110.339844 288.1875 110.1875 288.273438 110.03125 C 288.992188 108.589844 289.886719 107.144531 290.660156 105.699219 C 290.675781 105.664062 290.695312 105.632812 290.710938 105.597656 C 290.710938 105.578125 290.710938 105.5625 290.710938 105.546875 C 290.847656 104.703125 291.605469 103.707031 292.121094 103.105469 C 292.566406 102.675781 292.945312 102.433594 293.496094 102.175781 C 294.320312 101.832031 294.988281 101.746094 295.882812 101.832031 C 296.554688 101.933594 297.050781 102.105469 297.652344 102.449219 C 298.183594 102.792969 298.5625 103.121094 298.941406 103.636719 C 299.386719 104.289062 299.628906 104.839844 299.765625 105.597656 C 299.816406 105.941406 299.835938 106.234375 299.816406 106.578125 C 299.835938 106.835938 299.730469 107.144531 299.695312 107.402344 C 299.664062 107.574219 299.558594 107.898438 299.492188 108.074219 C 299.4375 108.191406 299.371094 108.332031 299.335938 108.433594 C 299.113281 108.984375 298.839844 109.5 298.546875 110.015625 C 297.703125 111.457031 296.8125 112.902344 295.953125 114.347656 C 294.664062 116.546875 293.511719 118.746094 292.292969 120.964844 C 291.484375 122.5625 290.730469 124.128906 290.058594 125.777344 C 290.109375 125.726562 290.179688 125.691406 290.230469 125.640625 C 292.257812 124.179688 294.011719 122.511719 295.78125 120.742188 C 298.117188 118.402344 300.246094 116.015625 302.394531 113.488281 C 304.558594 110.890625 306.636719 108.261719 308.714844 105.578125 C 310.226562 103.6875 311.6875 101.644531 313.113281 99.683594 C 313.199219 99.425781 313.304688 99.148438 313.390625 98.890625 C 313.992188 97.414062 314.660156 96.195312 315.503906 94.871094 C 316.105469 93.976562 316.738281 93.117188 317.496094 92.359375 C 317.632812 92.207031 317.890625 92.035156 318.046875 91.914062 C 318.40625 91.691406 318.699219 91.570312 319.128906 91.484375 C 319.609375 91.414062 319.96875 91.464844 320.417969 91.621094 C 320.707031 91.742188 320.933594 91.878906 321.171875 92.101562 C 321.394531 92.308594 321.53125 92.496094 321.6875 92.773438 C 321.875 93.152344 321.945312 93.460938 321.960938 93.871094 C 321.960938 94.113281 321.945312 94.285156 321.894531 94.507812 C 321.671875 95.488281 321.15625 96.347656 320.691406 97.226562 C 319.867188 98.839844 319.007812 100.335938 318.0625 101.882812 C 317.496094 102.828125 316.929688 103.757812 316.34375 104.667969 C 316.449219 104.996094 316.566406 105.21875 316.792969 105.492188 C 317.425781 106.214844 318.320312 106.542969 319.230469 106.800781 C 320.519531 107.125 321.722656 107.246094 323.011719 107.332031 C 323.335938 106.867188 323.679688 106.421875 324.023438 105.921875 C 324.214844 105.632812 324.488281 105.269531 324.746094 104.996094 C 327.101562 102.8125 328.441406 104.890625 329.523438 106.953125 C 329.917969 107.746094 331.035156 110.753906 331.429688 111.046875 C 331.273438 111.183594 331.152344 111.339844 331.015625 111.492188 C 330.328125 112.265625 329.675781 112.988281 329.039062 113.8125 C 329.007812 113.867188 328.972656 113.898438 328.9375 113.953125 C 330.261719 113.574219 331.601562 113.109375 332.890625 112.644531 C 335.019531 111.90625 337.132812 111.113281 339.261719 110.375 C 340.808594 109.824219 342.390625 109.277344 343.988281 108.863281 C 349.195312 103.65625 356.582031 99.21875 361.699219 99.082031 C 364.605469 98.996094 367.007812 100.59375 367.320312 103.5 C 367.800781 107.867188 362.835938 111.304688 359.191406 112.316406 C 357.199219 112.886719 354.398438 113.109375 352.59375 111.855469 C 350.378906 114.019531 348.230469 116.597656 347.234375 118.832031 C 355.5 118.714844 377.371094 109.394531 380.855469 103.242188 C 380.460938 103.121094 380.101562 103 379.742188 102.792969 C 379.484375 102.675781 379.292969 102.554688 379.070312 102.382812 C 378.761719 102.125 378.589844 101.882812 378.433594 101.503906 C 378.28125 101.058594 378.261719 100.699219 378.382812 100.234375 C 378.453125 99.992188 378.554688 99.804688 378.710938 99.582031 C 378.796875 99.496094 379 99.21875 379.121094 99.167969 C 379.449219 98.960938 379.6875 98.859375 380.082031 98.789062 C 380.203125 98.789062 380.339844 98.773438 380.480469 98.773438 C 380.667969 98.789062 380.855469 98.804688 381.046875 98.839844 C 381.339844 98.890625 381.785156 98.960938 382.078125 99.0625 C 382.25 99.132812 382.695312 99.238281 382.9375 99.339844 C 383.539062 99.355469 384.121094 99.339844 384.707031 99.339844 C 386.078125 99.238281 387.675781 99.324219 389.035156 99.082031 C 390.117188 98.960938 390.992188 98.753906 392.042969 98.515625 C 393.347656 98.257812 394.328125 98.085938 395.667969 98.429688 C 396.183594 98.601562 396.542969 98.789062 396.953125 99.132812 C 397.417969 99.527344 397.695312 99.890625 397.933594 100.441406 C 398.140625 100.9375 398.242188 101.351562 398.261719 101.882812 C 398.261719 102.332031 398.210938 102.691406 398.105469 103.121094 C 397.695312 104.53125 396.972656 105.460938 396.078125 106.558594 C 395.011719 107.898438 393.878906 109.136719 392.695312 110.394531 C 391.472656 111.683594 390.238281 112.921875 389.121094 114.296875 C 388.175781 115.480469 387.417969 116.582031 386.765625 117.957031 C 386.578125 118.386719 386.183594 119.296875 386.183594 119.882812 C 386.183594 119.882812 386.199219 119.882812 386.234375 119.898438 C 387.402344 120.292969 388.503906 120.347656 389.722656 120.363281 C 392.847656 120.277344 395.839844 119.8125 398.914062 119.246094 C 399.410156 119.125 399.980469 119.023438 400.496094 118.917969 C 400.613281 118.902344 400.734375 118.886719 400.855469 118.886719 C 400.992188 118.832031 401.128906 118.800781 401.265625 118.78125 C 405.253906 118.042969 409.085938 117.320312 413.054688 116.460938 C 418.996094 115.207031 424.890625 113.898438 430.851562 112.75 C 437.15625 111.578125 443.222656 110.632812 449.613281 110.03125 C 455.007812 109.550781 460.417969 109.222656 465.847656 109.5 C 466.828125 109.535156 474.746094 109.757812 475.230469 111.011719 C 475.230469 111.011719 475.230469 111.027344 475.230469 111.027344 C 475.195312 111.886719 466.621094 112.59375 466.003906 112.695312 C 460.761719 113.554688 455.609375 114.328125 450.367188 115.328125 C 444.304688 116.5625 438.410156 118.027344 432.433594 119.640625 C 426.625 121.222656 420.851562 122.941406 415.0625 124.59375 C 411.042969 125.570312 407.039062 126.863281 402.96875 127.636719 C 402.8125 127.667969 402.675781 127.6875 402.519531 127.703125 C 402.382812 127.738281 402.265625 127.773438 402.125 127.789062 C 401.558594 127.910156 400.976562 127.980469 400.390625 128.066406 C 396.644531 128.613281 393.226562 128.925781 389.429688 128.71875 C 386.59375 128.527344 384.292969 128.132812 381.851562 126.570312 C 380.71875 125.761719 379.996094 124.988281 379.328125 123.765625 C 378.742188 122.597656 378.519531 121.636719 378.484375 120.328125 C 378.539062 118.078125 379.15625 116.460938 380.222656 114.5 C 381.304688 112.644531 382.421875 111.21875 383.878906 109.636719 C 385.253906 108.226562 386.679688 107.007812 388.160156 105.699219 C 388.726562 105.183594 389.277344 104.6875 389.824219 104.152344 C 389.652344 104.171875 389.480469 104.171875 389.308594 104.152344 C 387.710938 104.152344 386.113281 104.03125 384.515625 103.878906 C 384.414062 103.859375 384.292969 103.84375 384.191406 103.84375 C 377.542969 113.695312 366.476562 121.222656 355.429688 125.246094 C 352.046875 126.484375 347.441406 127.824219 343.800781 127.085938 C 339.316406 126.175781 336.960938 122.410156 338.027344 117.957031 C 338.164062 117.390625 338.371094 116.820312 338.609375 116.238281 C 337.546875 116.875 336.464844 117.511719 335.378906 118.144531 C 333.4375 119.246094 331.515625 120.121094 329.503906 121.035156 C 327.734375 121.671875 326.207031 122.132812 324.316406 122.082031 C 323.199219 121.980469 322.390625 121.722656 321.429688 121.101562 C 320.878906 120.707031 320.503906 120.328125 320.125 119.761719 C 319.761719 119.210938 319.558594 118.730469 319.402344 118.09375 C 319.179688 117.082031 319.195312 116.324219 319.386719 115.308594 C 319.507812 114.585938 319.695312 113.953125 319.933594 113.265625 C 320.398438 111.941406 320.898438 110.789062 321.566406 109.601562 C 320.621094 109.652344 319.710938 109.621094 318.714844 109.515625 C 317.082031 109.277344 315.828125 108.898438 314.523438 107.8125 C 314.472656 107.761719 314.421875 107.726562 314.367188 107.675781 C 314.078125 108.125 313.785156 108.554688 313.492188 109 C 311.636719 111.941406 309.507812 114.707031 307.496094 117.542969 C 305.402344 120.347656 303.269531 122.992188 300.949219 125.625 C 298.992188 127.789062 297.066406 129.765625 294.816406 131.625 C 293.082031 132.980469 291.5 134.011719 289.457031 134.839844 C 288.53125 135.164062 287.789062 135.355469 286.8125 135.421875 C 285.574219 135.441406 284.664062 135.234375 283.597656 134.632812 C 282.464844 133.910156 281.828125 133.101562 281.332031 131.882812 C 280.96875 130.867188 280.882812 130.058594 280.917969 129.011719 C 281.003906 127.085938 281.453125 125.46875 282.050781 123.648438 C 282.722656 121.636719 283.496094 119.777344 284.371094 117.871094 C 282.636719 119.28125 280.9375 120.570312 279.027344 121.789062 C 277.105469 122.925781 275.4375 123.75 273.289062 124.386719 C 271.332031 124.882812 269.71875 125.054688 267.722656 124.574219 C 266.726562 124.28125 266.007812 123.921875 265.179688 123.25 C 264.425781 122.617188 263.960938 122.015625 263.480469 121.152344 C 263.273438 120.742188 263.101562 120.363281 262.984375 119.96875 C 261.796875 120.863281 260.613281 121.703125 259.339844 122.496094 C 257.984375 123.355469 256.746094 124.058594 255.285156 124.695312 C 253.910156 125.296875 252.761719 125.710938 251.265625 125.882812 C 250.457031 125.96875 249.839844 125.933594 249.03125 125.761719 C 248.191406 125.554688 247.570312 125.28125 246.882812 124.730469 C 246.316406 124.265625 245.941406 123.800781 245.628906 123.21875 C 244.53125 124.023438 243.414062 124.796875 242.261719 125.554688 C 238.792969 127.875 235.492188 129.835938 231.730469 131.640625 C 228.019531 133.34375 224.636719 134.597656 220.648438 135.441406 C 219.703125 135.613281 218.691406 135.765625 217.730469 135.851562 C 217.609375 135.851562 217.488281 135.851562 217.367188 135.851562 C 217.265625 135.871094 217.144531 135.871094 217.023438 135.886719 C 214.808594 135.957031 212.765625 135.664062 210.617188 135.042969 C 209.019531 134.546875 207.851562 133.976562 206.492188 133 C 205.71875 132.398438 205.101562 131.828125 204.550781 131.160156 C 204.484375 131.246094 204.414062 131.3125 204.328125 131.382812 C 204.261719 131.484375 204.175781 131.589844 204.089844 131.675781 C 203.589844 132.226562 203.003906 132.757812 202.523438 133.324219 C 196.839844 139.289062 191.582031 145.238281 186.410156 151.667969 C 184.605469 154.023438 182.921875 156.359375 181.253906 158.714844 C 184.691406 158.21875 187.527344 157.976562 188.074219 158.421875 C 188.179688 158.886719 183.867188 160.296875 179.140625 161.707031 C 177.972656 163.390625 176.789062 165.074219 175.585938 166.796875 C 174.882812 167.945312 174.160156 169.082031 173.421875 170.234375 C 173.199219 170.664062 170.894531 174.839844 170.226562 174.632812 C 170.207031 174.632812 170.207031 174.632812 170.207031 174.632812 C 169.382812 174.066406 170.65625 169.804688 170.859375 169.097656 C 171.257812 167.707031 171.71875 166.433594 172.269531 165.09375 C 172.460938 164.558594 172.648438 164.042969 172.855469 163.527344 C 169.917969 164.355469 167.648438 164.972656 167.339844 165.074219 C 156.101562 168.546875 145.039062 171.96875 133.90625 175.835938 C 121.777344 180.1875 110.164062 184.878906 98.34375 190.019531 C 87.347656 194.816406 76.539062 199.835938 65.71875 205.027344 C 56.816406 209.289062 47.953125 213.671875 38.914062 217.644531 C 32.234375 220.5 25.617188 223.144531 18.4375 224.417969 C 15.328125 224.863281 12.835938 225.003906 9.761719 224.296875 C 8.144531 223.867188 6.960938 223.371094 5.570312 222.441406 C 4.144531 221.425781 3.214844 220.445312 2.253906 218.96875 C 0.464844 215.925781 0.0351562 213.261719 0.00390625 209.769531 C 0.0703125 205.835938 0.707031 202.570312 1.71875 198.785156 C 2.425781 196.207031 3.214844 193.679688 4.160156 191.1875 C 4.332031 190.777344 4.488281 190.363281 4.660156 189.949219 C 4.8125 189.554688 4.949219 189.175781 5.105469 188.78125 C 7.871094 182.042969 11.253906 175.578125 14.742188 169.203125 C 22.199219 155.964844 30.1875 143.761719 38.96875 131.367188 C 40.394531 129.386719 41.835938 127.429688 43.28125 125.503906 C 41.714844 125.605469 40.171875 125.710938 38.605469 125.796875 C 34.140625 126.121094 29.636719 126.398438 25.171875 126.15625 C 23.042969 126.140625 20.722656 126.070312 18.695312 125.347656 C 18.316406 125.226562 18.007812 125.109375 17.664062 124.902344 C 17.527344 124.796875 17.164062 124.625 17.0625 124.488281 C 16.769531 124.195312 16.582031 123.9375 16.410156 123.5625 C 16.21875 123.011719 16.203125 122.546875 16.375 121.996094 C 16.511719 121.566406 16.703125 121.292969 17.027344 120.980469 C 17.421875 120.65625 17.765625 120.5 18.246094 120.347656 C 19.65625 120.003906 21.460938 119.898438 22.921875 119.863281 C 23.453125 119.882812 26.238281 120.140625 28.230469 120.433594 C 31.425781 119.984375 34.65625 119.503906 37.800781 118.9375 C 41.855469 118.214844 45.890625 117.457031 49.945312 116.71875 C 55.90625 109.050781 62.039062 101.609375 68.570312 94.164062 C 77.398438 84.160156 86.195312 74.945312 95.9375 65.851562 C 102.3125 59.835938 108.652344 54.214844 115.644531 48.917969 C 119.183594 46.1875 122.738281 43.554688 126.65625 41.355469 C 127.601562 40.804688 128.527344 40.273438 129.542969 39.859375 C 129.9375 39.6875 130.28125 39.566406 130.695312 39.480469 C 130.882812 39.464844 131.226562 39.363281 131.398438 39.394531 C 131.757812 39.394531 132.015625 39.449219 132.34375 39.566406 C 132.808594 39.757812 133.117188 39.980469 133.40625 40.375 C 133.664062 40.769531 133.785156 41.113281 133.835938 41.597656 C 133.835938 42.164062 133.734375 42.558594 133.511719 43.074219 C 133.046875 43.96875 132.410156 44.757812 131.792969 45.53125 C 129.800781 47.800781 127.703125 50.070312 125.554688 52.1875 C 124.199219 53.441406 116.589844 60.609375 115.746094 60.796875 C 115.746094 60.796875 115.746094 60.796875 115.765625 60.78125 C 115.988281 60.109375 122.328125 51.757812 123.359375 50.277344 C 123.597656 49.949219 124.234375 49.125 124.988281 48.164062 C 122.980469 49.746094 121.003906 51.378906 119.027344 53.0625 C 112.671875 58.785156 106.691406 64.582031 100.695312 70.699219 C 91.726562 80.15625 83.378906 89.609375 75.097656 99.699219 C 71.230469 104.496094 67.503906 109.308594 63.84375 114.15625 C 71.988281 112.644531 80.097656 111.097656 88.257812 109.6875 C 93.773438 108.761719 99.355469 107.640625 104.886719 106.867188 C 105.078125 106.835938 105.285156 106.816406 105.472656 106.816406 C 105.695312 106.765625 105.902344 106.714844 106.109375 106.695312 C 110.832031 106.0625 115.695312 105.597656 120.4375 105.097656 C 130.625 104.03125 140.761719 103.050781 150.984375 102.277344 C 159.144531 101.625 167.234375 101.09375 175.414062 100.871094 Z M 360.550781 105.992188 C 359.3125 106.542969 358.09375 107.316406 357.0625 108.039062 C 356.734375 108.261719 356.375 108.535156 355.996094 108.828125 C 356.632812 108.65625 357.25 108.417969 357.679688 108.191406 C 358.574219 107.746094 359.726562 106.921875 360.550781 105.992188 Z M 253.191406 117.714844 C 257.398438 114.929688 260.902344 111.21875 264.375 107.574219 C 260.558594 110.273438 255.335938 113.46875 253.191406 117.714844 Z M 238.65625 4.757812 C 238.914062 4.707031 239.171875 4.652344 239.429688 4.621094 C 248.964844 3.449219 258.808594 2.644531 268.378906 1.921875 C 278.769531 1.148438 289.046875 0.578125 299.492188 0.425781 C 306.773438 0.253906 313.886719 0.269531 321.171875 0.664062 C 324.746094 0.769531 328.921875 0.871094 332.425781 1.523438 C 333.542969 1.699219 334.4375 1.871094 335.414062 2.453125 C 335.863281 2.746094 336.152344 3.019531 336.445312 3.46875 C 336.652344 3.8125 336.773438 4.121094 336.839844 4.515625 C 336.925781 4.929688 336.910156 5.273438 336.824219 5.683594 C 336.6875 6.289062 336.464844 6.699219 336.035156 7.148438 C 335.792969 7.386719 335.585938 7.558594 335.3125 7.730469 C 333.867188 8.4375 331.839844 8.78125 330.261719 9.125 C 327.992188 9.605469 325.640625 10.101562 323.355469 10.515625 C 321.34375 10.929688 319.335938 11.308594 317.308594 11.617188 C 316.449219 11.789062 314.851562 12.132812 313.992188 12.148438 C 312.289062 12.527344 312.015625 10.464844 313.339844 9.984375 C 314.128906 9.5 315.640625 9.003906 316.515625 8.695312 C 317.375 8.351562 318.234375 8.023438 319.109375 7.695312 C 312.71875 8.109375 306.347656 8.539062 299.953125 9.054688 C 289.835938 10.171875 279.527344 11.015625 269.460938 12.492188 C 259.925781 13.765625 250.476562 15.226562 240.992188 16.550781 C 240.734375 16.585938 240.476562 16.601562 240.21875 16.636719 C 239.976562 16.671875 239.738281 16.722656 239.496094 16.738281 C 237.726562 16.980469 235.921875 17.132812 234.152344 17.375 C 222.644531 18.820312 211.082031 20.039062 199.585938 21.585938 C 189.949219 22.894531 180.308594 24.269531 170.671875 25.523438 C 163.542969 26.554688 156.394531 27.621094 149.25 28.464844 C 145.484375 29.011719 141.65625 29.597656 137.875 29.90625 C 136.671875 30.097656 135.539062 30.285156 134.335938 30.320312 C 134.335938 30.320312 134.199219 30.335938 134.179688 30.335938 C 134.09375 30.320312 133.941406 30.335938 133.855469 30.320312 C 133.71875 30.285156 133.460938 30.25 133.339844 30.183594 C 133.097656 30.078125 132.925781 29.976562 132.738281 29.804688 C 132.394531 29.476562 132.207031 29.132812 132.085938 28.667969 C 132.015625 28.1875 132.050781 27.808594 132.257812 27.363281 C 132.378906 27.121094 132.480469 26.96875 132.652344 26.777344 C 132.808594 26.675781 132.925781 26.539062 133.097656 26.453125 C 133.183594 26.398438 133.289062 26.347656 133.390625 26.3125 C 134.386719 25.96875 135.933594 25.660156 137.015625 25.367188 C 140.65625 24.285156 144.453125 23.441406 148.148438 22.601562 C 155.160156 20.8125 162.203125 19.25 169.28125 17.71875 C 178.851562 15.742188 188.351562 13.488281 197.988281 11.753906 C 209.464844 9.707031 220.992188 7.265625 232.539062 5.632812 C 234.34375 5.394531 236.128906 5.050781 237.933594 4.824219 C 238.175781 4.792969 238.414062 4.773438 238.65625 4.757812 Z M 340.003906 77.386719 C 340.277344 77.199219 342.0625 76.492188 342.304688 76.457031 C 343.972656 75.890625 345.570312 75.566406 347.339844 75.925781 C 348.574219 76.046875 350.191406 76.441406 350.480469 77.886719 C 350.515625 79.039062 349.417969 80.015625 348.660156 80.722656 C 347.972656 81.632812 347.183594 82.492188 346.425781 83.335938 C 346.324219 83.507812 345.449219 84.589844 345.292969 84.710938 C 345.277344 84.710938 345.257812 84.726562 345.242188 84.726562 C 345.226562 84.746094 345.226562 84.746094 345.207031 84.761719 C 344.726562 85.035156 343.371094 85.5 342.835938 85.636719 C 341.050781 85.898438 337.304688 87.238281 336.410156 86.757812 C 336.410156 86.738281 336.410156 86.738281 336.410156 86.738281 C 335.863281 85.671875 337.40625 81.21875 337.976562 80 C 338.386719 79.277344 339.28125 78.007812 339.898438 77.472656 C 339.917969 77.457031 339.949219 77.457031 339.96875 77.457031 C 339.96875 77.421875 339.984375 77.40625 340.003906 77.386719 Z M 340.003906 77.386719 " fill-opacity="1" fill-rule="evenodd"/></g></svg>